<svg width="1094" height="685" viewBox="0 0 1094 685" fill="none" xmlns="http://www.w3.org/2000/svg">
<g clip-path="url(#clip0_281_7178)">
<path fill-rule="evenodd" clip-rule="evenodd" d="M136.732 685C98.9688 685 64.7806 669.666 40.0334 644.873C15.2863 620.083 -0.0205078 585.833 -0.0205078 548H136.732V685Z" fill="#E680FF"/>
<path fill-rule="evenodd" clip-rule="evenodd" d="M68.3556 548C49.4742 548 32.38 540.331 20.0063 527.936C7.63287 515.541 -0.0205078 498.416 -0.0205078 479.5C-0.0205078 460.584 7.63287 443.459 20.0063 431.064C32.38 418.669 49.4742 411 68.3556 411C87.2375 411 104.332 418.669 116.705 431.064C129.079 443.459 136.732 460.584 136.732 479.5C136.732 498.416 129.079 515.541 116.705 527.936C104.332 540.331 87.2375 548 68.3556 548Z" fill="#F2D9FF"/>
<path fill-rule="evenodd" clip-rule="evenodd" d="M136.732 685V548H273.485C273.485 585.833 258.179 620.083 233.431 644.873C208.684 669.666 174.496 685 136.732 685Z" fill="#F2D9FF"/>
<path fill-rule="evenodd" clip-rule="evenodd" d="M410.238 685H273.484C273.484 647.167 288.791 612.917 313.538 588.127C338.285 563.334 372.474 548 410.238 548V685Z" fill="#5F247E"/>
<path fill-rule="evenodd" clip-rule="evenodd" d="M410.238 685H546.991V548H410.238V685Z" fill="#5F247E"/>
<path fill-rule="evenodd" clip-rule="evenodd" d="M410.238 411H546.991V274.001H410.238V411Z" fill="#5F247E"/>
<path fill-rule="evenodd" clip-rule="evenodd" d="M546.991 411H410.238V274.001C447.999 274.001 482.187 289.335 506.936 314.127C531.682 338.919 546.991 373.167 546.991 411Z" fill="#E680FF"/>
<path fill-rule="evenodd" clip-rule="evenodd" d="M546.991 274.001H410.238C410.238 236.169 425.544 201.919 450.29 177.128C475.039 152.335 509.227 137.001 546.991 137.001V274.001Z" fill="#F2D9FF"/>
<path fill-rule="evenodd" clip-rule="evenodd" d="M478.615 137.001C459.733 137.001 442.638 129.334 430.266 116.938C417.89 104.542 410.238 87.4173 410.238 68.5017V68.5014C410.238 49.5858 417.89 32.4608 430.266 20.0647C442.638 7.66891 459.733 0.00170898 478.615 0.00170898C497.494 0.00170898 514.588 7.66891 526.964 20.0647C539.337 32.4608 546.991 49.5858 546.991 68.5014V68.5017C546.991 87.4173 539.337 104.542 526.964 116.938C514.588 129.334 497.494 137.001 478.615 137.001Z" fill="#F2D9FF"/>
<path fill-rule="evenodd" clip-rule="evenodd" d="M546.991 548V411H683.744C683.744 448.833 668.435 483.083 643.689 507.873C618.94 532.666 584.752 548 546.991 548Z" fill="#16A99A"/>
<path fill-rule="evenodd" clip-rule="evenodd" d="M546.991 548V411H683.744C683.744 448.833 668.435 483.083 643.689 507.873C618.94 532.666 584.752 548 546.991 548Z" fill="#F2D9FF"/>
<path fill-rule="evenodd" clip-rule="evenodd" d="M683.744 411H546.991V137.001C584.752 137.001 618.94 152.335 643.689 177.128C668.435 201.919 683.744 236.169 683.744 274.001V411Z" fill="#E680FF"/>
<path fill-rule="evenodd" clip-rule="evenodd" d="M683.744 411H546.991V274.001C584.752 274.001 618.94 289.335 643.689 314.127C668.435 338.919 683.744 373.167 683.744 411Z" fill="#5F247E"/>
<path fill-rule="evenodd" clip-rule="evenodd" d="M1094 548C1056.24 548 1022.05 532.666 997.302 507.873C972.553 483.083 957.247 448.833 957.247 411H1094V548Z" fill="#E680FF"/>
<path fill-rule="evenodd" clip-rule="evenodd" d="M1094 685C1056.24 685 1022.05 669.666 997.302 644.873C972.553 620.083 957.247 585.833 957.247 548H1094V685Z" fill="#5F247E"/>
<path fill-rule="evenodd" clip-rule="evenodd" d="M820.494 685H683.744C683.744 647.167 699.05 612.917 723.796 588.127C748.545 563.334 782.733 548 820.494 548V685Z" fill="#5F247E"/>
<path fill-rule="evenodd" clip-rule="evenodd" d="M1094 548H820.494V411H957.247C995.011 411 1029.2 426.334 1053.95 451.127C1078.69 475.917 1094 510.167 1094 548Z" fill="#5F247E"/>
<path fill-rule="evenodd" clip-rule="evenodd" d="M1094 411H820.494C820.494 373.167 835.804 338.919 860.549 314.127C885.298 289.335 919.486 274.001 957.247 274.001C995.011 274.001 1029.2 289.335 1053.95 314.127C1078.69 338.919 1094 373.167 1094 411Z" fill="#F2D9FF"/>
<path fill-rule="evenodd" clip-rule="evenodd" d="M820.494 548C782.733 548 748.545 532.666 723.796 507.873C699.05 483.083 683.744 448.833 683.744 411H820.494V548Z" fill="#5F247E"/>
<path fill-rule="evenodd" clip-rule="evenodd" d="M820.494 411H807.03C772.986 411 742.165 397.177 719.854 374.825C697.543 352.474 683.744 321.596 683.744 287.489V274.001H820.494V411Z" fill="#E680FF"/>
<path fill-rule="evenodd" clip-rule="evenodd" d="M820.494 274.001H683.744V137.001C721.505 137.001 755.693 152.335 780.442 177.128C805.188 201.919 820.494 236.169 820.494 274.001Z" fill="#F2D9FF"/>
<path fill-rule="evenodd" clip-rule="evenodd" d="M820.494 685V548H957.247C957.247 585.833 941.941 620.083 917.196 644.873C892.447 669.666 858.258 685 820.494 685Z" fill="#16A99A"/>
<path fill-rule="evenodd" clip-rule="evenodd" d="M820.494 685V548H957.247C957.247 585.833 941.941 620.083 917.196 644.873C892.447 669.666 858.258 685 820.494 685Z" fill="#E680FF"/>
<path fill-rule="evenodd" clip-rule="evenodd" d="M957.247 548H820.494V411C858.258 411 892.447 426.334 917.196 451.127C941.941 475.917 957.247 510.167 957.247 548Z" fill="#F2D9FF"/>
<path fill-rule="evenodd" clip-rule="evenodd" d="M820.494 411V274.001H957.247C957.247 311.833 941.941 346.082 917.196 370.876C892.447 395.666 858.258 411 820.494 411Z" fill="#5F247E"/>
<path fill-rule="evenodd" clip-rule="evenodd" d="M957.247 274.001H820.494C820.494 236.169 835.8 201.919 860.549 177.128C885.298 152.335 919.486 137.001 957.247 137.001V274.001Z" fill="#F2D9FF"/>
<path fill-rule="evenodd" clip-rule="evenodd" d="M615.368 685C596.486 685 579.391 677.331 567.015 664.936C554.643 652.541 546.991 635.416 546.991 616.5C546.991 597.584 554.643 580.459 567.015 568.064C579.391 555.669 596.486 548 615.368 548C634.246 548 651.341 555.669 663.717 568.064C676.089 580.459 683.744 597.584 683.744 616.5C683.744 635.416 676.089 652.541 663.717 664.936C651.341 677.331 634.246 685 615.368 685Z" fill="#E680FF"/>
<path fill-rule="evenodd" clip-rule="evenodd" d="M273.362 273.878L273.362 137.124L410.361 137.124C410.361 174.888 395.027 209.074 370.235 233.823C345.443 258.572 311.193 273.878 273.362 273.878Z" fill="#E680FF"/>
</g>
<defs>
<clipPath id="clip0_281_7178">
<rect width="1094" height="685" fill="white"/>
</clipPath>
</defs>
</svg>
