<?xml version="1.0" encoding="utf-8"?>
<!-- Generator: Adobe Illustrator 23.0.1, SVG Export Plug-In . SVG Version: 6.00 Build 0)  -->
<svg version="1.1" id="U_Bank_Logo" xmlns="http://www.w3.org/2000/svg" xmlns:xlink="http://www.w3.org/1999/xlink" x="0px"
	 y="0px" viewBox="0 0 158.2 30.4" style="enable-background:new 0 0 158.2 30.4;" xml:space="preserve">
<style type="text/css">
	.st0{fill:#FFFFFF;}
	.st1{opacity:0.4;fill:#FFFFFF;}
</style>
<path class="st0" d="M14.1,28.9C6.3,28.9,0,22.5,0,14.7V0.2h4v14.6c0,5.6,4.6,10.1,10.1,10.1s10.2-4.6,10.2-10.1h4
	C28.3,22.5,22,28.9,14.1,28.9z"/>
<polygon class="st1" points="32.2,4 28.3,4 28.3,0.2 24.3,0.2 24.3,4 20.4,4 20.4,8 24.3,8 24.3,11.9 28.3,11.9 28.3,8 32.2,8 "/>
<g>
	<path class="st0" d="M36.7,14.7C36.7,6.6,43.3,0,52,0c3.3,0,6.8,1.1,8.8,2.3l-1.6,3.4c0,0-3.2-1.6-7.1-1.6
		c-6.1,0-10.5,4.6-10.5,10.7c0,6.1,4.4,10.7,10.5,10.7c3.9,0,7.1-1.6,7.1-1.6l1.6,3.4c-2,1.1-5.5,2.3-8.8,2.3
		C43.3,29.4,36.7,22.8,36.7,14.7z"/>
	<path class="st0" d="M73.9,7.4c6.2,0,11.1,4.6,11.1,11c0,6.4-5,11-11.1,11c-6.1,0-11-4.6-11-11C62.9,12,67.8,7.4,73.9,7.4z
		 M67.4,18.4c0,4,2.7,7.1,6.5,7.1c3.7,0,6.5-3.1,6.5-7.1c0-4.1-2.7-7.1-6.5-7.1C70.1,11.3,67.4,14.3,67.4,18.4z"/>
	<path class="st0" d="M93.3,7.7L94,11c1-2.3,3.8-3.6,6-3.6c2.9,0,5.4,1.7,6.4,4.1c0.9-2.2,3.9-4.1,6.5-4.1c5.3,0,8.2,2.8,8.2,8.6
		v13.1h-4.5V15.9c0-2.5-1.3-4.3-4.2-4.3c-3,0-4.7,2.4-4.7,5.2v12.3h-4.4V15.7c0-2.3-1.5-4.1-4.2-4.1c-3,0-4.7,2.4-4.7,5.2v12.3h-4.5
		V7.7H93.3z"/>
	<path class="st0" d="M130.4,7.7l0.7,3.3c1-2.3,3.8-3.6,6-3.6c2.9,0,5.4,1.7,6.4,4.1c0.9-2.2,3.9-4.1,6.5-4.1c5.3,0,8.2,2.8,8.2,8.6
		v13.1h-4.5V15.9c0-2.5-1.3-4.3-4.2-4.3c-3,0-4.7,2.4-4.7,5.2v12.3h-4.4V15.7c0-2.3-1.5-4.1-4.2-4.1c-3,0-4.7,2.4-4.7,5.2v12.3H127
		V7.7H130.4z"/>
</g>
</svg>
