<svg version="1.1" id="U_Bank_Logo" xmlns="http://www.w3.org/2000/svg" x="0" y="0" viewBox="0 0 158.2 30.4" xml:space="preserve"><style>.st0{fill:#fff}</style><path class="st0" d="M14.1 28.9C6.3 28.9 0 22.5 0 14.7V.2h4v14.6c0 5.6 4.6 10.1 10.1 10.1s10.2-4.6 10.2-10.1h4c0 7.7-6.3 14.1-14.2 14.1z"/><path opacity=".4" fill="#fff" d="M32.2 4h-3.9V.2h-4V4h-3.9v4h3.9v3.9h4V8h3.9z"/><path class="st0" d="M36.7 14.7C36.7 6.6 43.3 0 52 0c3.3 0 6.8 1.1 8.8 2.3l-1.6 3.4S56 4.1 52.1 4.1c-6.1 0-10.5 4.6-10.5 10.7S46 25.5 52.1 25.5c3.9 0 7.1-1.6 7.1-1.6l1.6 3.4c-2 1.1-5.5 2.3-8.8 2.3-8.7-.2-15.3-6.8-15.3-14.9zm37.2-7.3c6.2 0 11.1 4.6 11.1 11s-5 11-11.1 11-11-4.6-11-11 4.9-11 11-11zm-6.5 11c0 4 2.7 7.1 6.5 7.1 3.7 0 6.5-3.1 6.5-7.1 0-4.1-2.7-7.1-6.5-7.1s-6.5 3-6.5 7.1zM93.3 7.7L94 11c1-2.3 3.8-3.6 6-3.6 2.9 0 5.4 1.7 6.4 4.1.9-2.2 3.9-4.1 6.5-4.1 5.3 0 8.2 2.8 8.2 8.6v13.1h-4.5V15.9c0-2.5-1.3-4.3-4.2-4.3-3 0-4.7 2.4-4.7 5.2v12.3h-4.4V15.7c0-2.3-1.5-4.1-4.2-4.1-3 0-4.7 2.4-4.7 5.2v12.3h-4.5V7.7h3.4zm37.1 0l.7 3.3c1-2.3 3.8-3.6 6-3.6 2.9 0 5.4 1.7 6.4 4.1.9-2.2 3.9-4.1 6.5-4.1 5.3 0 8.2 2.8 8.2 8.6v13.1h-4.5V15.9c0-2.5-1.3-4.3-4.2-4.3-3 0-4.7 2.4-4.7 5.2v12.3h-4.4V15.7c0-2.3-1.5-4.1-4.2-4.1-3 0-4.7 2.4-4.7 5.2v12.3H127V7.7h3.4z"/></svg>