<svg id="U_Bank_Logo" data-name="U Bank Logo" xmlns="http://www.w3.org/2000/svg" viewBox="0 0 169.51 30.4"><defs><style>.cls-1{fill:#fff}</style></defs><path class="cls-1" d="M14.1 29.8A14.08 14.08 0 010 15.7V1.1h4v14.6a10.14 10.14 0 0010.1 10.1 10.29 10.29 0 0010.2-10.1h4a14.11 14.11 0 01-14.2 14.1z"/><path d="M32.2 5h-3.9V1.1h-4V5h-3.9v4h3.9v3.9h4V9h3.9z" style="isolation:isolate" opacity=".4" fill="#fff"/><path class="cls-1" d="M86 8.3c6.4 0 9.8 5.3 9.8 10.8a9.07 9.07 0 01-.2 2H80c.2 3.6 3.2 5.5 6.6 5.5a16.18 16.18 0 006.2-1.4l1.5 3.3a16.63 16.63 0 01-7.8 1.9c-6.5 0-11.1-4.6-11.1-10.9S79.71 8.3 86 8.3zm5.6 9.5c-.1-2.9-1.6-5.6-5.3-5.6a6 6 0 00-6.2 5.6zm17.2-9.5c5.2 0 8.1 2.3 8.1 7v9.9c0 .7.4.8 1.1.8a12.27 12.27 0 001.7-.1v3.5a9.34 9.34 0 01-3 .6c-1.6 0-3.5-.7-3.5-2.7v-.4c-1.1 2.2-3.5 3.5-6.8 3.5-4.2 0-7.6-2.4-7.6-6.8 0-4.9 4.1-6.6 9.1-6.6 1.5 0 3.9.2 4.9.3V16c0-3.3-2.2-4.1-4.6-4.1a33.47 33.47 0 00-6.7.9l-.8-3.2a30.31 30.31 0 018.11-1.3zm-.4 11.7c-2.5 0-5.7.5-5.7 3.4 0 2.3 2 3.4 4.3 3.4 2.8 0 5.7-1.8 5.7-4.2v-2.2a22.39 22.39 0 00-4.29-.4zm19.7-20v25.2a.79.79 0 00.9.9 11.48 11.48 0 001.8-.1v3.5a13.17 13.17 0 01-3.5.6c-2.6 0-3.6-1.9-3.6-3.8V0zm12.7 2.5v6.1h4.9V12h-4.9v11.2c0 1.8.7 3.2 2.7 3.2.7 0 1.6-.1 2.6-.2l.7 3.2a10.19 10.19 0 01-4 .8c-4.8 0-6.4-2.4-6.4-7.3V12h-3V9.3l3-.6.7-6.2zM155 0v11.7a7.55 7.55 0 016.5-3.4c4.3 0 8 2.6 8 9V30H165V17.5c0-3.1-1.8-4.9-4.6-4.9-3.7 0-5.4 2.9-5.4 5.7V30h-4.5V0zM67.87 30h-5.14l-4.9-17.24c-.21-.75-.48-1.83-.79-3.25s-.51-2.4-.58-2.95c-.13.84-.34 1.93-.64 3.28s-.54 2.34-.74 3L50.3 30h-5.14l-3.74-14.47L37.63 1.1h4.82l4.13 16.84A69.5 69.5 0 0148 25.1c.15-1.12.37-2.37.66-3.76s.55-2.5.79-3.36L54.11 1.1h4.69l4.82 17a62.73 62.73 0 011.46 7 50.64 50.64 0 011.43-7.2l4.11-16.8h4.78z"/></svg>