<?xml version="1.0" encoding="utf-8"?>
<!-- Generator: Adobe Illustrator 23.0.1, SVG Export Plug-In . SVG Version: 6.00 Build 0)  -->
<svg version="1.1" id="U_Bank_Logo" xmlns="http://www.w3.org/2000/svg" xmlns:xlink="http://www.w3.org/1999/xlink" x="0px"
	 y="0px" viewBox="0 0 160.9 30.4" style="enable-background:new 0 0 160.9 30.4;" xml:space="preserve">
<style type="text/css">
	.st0{fill:#FFFFFF;}
	.st1{opacity:0.4;fill:#FFFFFF;}
</style>
<path class="st0" d="M14.1,29.8C6.3,29.8,0,23.5,0,15.7V1.1h4v14.6c0,5.6,4.6,10.1,10.1,10.1s10.2-4.6,10.2-10.1h4
	C28.3,23.5,22,29.8,14.1,29.8z"/>
<polygon class="st1" points="32.2,5 28.3,5 28.3,1.1 24.3,1.1 24.3,5 20.4,5 20.4,9 24.3,9 24.3,12.9 28.3,12.9 28.3,9 32.2,9 "/>
<path class="st0" d="M42.9,1.3v12.5h13.8V1.3h4.5V30h-4.5V18H42.9V30h-4.5V1.3H42.9z"/>
<path class="st0" d="M77,8.3c6.4,0,9.8,5.3,9.8,10.8c0,1.2-0.2,2-0.2,2H71c0.2,3.6,3.2,5.5,6.6,5.5c2.3,0,4.6-0.7,6.2-1.4l1.5,3.3
	c-1.9,1.1-4.9,1.9-7.8,1.9c-6.5,0-11.1-4.6-11.1-10.9C66.4,13.2,70.7,8.3,77,8.3z M82.6,17.8c-0.1-2.9-1.6-5.6-5.3-5.6
	c-3.3,0-5.8,2.2-6.2,5.6H82.6z"/>
<path class="st0" d="M99.8,8.3c5.2,0,8.1,2.3,8.1,7v9.9c0,0.7,0.4,0.8,1.1,0.8c0.3,0,1,0,1.7-0.1v3.5c-0.2,0.1-1.7,0.6-3,0.6
	c-1.6,0-3.5-0.7-3.5-2.7v-0.4c-1.1,2.2-3.5,3.5-6.8,3.5c-4.2,0-7.6-2.4-7.6-6.8c0-4.9,4.1-6.6,9.1-6.6c1.5,0,3.9,0.2,4.9,0.3V16
	c0-3.3-2.2-4.1-4.6-4.1c-1.7,0-4.7,0.4-6.7,0.9l-0.8-3.2C93.3,9.1,96.7,8.3,99.8,8.3z M99.4,20c-2.5,0-5.7,0.5-5.7,3.4
	c0,2.3,2,3.4,4.3,3.4c2.8,0,5.7-1.8,5.7-4.2v-2.2C102.9,20.2,101,20,99.4,20z"/>
<path class="st0" d="M119.1,0v25.2c0,0.7,0.4,0.9,0.9,0.9c0.6,0,1.1,0,1.8-0.1v3.5c-0.2,0.1-2.1,0.6-3.5,0.6c-2.6,0-3.6-1.9-3.6-3.8
	V0H119.1z"/>
<path class="st0" d="M131.8,2.5v6.1h4.9V12h-4.9v11.2c0,1.8,0.7,3.2,2.7,3.2c0.7,0,1.6-0.1,2.6-0.2l0.7,3.2c-1.1,0.5-2.6,0.8-4,0.8
	c-4.8,0-6.4-2.4-6.4-7.3V12h-3V9.3l3-0.6l0.7-6.2H131.8z"/>
<path class="st0" d="M146,0v11.7c0.7-1.1,2.7-3.4,6.5-3.4c4.3,0,8,2.6,8,9V30H156V17.5c0-3.1-1.8-4.9-4.6-4.9
	c-3.7,0-5.4,2.9-5.4,5.7V30h-4.5V0H146z"/>
</svg>
