<?xml version="1.0" encoding="utf-8"?>
<!-- Generator: Adobe Illustrator 23.0.6, SVG Export Plug-In . SVG Version: 6.00 Build 0)  -->
<svg version="1.1" id="U_Bank_Logo" xmlns="http://www.w3.org/2000/svg" xmlns:xlink="http://www.w3.org/1999/xlink" x="0px"
	 y="0px" viewBox="0 0 120 30" style="enable-background:new 0 0 176.8 30.4;" xml:space="preserve">
<style type="text/css">
	.st0{fill:#FFFFFF;}
	.st1{opacity:0.4;fill:#FFFFFF;enable-background:new    ;}
</style>
<path class="st0" d="M7801.9,28.9c-7.8,0-14.1-6.3-14.1-14.1V0.2h4v14.6c0,5.6,4.6,10.1,10.1,10.1s10.2-4.6,10.2-10.1h4
	C7816,22.5,7809.7,28.9,7801.9,28.9z"/>
<polygon class="st1" points="7819.9,4 7816,4 7816,0.2 7812,0.2 7812,4 7808.1,4 7808.1,8 7812,8 7812,11.9 7816,11.9 7816,8 
	7819.9,8 "/>
<path class="st0" d="M7849.1,2.4l-1.8,3.4c-0.5-0.2-3.6-1.7-7.4-1.7c-6.2,0-10.6,4.6-10.6,10.6c0,6.2,4.5,10.7,10.4,10.7
	c2.3,0,4.8-0.7,6.6-2.3v-5.5h-7.5v-3.7h11.7v11c-3.6,3.4-6.9,4.6-10.6,4.6c-8.9,0-15.4-6.6-15.4-14.7s6.7-14.8,15-14.8
	C7843.1,0,7846.6,0.9,7849.1,2.4z"/>
<path class="st0" d="M7865.7,7.4c6.2,0,11.1,4.6,11.1,11s-5,11-11.1,11s-11-4.6-11-11C7854.6,12,7859.6,7.4,7865.7,7.4z
	 M7859.2,18.4c0,4,2.7,7.1,6.5,7.1c3.7,0,6.5-3.1,6.5-7.1c0-4.1-2.7-7.1-6.5-7.1C7861.9,11.3,7859.2,14.3,7859.2,18.4z"/>
<path class="st0" d="M7883.3,7.7l5.2,16.4h0.1l5.3-16.4h4.6l-7.8,21.3h-4.3l-7.6-21.3C7878.8,7.7,7883.3,7.7,7883.3,7.7z"/>
<path class="st0" d="M14,30.2C6.6,30.2,0.6,24,0.6,16.4V2.2h3.8v14.2c0,5.4,4.3,9.9,9.6,9.9s9.6-4.4,9.6-9.9h3.8
	C27.3,24,21.3,30.2,14,30.2z"/>
<polygon class="st1" points="31,7 27.3,7 27.3,3.2 23.6,3.2 23.6,7 19.9,7 19.9,10.9 23.6,10.9 23.6,14.7 27.3,14.7 27.3,10.9 
	31,10.9 "/>
<g>
	<path class="st0" d="M32.8,15.4c0-7.9,6.6-14.7,15.4-14.7c3.5,0.1,6.8,1.2,8.6,2.3l-2.1,4.3c0,0-2.9-1.6-6.7-1.6
		c-5.5,0-9.3,4.1-9.3,9.7s3.8,9.7,9.3,9.7c3.7,0,6.7-1.6,6.7-1.6l2.1,4.3c-1.8,1.1-5.2,2.3-8.6,2.3C39.5,30.1,32.8,23.3,32.8,15.4z"
		/>
	<path class="st0" d="M68.8,8.2c5.2,0,8.1,2.4,8.1,7v8.7c0,0.6,0.3,0.7,0.9,0.7c0.3,0,1,0,1.9-0.1v4.4c-0.2,0.1-1.9,0.7-3.3,0.7
		c-1.3,0-3.5-0.4-3.5-2.7v-0.4c-1.2,2.1-3.6,3.6-6.5,3.6c-3.8,0-7.6-2.4-7.6-6.8c0-4.5,3.9-6.7,8.7-6.7c1.4,0,3,0.1,4.3,0.3v-0.6
		c0-3.1-2.1-3.5-3.8-3.5c-1.8,0-4.7,0.4-6.3,0.8l-1-3.9C62.5,8.9,66,8.2,68.8,8.2z M68.4,20c-1.8,0-4.6,0.4-4.6,2.9
		c0,1.9,1.6,2.9,3.4,2.9c2.1,0,4.5-1.4,4.5-3.4v-2.1C70.6,20.1,69.4,20,68.4,20z"/>
	<path class="st0" d="M87.2,8.8l0.7,3.3c1.3-2.7,3.5-3.5,7.2-3.5v5.7c-0.2,0-0.4,0-0.7,0c-3.5,0-6.1,1.4-6.1,5.9v9.3h-5.6V8.8H87.2z
		"/>
	<path class="st0" d="M106.9,8.2c6.5,0,9.6,5,9.6,10.6c0,1.4-0.2,2.4-0.2,2.4h-14c0.2,3,2.8,4.1,5.3,4.1c2.4,0,4.5-0.6,5.9-1.2
		l1.9,4.1c-2.1,1.2-5.1,1.8-7.9,1.8c-6.3,0-10.9-4.3-10.9-10.7C96.6,12.8,100.7,8.2,106.9,8.2z M111.3,17.3c-0.1-2.3-1-4.3-4.1-4.3
		c-2.6,0-4.5,1.5-5,4.3H111.3z"/>
</g>
</svg>
