<svg width="216" height="58" viewBox="0 0 216 58" fill="none" xmlns="http://www.w3.org/2000/svg">
<path d="M73.5203 22.478H68.21C68.0058 21.3433 67.6256 20.3447 67.0697 19.4824C66.5137 18.62 65.8328 17.8882 65.0272 17.2868C64.2216 16.6854 63.3195 16.2315 62.321 15.9251C61.3338 15.6188 60.2842 15.4656 59.1722 15.4656C57.1638 15.4656 55.3654 15.9705 53.7768 16.9804C52.1996 17.9903 50.9514 19.471 50.0323 21.4227C49.1246 23.3744 48.6707 25.7572 48.6707 28.5712C48.6707 31.4079 49.1246 33.8021 50.0323 35.7538C50.9514 37.7054 52.2053 39.1805 53.7938 40.1791C55.3824 41.1776 57.1695 41.6768 59.1552 41.6768C60.2559 41.6768 61.2998 41.5293 62.2869 41.2343C63.2855 40.928 64.1875 40.4798 64.9932 39.8897C65.7988 39.2997 66.4796 38.5792 67.0356 37.7281C67.603 36.8658 67.9944 35.8786 68.21 34.7666L73.5203 34.7836C73.2367 36.497 72.6863 38.0742 71.8694 39.5153C71.0637 40.945 70.0255 42.1818 68.7547 43.2257C67.4952 44.2583 66.0541 45.0582 64.4315 45.6256C62.8089 46.1929 61.0388 46.4766 59.1212 46.4766C56.1029 46.4766 53.4137 45.7617 51.0536 44.332C48.6934 42.891 46.8325 40.8315 45.4709 38.1536C44.1206 35.4758 43.4455 32.2816 43.4455 28.5712C43.4455 24.8494 44.1263 21.6553 45.4879 18.9888C46.8495 16.3109 48.7104 14.2572 51.0706 12.8275C53.4307 11.3864 56.1143 10.6659 59.1212 10.6659C60.9707 10.6659 62.6954 10.9325 64.2953 11.4658C65.9066 11.9878 67.3533 12.7594 68.6355 13.7806C69.9177 14.7905 70.9786 16.0273 71.8183 17.491C72.658 18.9434 73.2253 20.6057 73.5203 22.478ZM90.4172 46.5276C87.9663 46.5276 85.8274 45.966 84.0006 44.8426C82.1737 43.7193 80.7554 42.1477 79.7455 40.128C78.7356 38.1083 78.2307 35.7481 78.2307 33.0476C78.2307 30.3357 78.7356 27.9642 79.7455 25.9331C80.7554 23.902 82.1737 22.3248 84.0006 21.2014C85.8274 20.0781 87.9663 19.5164 90.4172 19.5164C92.8682 19.5164 95.007 20.0781 96.8339 21.2014C98.6607 22.3248 100.079 23.902 101.089 25.9331C102.099 27.9642 102.604 30.3357 102.604 33.0476C102.604 35.7481 102.099 38.1083 101.089 40.128C100.079 42.1477 98.6607 43.7193 96.8339 44.8426C95.007 45.966 92.8682 46.5276 90.4172 46.5276ZM90.4343 42.2555C92.0228 42.2555 93.3391 41.8357 94.383 40.996C95.4269 40.1564 96.1985 39.0387 96.6977 37.643C97.2083 36.2474 97.4636 34.7099 97.4636 33.0305C97.4636 31.3625 97.2083 29.8307 96.6977 28.4351C96.1985 27.028 95.4269 25.899 94.383 25.048C93.3391 24.197 92.0228 23.7715 90.4343 23.7715C88.8343 23.7715 87.5068 24.197 86.4515 25.048C85.4076 25.899 84.6303 27.028 84.1197 28.4351C83.6205 29.8307 83.3708 31.3625 83.3708 33.0305C83.3708 34.7099 83.6205 36.2474 84.1197 37.643C84.6303 39.0387 85.4076 40.1564 86.4515 40.996C87.5068 41.8357 88.8343 42.2555 90.4343 42.2555ZM108.284 46V19.8568H113.169V24.1119H113.492C114.037 22.6709 114.928 21.5475 116.165 20.7419C117.401 19.9249 118.882 19.5164 120.607 19.5164C122.354 19.5164 123.818 19.9249 124.998 20.7419C126.19 21.5589 127.069 22.6822 127.636 24.1119H127.909C128.533 22.7162 129.526 21.6042 130.887 20.7759C132.249 19.9363 133.871 19.5164 135.755 19.5164C138.127 19.5164 140.061 20.2596 141.559 21.7461C143.068 23.2325 143.823 25.4735 143.823 28.4691V46H138.734V28.9457C138.734 27.1756 138.251 25.8934 137.287 25.0991C136.322 24.3048 135.171 23.9077 133.832 23.9077C132.175 23.9077 130.887 24.4183 129.968 25.4395C129.049 26.4494 128.589 27.7486 128.589 29.3371V46H123.517V28.6223C123.517 27.2039 123.075 26.0636 122.19 25.2012C121.305 24.3388 120.153 23.9077 118.735 23.9077C117.77 23.9077 116.88 24.163 116.063 24.6736C115.257 25.1728 114.604 25.8707 114.105 26.7671C113.617 27.6635 113.373 28.7017 113.373 29.8818V46H108.284ZM150.644 46V19.8568H155.528V24.1119H155.852C156.396 22.6709 157.287 21.5475 158.524 20.7419C159.761 19.9249 161.242 19.5164 162.966 19.5164C164.714 19.5164 166.177 19.9249 167.357 20.7419C168.549 21.5589 169.428 22.6822 169.996 24.1119H170.268C170.892 22.7162 171.885 21.6042 173.246 20.7759C174.608 19.9363 176.231 19.5164 178.114 19.5164C180.486 19.5164 182.42 20.2596 183.918 21.7461C185.427 23.2325 186.182 25.4735 186.182 28.4691V46H181.093V28.9457C181.093 27.1756 180.611 25.8934 179.646 25.0991C178.682 24.3048 177.53 23.9077 176.191 23.9077C174.534 23.9077 173.246 24.4183 172.327 25.4395C171.408 26.4494 170.949 27.7486 170.949 29.3371V46H165.877V28.6223C165.877 27.2039 165.434 26.0636 164.549 25.2012C163.664 24.3388 162.512 23.9077 161.094 23.9077C160.13 23.9077 159.239 24.163 158.422 24.6736C157.616 25.1728 156.964 25.8707 156.464 26.7671C155.977 27.6635 155.733 28.7017 155.733 29.8818V46H150.644ZM212.593 26.2394L207.981 27.0564C207.788 26.4664 207.481 25.9047 207.062 25.3714C206.653 24.8381 206.097 24.4012 205.394 24.0608C204.69 23.7204 203.811 23.5502 202.755 23.5502C201.314 23.5502 200.112 23.8736 199.147 24.5204C198.183 25.1558 197.7 25.9785 197.7 26.9883C197.7 27.862 198.024 28.5655 198.671 29.0989C199.317 29.6322 200.361 30.069 201.802 30.4094L205.955 31.3625C208.361 31.9185 210.154 32.7752 211.334 33.9326C212.514 35.09 213.104 36.5935 213.104 38.443C213.104 40.0089 212.65 41.4045 211.742 42.63C210.846 43.8441 209.592 44.7972 207.981 45.4894C206.381 46.1815 204.526 46.5276 202.415 46.5276C199.488 46.5276 197.099 45.9036 195.249 44.6554C193.4 43.3959 192.265 41.6088 191.845 39.294L196.764 38.5451C197.071 39.8273 197.7 40.7975 198.654 41.4556C199.607 42.1024 200.849 42.4257 202.381 42.4257C204.049 42.4257 205.382 42.0797 206.381 41.3875C207.379 40.684 207.879 39.8273 207.879 38.8174C207.879 38.0005 207.572 37.314 206.959 36.758C206.358 36.202 205.433 35.7822 204.185 35.4985L199.76 34.5283C197.32 33.9723 195.516 33.0873 194.347 31.8732C193.19 30.659 192.611 29.1215 192.611 27.2607C192.611 25.7175 193.043 24.3672 193.905 23.2098C194.767 22.0524 195.959 21.1504 197.479 20.5036C199 19.8455 200.741 19.5164 202.704 19.5164C205.53 19.5164 207.754 20.1292 209.376 21.3546C210.999 22.5687 212.071 24.197 212.593 26.2394Z" fill="#2A0C3C"/>
<path fill-rule="evenodd" clip-rule="evenodd" d="M4.79291 13.1807H0V29.9559H0.00097659C0.00150434 39.2201 7.51182 46.7301 16.7762 46.7301C26.0409 46.7301 33.5514 39.2196 33.5514 29.9549V29.9548H28.7585V29.9549C28.7585 36.5726 23.3939 41.9372 16.7762 41.9372C10.1586 41.9372 4.79395 36.5726 4.79395 29.9549V29.9548H4.79291V13.1807Z" fill="#2A0C3C"/>
<path fill-rule="evenodd" clip-rule="evenodd" d="M33.5497 13.1807H28.7568V17.374H24.5635L24.5635 22.1669H28.7568V26.3612H33.5497V22.1669H37.744V17.374H33.5497V13.1807Z" fill="#5F247E"/>
</svg>
