<svg width="1176" height="807" viewBox="0 0 1176 807" fill="none" xmlns="http://www.w3.org/2000/svg">
<g opacity="0.5" clip-path="url(#clip0_1080_18540)">
<path d="M0 927H37.3283V514H753.564V204H1226V172H716.236V482H0V927Z" fill="#0A852B"/>
<path d="M54 973H91.2978V560H806.95V250H1279V218H769.652V528H54V973Z" fill="#A8D8B5"/>
<path d="M107 1019H144.328V606H860.564V296H1333V264H823.236V574H107V1019Z" fill="#4C935F"/>
<path d="M161 1065H198.328V652H914.564V342H1387V310H877.236V620H161V1065Z" fill="#0E5822"/>
<path d="M215 1111H252.298V698H967.95V388H1440V356H930.652V666H215V1111Z" fill="#0A852B"/>
<path d="M268 1157H305.328V744H1021.56V434H1494V402H984.236V712H268V1157Z" fill="#0E5822"/>
</g>
<defs>
<clipPath id="clip0_1080_18540">
<rect width="1176" height="807" fill="white"/>
</clipPath>
</defs>
</svg>
