<svg width="216" height="58" viewBox="0 0 216 58" fill="none" xmlns="http://www.w3.org/2000/svg">
<path d="M44.5688 46V11.1424H56.9936C59.7055 11.1424 61.9522 11.636 63.7337 12.6232C65.5151 13.6104 66.8484 14.9607 67.7334 16.674C68.6185 18.3761 69.061 20.2937 69.061 22.4269C69.061 24.5715 68.6128 26.5004 67.7164 28.2138C66.8314 29.9158 65.4924 31.2661 63.6996 32.2646C61.9182 33.2518 59.6772 33.7454 56.9766 33.7454H48.4324V29.2861H56.5C58.2134 29.2861 59.6034 28.9911 60.67 28.401C61.7366 27.7996 62.5196 26.9827 63.0188 25.9501C63.5181 24.9175 63.7677 23.7431 63.7677 22.4269C63.7677 21.1107 63.5181 19.9419 63.0188 18.9207C62.5196 17.8995 61.731 17.0995 60.653 16.5209C59.5864 15.9422 58.1794 15.6528 56.432 15.6528H49.8281V46H44.5688ZM79.9072 30.4775V46H74.8181V11.1424H79.8391V24.1119H80.1625C80.7752 22.7049 81.7114 21.5872 82.9709 20.7589C84.2304 19.9306 85.8757 19.5164 87.9067 19.5164C89.6995 19.5164 91.2654 19.8852 92.6043 20.6227C93.9546 21.3603 94.9985 22.4609 95.7361 23.9247C96.485 25.3771 96.8594 27.1926 96.8594 29.3712V46H91.7703V29.9839C91.7703 28.0663 91.2768 26.5798 90.2896 25.5246C89.3024 24.458 87.9294 23.9247 86.1707 23.9247C84.9679 23.9247 83.89 24.18 82.9368 24.6906C81.995 25.2012 81.2518 25.9501 80.7072 26.9373C80.1739 27.9131 79.9072 29.0932 79.9072 30.4775ZM111.259 46.5787C109.602 46.5787 108.104 46.2723 106.765 45.6596C105.426 45.0355 104.365 44.1334 103.582 42.9534C102.811 41.7733 102.425 40.3266 102.425 38.6132C102.425 37.1381 102.709 35.924 103.276 34.9709C103.843 34.0177 104.609 33.2631 105.574 32.7072C106.538 32.1512 107.616 31.7313 108.808 31.4477C109.999 31.164 111.213 30.9484 112.45 30.8009C114.016 30.6193 115.287 30.4718 116.263 30.3584C117.238 30.2335 117.948 30.035 118.39 29.7626C118.833 29.4903 119.054 29.0478 119.054 28.4351V28.3159C119.054 26.8295 118.634 25.6778 117.794 24.8608C116.966 24.0438 115.729 23.6353 114.084 23.6353C112.371 23.6353 111.02 24.0155 110.033 24.7757C109.057 25.5246 108.382 26.3586 108.008 27.2777L103.225 26.1884C103.792 24.5998 104.621 23.3176 105.71 22.3418C106.811 21.3546 108.076 20.6398 109.505 20.1972C110.935 19.7434 112.439 19.5164 114.016 19.5164C115.06 19.5164 116.166 19.6412 117.335 19.8909C118.515 20.1292 119.616 20.5717 120.637 21.2185C121.669 21.8652 122.515 22.79 123.173 23.9928C123.831 25.1842 124.16 26.733 124.16 28.6393V46H119.19V42.4257H118.986C118.657 43.0839 118.163 43.7306 117.505 44.3661C116.847 45.0015 116.002 45.5291 114.969 45.9489C113.936 46.3688 112.7 46.5787 111.259 46.5787ZM112.365 42.4938C113.772 42.4938 114.975 42.2158 115.973 41.6598C116.983 41.1038 117.749 40.3776 118.271 39.4812C118.804 38.5735 119.071 37.6033 119.071 36.5708V33.2007C118.889 33.3823 118.538 33.5525 118.016 33.7113C117.505 33.8589 116.921 33.9893 116.263 34.1028C115.604 34.2049 114.963 34.3014 114.339 34.3922C113.715 34.4716 113.193 34.5397 112.773 34.5964C111.786 34.7212 110.884 34.9311 110.067 35.2262C109.262 35.5212 108.615 35.9467 108.127 36.5027C107.65 37.0473 107.412 37.7735 107.412 38.6813C107.412 39.9408 107.877 40.8939 108.808 41.5407C109.738 42.1761 110.924 42.4938 112.365 42.4938ZM130.938 46V19.8568H135.857V24.0098H136.129C136.606 22.6028 137.446 21.4965 138.648 20.6908C139.863 19.8739 141.236 19.4654 142.767 19.4654C143.085 19.4654 143.46 19.4767 143.891 19.4994C144.333 19.5221 144.679 19.5505 144.929 19.5845V24.4523C144.725 24.3956 144.362 24.3332 143.84 24.2651C143.318 24.1857 142.796 24.1459 142.274 24.1459C141.071 24.1459 139.999 24.4012 139.057 24.9119C138.127 25.4111 137.389 26.109 136.844 27.0054C136.3 27.8904 136.027 28.9003 136.027 30.035V46H130.938ZM149.333 46V19.8568H154.218V24.1119H154.541C155.086 22.6709 155.977 21.5475 157.213 20.7419C158.45 19.9249 159.931 19.5164 161.656 19.5164C163.403 19.5164 164.867 19.9249 166.047 20.7419C167.238 21.5589 168.118 22.6822 168.685 24.1119H168.957C169.581 22.7162 170.574 21.6042 171.936 20.7759C173.298 19.9363 174.92 19.5164 176.804 19.5164C179.175 19.5164 181.11 20.2596 182.608 21.7461C184.117 23.2325 184.871 25.4735 184.871 28.4691V46H179.782V28.9457C179.782 27.1756 179.3 25.8934 178.336 25.0991C177.371 24.3048 176.219 23.9077 174.88 23.9077C173.224 23.9077 171.936 24.4183 171.017 25.4395C170.098 26.4494 169.638 27.7486 169.638 29.3371V46H164.566V28.6223C164.566 27.2039 164.124 26.0636 163.239 25.2012C162.353 24.3388 161.202 23.9077 159.783 23.9077C158.819 23.9077 157.928 24.163 157.111 24.6736C156.306 25.1728 155.653 25.8707 155.154 26.7671C154.666 27.6635 154.422 28.7017 154.422 29.8818V46H149.333ZM199.3 46.5787C197.644 46.5787 196.146 46.2723 194.807 45.6596C193.468 45.0355 192.407 44.1334 191.624 42.9534C190.853 41.7733 190.467 40.3266 190.467 38.6132C190.467 37.1381 190.75 35.924 191.318 34.9709C191.885 34.0177 192.651 33.2631 193.616 32.7072C194.58 32.1512 195.658 31.7313 196.849 31.4477C198.041 31.164 199.255 30.9484 200.492 30.8009C202.058 30.6193 203.328 30.4718 204.304 30.3584C205.28 30.2335 205.989 30.035 206.432 29.7626C206.874 29.4903 207.096 29.0478 207.096 28.4351V28.3159C207.096 26.8295 206.676 25.6778 205.836 24.8608C205.008 24.0438 203.771 23.6353 202.126 23.6353C200.412 23.6353 199.062 24.0155 198.075 24.7757C197.099 25.5246 196.424 26.3586 196.049 27.2777L191.267 26.1884C191.834 24.5998 192.662 23.3176 193.752 22.3418C194.852 21.3546 196.118 20.6398 197.547 20.1972C198.977 19.7434 200.48 19.5164 202.058 19.5164C203.101 19.5164 204.208 19.6412 205.377 19.8909C206.557 20.1292 207.657 20.5717 208.678 21.2185C209.711 21.8652 210.556 22.79 211.215 23.9928C211.873 25.1842 212.202 26.733 212.202 28.6393V46H207.232V42.4257H207.028C206.698 43.0839 206.205 43.7306 205.547 44.3661C204.889 45.0015 204.043 45.5291 203.011 45.9489C201.978 46.3688 200.741 46.5787 199.3 46.5787ZM200.407 42.4938C201.814 42.4938 203.016 42.2158 204.015 41.6598C205.025 41.1038 205.791 40.3776 206.313 39.4812C206.846 38.5735 207.113 37.6033 207.113 36.5708V33.2007C206.931 33.3823 206.579 33.5525 206.057 33.7113C205.547 33.8589 204.962 33.9893 204.304 34.1028C203.646 34.2049 203.005 34.3014 202.381 34.3922C201.757 34.4716 201.235 34.5397 200.815 34.5964C199.828 34.7212 198.926 34.9311 198.109 35.2262C197.303 35.5212 196.656 35.9467 196.169 36.5027C195.692 37.0473 195.454 37.7735 195.454 38.6813C195.454 39.9408 195.919 40.8939 196.849 41.5407C197.78 42.1761 198.966 42.4938 200.407 42.4938Z" fill="#0B393A"/>
<path fill-rule="evenodd" clip-rule="evenodd" d="M4.79291 13.1807H0V29.9559H0.00097659C0.00150434 39.2201 7.51182 46.7301 16.7762 46.7301C26.0409 46.7301 33.5514 39.2196 33.5514 29.9549V29.9548H28.7585V29.9549C28.7585 36.5726 23.3939 41.9372 16.7762 41.9372C10.1586 41.9372 4.79395 36.5726 4.79395 29.9549V29.9548H4.79291V13.1807Z" fill="#0B393A"/>
<path fill-rule="evenodd" clip-rule="evenodd" d="M33.5498 13.1807H28.7568V17.374H24.5635L24.5635 22.1669H28.7568V26.3612H33.5498V22.1669H37.744V17.374H33.5498V13.1807Z" fill="#007175"/>
</svg>
