<svg version="1.1" id="U_Bank_Logo" xmlns="http://www.w3.org/2000/svg" x="0" y="0" viewBox="0 0 131 30.4" xml:space="preserve"><style>.st0{fill:#fff}</style><g id="Bank"><path id="Path_53" class="st0" d="M49.7 1.3c4.7 0 8.5 3.2 8.5 7.7.2 2.8-1.5 5.3-4.1 6.2 2.7.7 5.6 2.9 5.6 6.7 0 5.1-3.8 8-8.4 8h-13V1.3h11.4zm-7 12.3H50c1.9.1 3.6-1.3 3.7-3.3v-.5c0-2.3-1.7-4.2-4-4.3h-7v8.1zm8.6 12.2c2.2-.2 3.9-2 3.9-4.2 0-2.3-1.8-4.1-4.1-4.1h-8.4v8.3h8.6z"/><path id="Path_54" class="st0" d="M73.3 8.3c5.2 0 8.1 2.3 8.1 7v9.9c0 .7.4.8 1.1.8.6 0 1.1 0 1.7-.1v3.5c-1 .4-2 .6-3 .6-1.6 0-3.5-.7-3.5-2.7v-.4c-1.1 2.2-3.5 3.5-6.8 3.5-4.2 0-7.6-2.4-7.6-6.8 0-4.9 4.1-6.6 9.1-6.6 1.5 0 3.9.2 4.9.3V16c0-3.3-2.2-4.1-4.6-4.1-2.3.1-4.5.4-6.7.9l-1-3.1c2.7-.9 5.5-1.3 8.3-1.4zM72.9 20c-2.5 0-5.7.5-5.7 3.4 0 2.3 2 3.4 4.3 3.4 2.8 0 5.7-1.8 5.7-4.2v-2.2c-1.4-.3-2.9-.4-4.3-.4z"/><path id="Path_55" class="st0" d="M91.6 8.7l.7 3.6c.1-.5 2-4 6.8-4 4.3 0 8 2.6 8 9V30h-4.5V17.5c0-3.1-1.8-4.9-4.6-4.9-3.6 0-5.4 2.9-5.4 5.7V30h-4.5V8.7h3.5z"/><path id="Path_56" class="st0" d="M117.5 0v12.9l-.1 5.9 4.2-5.4 4.1-4.7h5.3l-8.6 10 8.4 11.3h-5.1l-5.8-8.1-2.3 2.5V30H113V0h4.5z"/></g><g id="Plus_Sign"><path id="Union_1" d="M24.3 13.1v-4h-3.9v-4h3.9V1.3h4v3.8h3.9v4h-3.9v4h-4z" opacity=".4" fill="#fff"/></g><path id="U" class="st0" d="M14.1 30C6.3 30 0 23.6 0 15.8V1.3h4v14.6c.1 5.6 4.5 10 10.1 10.1 5.6 0 10.1-4.5 10.2-10.1h4c0 7.8-6.4 14.1-14.2 14.1z"/></svg>