<?xml version="1.0" encoding="utf-8"?>
<!-- Generator: Adobe Illustrator 23.0.1, SVG Export Plug-In . SVG Version: 6.00 Build 0)  -->
<svg version="1.1" id="U_Bank_Logo" xmlns="http://www.w3.org/2000/svg" xmlns:xlink="http://www.w3.org/1999/xlink" x="0px"
	 y="0px" viewBox="0 0 131 30.4" style="enable-background:new 0 0 131 30.4;" xml:space="preserve">
<style type="text/css">
	.st0{fill:#FFFFFF;}
	.st1{opacity:0.4;fill:#FFFFFF;enable-background:new    ;}
</style>
<g id="Bank">
	<path id="Path_53" class="st0" d="M49.7,1.3c4.7,0,8.5,3.2,8.5,7.7c0.2,2.8-1.5,5.3-4.1,6.2c2.7,0.7,5.6,2.9,5.6,6.7
		c0,5.1-3.8,8-8.4,8h-13V1.3H49.7z M42.7,13.6H50c1.9,0.1,3.6-1.3,3.7-3.3c0-0.2,0-0.4,0-0.5c0-2.3-1.7-4.2-4-4.3h-7V13.6z
		 M51.3,25.8c2.2-0.2,3.9-2,3.9-4.2c0-2.3-1.8-4.1-4.1-4.1c-0.1,0-0.1,0-0.2,0h-8.2v8.3H51.3z"/>
	<path id="Path_54" class="st0" d="M73.3,8.3c5.2,0,8.1,2.3,8.1,7v9.9c0,0.7,0.4,0.8,1.1,0.8c0.6,0,1.1,0,1.7-0.1v3.5
		c-1,0.4-2,0.6-3,0.6c-1.6,0-3.5-0.7-3.5-2.7v-0.4c-1.1,2.2-3.5,3.5-6.8,3.5c-4.2,0-7.6-2.4-7.6-6.8c0-4.9,4.1-6.6,9.1-6.6
		c1.5,0,3.9,0.2,4.9,0.3V16c0-3.3-2.2-4.1-4.6-4.1c-2.3,0.1-4.5,0.4-6.7,0.9l-1-3.1C67.7,8.8,70.5,8.4,73.3,8.3z M72.9,20
		c-2.5,0-5.7,0.5-5.7,3.4c0,2.3,2,3.4,4.3,3.4c2.8,0,5.7-1.8,5.7-4.2v-2.2C75.8,20.1,74.3,20,72.9,20z"/>
	<path id="Path_55" class="st0" d="M91.6,8.7l0.7,3.6c0.1-0.5,2-4,6.8-4c4.3,0,8,2.6,8,9V30h-4.5V17.5c0-3.1-1.8-4.9-4.6-4.9
		c-3.6,0-5.4,2.9-5.4,5.7V30h-4.5V8.7H91.6z"/>
	<path id="Path_56" class="st0" d="M117.5,0v12.9l-0.1,5.9l4.2-5.4l4.1-4.7h5.3l-8.6,10l8.4,11.3h-5.1l-5.8-8.1l-2.3,2.5V30H113V0
		H117.5z"/>
</g>
<g id="Plus_Sign">
	<path id="Union_1" class="st1" d="M24.3,13.1v-4h-3.9v-4h3.9V1.3h4v3.8h3.9v4h-3.9v4H24.3z"/>
</g>
<path id="U" class="st0" d="M14.1,30C6.3,30,0,23.6,0,15.8V1.3h4v14.6c0.1,5.6,4.5,10,10.1,10.1c5.6,0,10.1-4.5,10.2-10.1h4
	C28.3,23.7,21.9,30,14.1,30z"/>
</svg>
