<svg version="1.1" id="U_Bank_Logo" xmlns="http://www.w3.org/2000/svg" x="0" y="0" viewBox="0 0 160.9 30.4" xml:space="preserve"><style>.st0{fill:#fff}</style><path class="st0" d="M14.1 29.8C6.3 29.8 0 23.5 0 15.7V1.1h4v14.6c0 5.6 4.6 10.1 10.1 10.1s10.2-4.6 10.2-10.1h4c0 7.8-6.3 14.1-14.2 14.1z"/><path opacity=".4" fill="#fff" d="M32.2 5h-3.9V1.1h-4V5h-3.9v4h3.9v3.9h4V9h3.9z"/><path class="st0" d="M42.9 1.3v12.5h13.8V1.3h4.5V30h-4.5V18H42.9v12h-4.5V1.3h4.5zm34.1 7c6.4 0 9.8 5.3 9.8 10.8 0 1.2-.2 2-.2 2H71c.2 3.6 3.2 5.5 6.6 5.5 2.3 0 4.6-.7 6.2-1.4l1.5 3.3c-1.9 1.1-4.9 1.9-7.8 1.9-6.5 0-11.1-4.6-11.1-10.9 0-6.3 4.3-11.2 10.6-11.2zm5.6 9.5c-.1-2.9-1.6-5.6-5.3-5.6-3.3 0-5.8 2.2-6.2 5.6h11.5zm17.2-9.5c5.2 0 8.1 2.3 8.1 7v9.9c0 .7.4.8 1.1.8.3 0 1 0 1.7-.1v3.5c-.2.1-1.7.6-3 .6-1.6 0-3.5-.7-3.5-2.7v-.4c-1.1 2.2-3.5 3.5-6.8 3.5-4.2 0-7.6-2.4-7.6-6.8 0-4.9 4.1-6.6 9.1-6.6 1.5 0 3.9.2 4.9.3V16c0-3.3-2.2-4.1-4.6-4.1-1.7 0-4.7.4-6.7.9l-.8-3.2c1.6-.5 5-1.3 8.1-1.3zM99.4 20c-2.5 0-5.7.5-5.7 3.4 0 2.3 2 3.4 4.3 3.4 2.8 0 5.7-1.8 5.7-4.2v-2.2c-.8-.2-2.7-.4-4.3-.4zm19.7-20v25.2c0 .7.4.9.9.9.6 0 1.1 0 1.8-.1v3.5c-.2.1-2.1.6-3.5.6-2.6 0-3.6-1.9-3.6-3.8V0h4.4zm12.7 2.5v6.1h4.9V12h-4.9v11.2c0 1.8.7 3.2 2.7 3.2.7 0 1.6-.1 2.6-.2l.7 3.2c-1.1.5-2.6.8-4 .8-4.8 0-6.4-2.4-6.4-7.3V12h-3V9.3l3-.6.7-6.2h3.7zM146 0v11.7c.7-1.1 2.7-3.4 6.5-3.4 4.3 0 8 2.6 8 9V30H156V17.5c0-3.1-1.8-4.9-4.6-4.9-3.7 0-5.4 2.9-5.4 5.7V30h-4.5V0h4.5z"/></svg>