<svg version="1.1" id="U_Bank_Logo" xmlns="http://www.w3.org/2000/svg" x="0" y="0" viewBox="0 0 120 30" xml:space="preserve"><style>.st0,.st1{fill:#fff}.st1{opacity:.4;enable-background:new}</style><path class="st0" d="M7801.9 28.9c-7.8 0-14.1-6.3-14.1-14.1V.2h4v14.6c0 5.6 4.6 10.1 10.1 10.1s10.2-4.6 10.2-10.1h4c-.1 7.7-6.4 14.1-14.2 14.1z"/><path class="st1" d="M7819.9 4h-3.9V.2h-4V4h-3.9v4h3.9v3.9h4V8h3.9z"/><path class="st0" d="M7849.1 2.4l-1.8 3.4c-.5-.2-3.6-1.7-7.4-1.7-6.2 0-10.6 4.6-10.6 10.6 0 6.2 4.5 10.7 10.4 10.7 2.3 0 4.8-.7 6.6-2.3v-5.5h-7.5v-3.7h11.7v11c-3.6 3.4-6.9 4.6-10.6 4.6-8.9 0-15.4-6.6-15.4-14.7s6.7-14.8 15-14.8c3.6 0 7.1.9 9.6 2.4zm16.6 5c6.2 0 11.1 4.6 11.1 11s-5 11-11.1 11-11-4.6-11-11c-.1-6.4 4.9-11 11-11zm-6.5 11c0 4 2.7 7.1 6.5 7.1 3.7 0 6.5-3.1 6.5-7.1 0-4.1-2.7-7.1-6.5-7.1s-6.5 3-6.5 7.1zm24.1-10.7l5.2 16.4h.1l5.3-16.4h4.6l-7.8 21.3h-4.3l-7.6-21.3h4.5zM14 30.2C6.6 30.2.6 24 .6 16.4V2.2h3.8v14.2c0 5.4 4.3 9.9 9.6 9.9s9.6-4.4 9.6-9.9h3.8C27.3 24 21.3 30.2 14 30.2z"/><path class="st1" d="M31 7h-3.7V3.2h-3.7V7h-3.7v3.9h3.7v3.8h3.7v-3.8H31z"/><path class="st0" d="M32.8 15.4C32.8 7.5 39.4.7 48.2.7 51.7.8 55 1.9 56.8 3l-2.1 4.3S51.8 5.7 48 5.7c-5.5 0-9.3 4.1-9.3 9.7s3.8 9.7 9.3 9.7c3.7 0 6.7-1.6 6.7-1.6l2.1 4.3c-1.8 1.1-5.2 2.3-8.6 2.3-8.7 0-15.4-6.8-15.4-14.7zm36-7.2c5.2 0 8.1 2.4 8.1 7v8.7c0 .6.3.7.9.7.3 0 1 0 1.9-.1v4.4c-.2.1-1.9.7-3.3.7-1.3 0-3.5-.4-3.5-2.7v-.4c-1.2 2.1-3.6 3.6-6.5 3.6-3.8 0-7.6-2.4-7.6-6.8 0-4.5 3.9-6.7 8.7-6.7 1.4 0 3 .1 4.3.3v-.6c0-3.1-2.1-3.5-3.8-3.5-1.8 0-4.7.4-6.3.8l-1-3.9c1.8-.8 5.3-1.5 8.1-1.5zM68.4 20c-1.8 0-4.6.4-4.6 2.9 0 1.9 1.6 2.9 3.4 2.9 2.1 0 4.5-1.4 4.5-3.4v-2.1c-1.1-.2-2.3-.3-3.3-.3zM87.2 8.8l.7 3.3c1.3-2.7 3.5-3.5 7.2-3.5v5.7h-.7c-3.5 0-6.1 1.4-6.1 5.9v9.3h-5.6V8.8h4.5zm19.7-.6c6.5 0 9.6 5 9.6 10.6 0 1.4-.2 2.4-.2 2.4h-14c.2 3 2.8 4.1 5.3 4.1 2.4 0 4.5-.6 5.9-1.2l1.9 4.1c-2.1 1.2-5.1 1.8-7.9 1.8-6.3 0-10.9-4.3-10.9-10.7 0-6.5 4.1-11.1 10.3-11.1zm4.4 9.1c-.1-2.3-1-4.3-4.1-4.3-2.6 0-4.5 1.5-5 4.3h9.1z"/></svg>