<svg width="1001" height="683" viewBox="0 0 1001 683" fill="none"
  xmlns="http://www.w3.org/2000/svg">
  <path d="M104 178L117.931 202.795L132.25 227.363L160.5 227.59L188.75 227.363L203.069 202.795L217 178L203.069 153.205L188.75 128.637L160.5 128.41L132.25 128.637L117.931 153.205L104 178Z" fill="#E9C6BF" fill-opacity="0.5"/>
  <path d="M219 472L234.287 498.97L250 525.694L281 525.94L312 525.694L327.713 498.97L343 472L327.713 445.03L312 418.306L281 418.06L250 418.306L234.287 445.03L219 472Z" fill="#E9C6BF" fill-opacity="0.5"/>
  <path d="M493 170L519.998 217.85L547.75 265.263L602.5 265.7L657.25 265.263L685.002 217.85L712 170L685.002 122.15L657.25 74.7372L602.5 74.3L547.75 74.7372L519.998 122.15L493 170Z" fill="#E9C6BF" fill-opacity="0.5"/>
  <path d="M782 321L808.998 368.85L836.75 416.263L891.5 416.7L946.25 416.263L974.002 368.85L1001 321L974.002 273.15L946.25 225.737L891.5 225.3L836.75 225.737L808.998 273.15L782 321Z" fill="#E9C6BF" fill-opacity="0.5"/>
  <path d="M636 96L662.998 143.85L690.75 191.263L745.5 191.7L800.25 191.263L828.002 143.85L855 96L828.002 48.15L800.25 0.737198L745.5 0.299998L690.75 0.737203L662.998 48.15L636 96Z" fill="#C44601"/>
  <path d="M636 451L669.162 509.725L703.25 567.913L770.5 568.45L837.75 567.913L871.838 509.725L905 451L871.838 392.275L837.75 334.087L770.5 333.55L703.25 334.087L669.162 392.275L636 451Z" fill="#C44601"/>
  <path d="M287 427L307.834 463.975L329.25 500.612L371.5 500.95L413.75 500.612L435.166 463.975L456 427L435.166 390.025L413.75 353.388L371.5 353.05L329.25 353.388L307.834 390.025L287 427Z" fill="#C44601"/>
  <path d="M389 269L397.26 283.79L405.75 298.445L422.5 298.58L439.25 298.445L447.74 283.79L456 269L447.74 254.21L439.25 239.555L422.5 239.42L405.75 239.555L397.26 254.21L389 269Z" fill="#E9C6BF" fill-opacity="0.5"/>
  <path d="M245 269L249.561 277.265L254.25 285.454L263.5 285.53L272.75 285.454L277.439 277.265L282 269L277.439 260.735L272.75 252.546L263.5 252.47L254.25 252.546L249.561 260.735L245 269Z" fill="#E9C6BF" fill-opacity="0.5"/>
  <path d="M101 303L105.561 311.265L110.25 319.454L119.5 319.53L128.75 319.454L133.439 311.265L138 303L133.439 294.735L128.75 286.546L119.5 286.47L110.25 286.546L105.561 294.735L101 303Z" fill="#E9C6BF" fill-opacity="0.5"/>
  <path d="M8 484L15.3967 497.485L23 510.847L38 510.97L53 510.847L60.6033 497.485L68 484L60.6033 470.515L53 457.153L38 457.03L23 457.153L15.3967 470.515L8 484Z" fill="#E9C6BF" fill-opacity="0.5"/>
  <path d="M474 41L478.561 49.265L483.25 57.4545L492.5 57.53L501.75 57.4545L506.439 49.265L511 41L506.439 32.735L501.75 24.5455L492.5 24.47L483.25 24.5455L478.561 32.735L474 41Z" fill="#E9C6BF" fill-opacity="0.5"/>
  <path d="M337 175L353.889 205.015L371.25 234.756L405.5 235.03L439.75 234.756L457.111 205.015L474 175L457.111 144.985L439.75 115.244L405.5 114.97L371.25 115.244L353.889 144.985L337 175Z" fill="#C44601"/>
  <path d="M25 211L29.8079 219.7L34.75 228.321L44.5 228.4L54.25 228.321L59.1921 219.7L64 211L59.1921 202.3L54.25 193.679L44.5 193.6L34.75 193.679L29.8079 202.3L25 211Z" fill="#C44601"/>
  <path d="M8.30516e-07 515L4.6846 523.265L9.5 531.454L19 531.53L28.5 531.454L33.3154 523.265L38 515L33.3154 506.735L28.5 498.546L19 498.47L9.5 498.546L4.6846 506.735L8.30516e-07 515Z" fill="#C44601"/>
  <path d="M165 100L181.889 130.015L199.25 159.756L233.5 160.03L267.75 159.756L285.111 130.015L302 100L285.111 69.985L267.75 40.2442L233.5 39.97L199.25 40.2442L181.889 69.985L165 100Z" fill="#C44601"/>
  <path d="M538 465L560.807 505.455L584.25 545.54L630.5 545.91L676.75 545.54L700.193 505.455L723 465L700.193 424.545L676.75 384.46L630.5 384.09L584.25 384.46L560.807 424.545L538 465Z" fill="#FAECE9"/>
  <path d="M96 355L109.931 330.205L124.25 305.637L152.5 305.41L180.75 305.637L195.069 330.205L209 355L195.069 379.795L180.75 404.363L152.5 404.59L124.25 404.363L109.931 379.795L96 355Z" fill="#C44601"/>
  <path d="M563 642.443L551.777 662.244L540.241 681.863L517.481 682.044L494.722 681.863L483.185 662.244L471.962 642.443L483.185 622.642L494.722 603.022L517.481 602.841L540.241 603.022L551.777 622.642L563 642.443Z" fill="#E9C6BF" fill-opacity="0.5"/>
  <path d="M513.076 609.405L497.78 636.551L482.057 663.449L451.038 663.697L420.019 663.449L404.296 636.551L389 609.405L404.296 582.259L420.019 555.361L451.038 555.113L482.057 555.361L497.78 582.259L513.076 609.405Z" fill="#C44601"/>
</svg>
