<?xml version="1.0" encoding="UTF-8" standalone="no"?>
<svg xmlns:dc="http://purl.org/dc/elements/1.1/"
   xmlns:cc="http://creativecommons.org/ns#"
   xmlns:rdf="http://www.w3.org/1999/02/22-rdf-syntax-ns#"
   xmlns:svg="http://www.w3.org/2000/svg"
   xmlns="http://www.w3.org/2000/svg"
   xmlns:sodipodi="http://sodipodi.sourceforge.net/DTD/sodipodi-0.dtd"
   xmlns:inkscape="http://www.inkscape.org/namespaces/inkscape" width="267" height="58" viewBox="0 0 267 58" fill="none" version="1.1" id="svg839" sodipodi:docname="u+-logo.svg" inkscape:version="1.0.1 (c497b03c, 2020-09-10)">
   <metadata id="metadata845">
      <rdf:RDF>
         <cc:Work rdf:about="">
            <dc:format>image/svg+xml</dc:format>
            <dc:type rdf:resource="http://purl.org/dc/dcmitype/StillImage" />
         </cc:Work>
      </rdf:RDF>
   </metadata>
   <defs id="defs843" />
   <sodipodi:namedview pagecolor="#ffffff" bordercolor="#666666" borderopacity="1" objecttolerance="10" gridtolerance="10" guidetolerance="10" inkscape:pageopacity="0" inkscape:pageshadow="2" inkscape:window-width="2662" inkscape:window-height="1054" id="namedview841" showgrid="false" inkscape:zoom="8.0085802" inkscape:cx="95.014672" inkscape:cy="18.812049" inkscape:window-x="0" inkscape:window-y="25" inkscape:window-maximized="0" inkscape:current-layer="svg839" />
   <path d="M 72.468651,46 V 19.8568 h 4.919 v 4.153 h 0.272 c 0.477,-1.407 1.316,-2.5133 2.519,-3.319 1.214,-0.8169 2.587,-1.2254 4.119,-1.2254 0.318,0 0.692,0.0113 1.123,0.034 0.443,0.0227 0.789,0.0511 1.039,0.0851 v 4.8678 c -0.205,-0.0567 -0.568,-0.1191 -1.09,-0.1872 -0.522,-0.0794 -1.044,-0.1192 -1.565,-0.1192 -1.203,0 -2.276,0.2553 -3.217,0.766 -0.931,0.4992 -1.668,1.1971 -2.213,2.0935 -0.545,0.885 -0.817,1.8949 -0.817,3.0296 V 46 Z m 25.769,0.5787 c -1.657,0 -3.155,-0.3064 -4.494,-0.9191 -1.339,-0.6241 -2.399,-1.5262 -3.182,-2.7062 -0.772,-1.1801 -1.158,-2.6268 -1.158,-4.3402 0,-1.4751 0.284,-2.6892 0.851,-3.6423 0.568,-0.9532 1.333,-1.7078 2.298,-2.2637 0.964,-0.556 2.042,-0.9759 3.234,-1.2595 1.191,-0.2837 2.405,-0.4993 3.642,-0.6468 1.565999,-0.1816 2.836999,-0.3291 3.812999,-0.4425 0.976,-0.1249 1.685,-0.3234 2.127,-0.5958 0.443,-0.2723 0.664,-0.7148 0.664,-1.3275 v -0.1192 c 0,-1.4864 -0.42,-2.6381 -1.259,-3.4551 -0.829,-0.817 -2.066,-1.2255 -3.711,-1.2255 -1.712999,0 -3.063999,0.3802 -4.050999,1.1404 -0.976,0.7489 -1.651,1.5829 -2.025,2.502 l -4.783,-1.0893 c 0.567,-1.5886 1.396,-2.8708 2.485,-3.8466 1.101,-0.9872 2.366,-1.702 3.796,-2.1446 1.429,-0.4538 2.933,-0.6808 4.509999,-0.6808 1.044,0 2.15,0.1248 3.319,0.3745 1.18,0.2383 2.281,0.6808 3.302,1.3276 1.032,0.6467 1.878,1.5715 2.536,2.7743 0.658,1.1914 0.987,2.7402 0.987,4.6465 V 46 h -4.97 v -3.5743 h -0.204 c -0.329,0.6582 -0.823,1.3049 -1.481,1.9404 -0.658,0.6354 -1.503,1.163 -2.536,1.5828 -1.032,0.4199 -2.268999,0.6298 -3.709999,0.6298 z m 1.106,-4.0849 c 1.406999,0 2.609999,-0.278 3.607999,-0.834 1.01,-0.556 1.776,-1.2822 2.298,-2.1786 0.533,-0.9077 0.8,-1.8779 0.8,-2.9104 v -3.3701 c -0.182,0.1816 -0.533,0.3518 -1.055,0.5106 -0.511,0.1476 -1.095,0.278 -1.753,0.3915 -0.658,0.1021 -1.3,0.1986 -1.924,0.2894 -0.624,0.0794 -1.146,0.1475 -1.564999,0.2042 -0.988,0.1248 -1.89,0.3347 -2.707,0.6298 -0.805,0.295 -1.452,0.7205 -1.94,1.2765 -0.477,0.5446 -0.715,1.2708 -0.715,2.1786 0,1.2595 0.465,2.2126 1.396,2.8594 0.93,0.6354 2.116,0.9531 3.557,0.9531 z m 53.679999,4.0338 c -2.576,0 -4.794,-0.5503 -6.655,-1.6509 -1.849,-1.112 -3.279,-2.6722 -4.289,-4.6806 -0.998,-2.0198 -1.498,-4.3856 -1.498,-7.0975 0,-2.6778 0.5,-5.038 1.498,-7.0804 1.01,-2.0425 2.417,-3.6367 4.221,-4.7827 1.816,-1.1461 3.938,-1.7191 6.366,-1.7191 1.475,0 2.905,0.244 4.289,0.7319 1.384,0.4879 2.627,1.2538 3.727,2.2977 1.101,1.0439 1.969,2.3999 2.604,4.0679 0.636,1.6566 0.954,3.6707 0.954,6.0422 v 1.8041 h -20.782 v -3.8125 h 15.795 c 0,-1.3389 -0.273,-2.5247 -0.817,-3.5572 -0.545,-1.044 -1.311,-1.8666 -2.298,-2.468 -0.976,-0.6014 -2.122,-0.9021 -3.438,-0.9021 -1.43,0 -2.678,0.3518 -3.745,1.0553 -1.055,0.6922 -1.872,1.5999 -2.451,2.7232 -0.567,1.112 -0.851,2.3205 -0.851,3.6254 v 2.9785 c 0,1.7474 0.307,3.2339 0.92,4.4593 0.624,1.2255 1.492,2.1616 2.604,2.8084 1.112,0.6354 2.411,0.9531 3.897,0.9531 0.965,0 1.844,-0.1361 2.638,-0.4085 0.795,-0.2836 1.481,-0.7035 2.06,-1.2595 0.579,-0.556 1.021,-1.2425 1.327,-2.0594 l 4.817,0.868 c -0.386,1.4184 -1.078,2.6608 -2.076,3.7275 -0.987,1.0552 -2.23,1.8779 -3.728,2.4679 -1.486,0.5787 -3.183,0.868 -5.089,0.868 z" fill="#471111" id="path833" sodipodi:nodetypes="ccccccsccccsccsccsccsccccccsscscccccscccsccccccssccscccccccscssccsccssccsccccccsccssccscsccccs" style="fill:#361602
;fill-opacity:1" />
   <path fill-rule="evenodd" clip-rule="evenodd" d="M4.79291 13.1807H0V29.9559H0.00097659C0.00150434 39.2201 7.51182 46.7301 16.7762 46.7301C26.0409 46.7301 33.5514 39.2196 33.5514 29.9549V29.9548H28.7585V29.9549C28.7585 36.5726 23.3939 41.9372 16.7762 41.9372C10.1586 41.9372 4.79395 36.5726 4.79395 29.9549V29.9548H4.79291V13.1807Z" fill="#471111" id="path835" style="fill:#361602
;fill-opacity:1" />
   <path fill-rule="evenodd" clip-rule="evenodd" d="M33.5498 13.1807H28.7569V17.374H24.5636L24.5636 22.1669H28.7569V26.3612H33.5498V22.1669H37.7441V17.374H33.5498V13.1807Z" fill="#CA0000" id="path837" style="fill:#C44601;fill-opacity:1" />
   <g aria-label="T" id="text849" style="font-style:normal;font-weight:normal;font-size:40px;line-height:1.25;font-family:sans-serif;fill:#000000;fill-opacity:1;stroke:none" transform="translate(9.5357143,56.861111)">
      <path id="path851" style="font-style:normal;font-variant:normal;font-weight:600;font-stretch:normal;font-size:48px;font-family:'Open Sans';-inkscape-font-specification:'Open Sans Semi-Bold';stroke-width:1.0015748;stroke-miterlimit:4;stroke-dasharray:none;fill:#361602
;fill-opacity:1" d="M 44.427734 11.363281 L 44.427734 16.167969 L 54.505859 16.167969 L 54.505859 46.001953 L 60.107422 46.001953 L 60.107422 16.167969 L 70.185547 16.167969 L 70.185547 11.363281 L 44.427734 11.363281 z " transform="translate(-9.5357143,-56.861111)" />
   </g>
   <path d="m 139.13216,19.979248 -9.48,26.1432 h -5.447 l -9.497,-26.1432 h 5.463 l 6.621,20.118 h 0.273 l 6.603,-20.118 z" fill="#361602
" id="path956" sodipodi:nodetypes="ccccccccc" />
   <path d="m 174.78309,11.750245 v 34.8576 h -5.089 v -34.8576 z" fill="#0b393a" id="path1629" sodipodi:nodetypes="ccccc" style="fill:#361602
;fill-opacity:1" />
</svg>
