<svg width="1501" height="881" viewBox="0 0 1501 881" fill="none" xmlns="http://www.w3.org/2000/svg">
<g clip-path="url(#clip0_581_14588)">
<path fill-rule="evenodd" clip-rule="evenodd" d="M1347.44 771.323C1428.92 771.323 1494.98 705.267 1494.98 623.783C1494.98 542.298 1428.92 476.242 1347.44 476.242C1265.95 476.242 1199.9 542.298 1199.9 623.783C1199.9 705.267 1265.95 771.323 1347.44 771.323ZM1347.44 729.828C1406 729.828 1453.48 682.35 1453.48 623.783C1453.48 565.216 1406 517.738 1347.44 517.738C1288.87 517.738 1241.39 565.216 1241.39 623.783C1241.39 682.35 1288.87 729.828 1347.44 729.828Z" fill="#D62752"/>
<path fill-rule="evenodd" clip-rule="evenodd" d="M1067.41 507.858C1116.47 507.858 1156.24 468.089 1156.24 419.033C1156.24 369.976 1116.47 330.207 1067.41 330.207C1018.35 330.207 978.586 369.976 978.586 419.033C978.586 468.089 1018.35 507.858 1067.41 507.858ZM1067.41 482.876C1102.67 482.876 1131.25 454.292 1131.25 419.033C1131.25 383.773 1102.67 355.189 1067.41 355.189C1032.15 355.189 1003.57 383.773 1003.57 419.033C1003.57 454.292 1032.15 482.876 1067.41 482.876Z" fill="#D62752"/>
<path fill-rule="evenodd" clip-rule="evenodd" d="M758.78 819.5C807.837 819.5 847.606 779.732 847.606 730.675C847.606 681.618 807.837 641.849 758.78 641.849C709.723 641.849 669.955 681.618 669.955 730.675C669.955 779.732 709.723 819.5 758.78 819.5ZM758.78 794.518C794.04 794.518 822.624 765.934 822.624 730.675C822.624 695.415 794.04 666.831 758.78 666.831C723.521 666.831 694.937 695.415 694.937 730.675C694.937 765.934 723.521 794.518 758.78 794.518Z" fill="#D62752"/>
<path fill-rule="evenodd" clip-rule="evenodd" d="M558.547 622.278C596.795 622.278 627.8 591.272 627.8 553.024C627.8 514.776 596.795 483.77 558.547 483.77C520.299 483.77 489.293 514.776 489.293 553.024C489.293 591.272 520.299 622.278 558.547 622.278ZM558.547 602.8C586.037 602.8 608.323 580.514 608.323 553.024C608.323 525.533 586.037 503.248 558.547 503.248C531.056 503.248 508.771 525.533 508.771 553.024C508.771 580.514 531.056 602.8 558.547 602.8Z" fill="#D62752"/>
<path fill-rule="evenodd" clip-rule="evenodd" d="M1162.26 873.699C1186.37 873.699 1205.92 854.152 1205.92 830.039C1205.92 805.926 1186.37 786.379 1162.26 786.379C1138.15 786.379 1118.6 805.926 1118.6 830.039C1118.6 854.152 1138.15 873.699 1162.26 873.699ZM1162.26 861.419C1179.59 861.419 1193.64 847.37 1193.64 830.039C1193.64 812.708 1179.59 798.658 1162.26 798.658C1144.93 798.658 1130.88 812.708 1130.88 830.039C1130.88 847.37 1144.93 861.419 1162.26 861.419Z" fill="#D62752"/>
<path fill-rule="evenodd" clip-rule="evenodd" d="M1074.94 745.73C1128.15 745.73 1171.29 702.591 1171.29 649.376C1171.29 596.162 1128.15 553.023 1074.94 553.023C1021.72 553.023 978.586 596.162 978.586 649.376C978.586 702.591 1021.72 745.73 1074.94 745.73ZM1074.94 718.63C1113.19 718.63 1144.19 687.624 1144.19 649.376C1144.19 611.129 1113.19 580.123 1074.94 580.123C1036.69 580.123 1005.68 611.129 1005.68 649.376C1005.68 687.624 1036.69 718.63 1074.94 718.63Z" fill="#FFC6C6"/>
<path fill-rule="evenodd" clip-rule="evenodd" d="M766.308 614.75C834.489 614.75 889.76 559.478 889.76 491.298C889.76 423.117 834.489 367.845 766.308 367.845C698.127 367.845 642.855 423.117 642.855 491.298C642.855 559.478 698.127 614.75 766.308 614.75ZM766.308 580.029C815.313 580.029 855.039 540.302 855.039 491.297C855.039 442.292 815.313 402.566 766.308 402.566C717.303 402.566 677.576 442.292 677.576 491.297C677.576 540.302 717.303 580.029 766.308 580.029Z" fill="#FFC6C6"/>
<path fill-rule="evenodd" clip-rule="evenodd" d="M1409.16 989.624C1503.12 989.624 1579.29 913.457 1579.29 819.5C1579.29 725.544 1503.12 649.377 1409.16 649.377C1315.21 649.377 1239.04 725.544 1239.04 819.5C1239.04 913.457 1315.21 989.624 1409.16 989.624ZM1409.16 941.777C1476.69 941.777 1531.44 887.032 1531.44 819.501C1531.44 751.969 1476.69 697.224 1409.16 697.224C1341.63 697.224 1286.89 751.969 1286.89 819.501C1286.89 887.032 1341.63 941.777 1409.16 941.777Z" fill="#850C2A"/>
<path fill-rule="evenodd" clip-rule="evenodd" d="M847.606 638.838C886.685 638.838 918.365 607.158 918.365 568.079C918.365 528.999 886.685 497.319 847.606 497.319C808.527 497.319 776.847 528.999 776.847 568.079C776.847 607.158 808.527 638.838 847.606 638.838ZM847.606 618.937C875.694 618.937 898.464 596.167 898.464 568.079C898.464 539.99 875.694 517.22 847.606 517.22C819.518 517.22 796.748 539.99 796.748 568.079C796.748 596.167 819.518 618.937 847.606 618.937Z" fill="#EC0101"/>
<path fill-rule="evenodd" clip-rule="evenodd" d="M989.124 991.129C1053.98 991.129 1106.55 938.554 1106.55 873.699C1106.55 808.844 1053.98 756.269 989.124 756.269C924.269 756.269 871.694 808.844 871.694 873.699C871.694 938.554 924.269 991.129 989.124 991.129ZM989.124 958.102C1035.74 958.102 1073.53 920.313 1073.53 873.699C1073.53 827.084 1035.74 789.296 989.124 789.296C942.51 789.296 904.721 827.084 904.721 873.699C904.721 920.313 942.51 958.102 989.124 958.102Z" fill="#EC0101"/>
<path fill-rule="evenodd" clip-rule="evenodd" d="M1501 464.198C1577.5 464.198 1639.51 402.186 1639.51 325.691C1639.51 249.195 1577.5 187.183 1501 187.183C1424.5 187.183 1362.49 249.195 1362.49 325.691C1362.49 402.186 1424.5 464.198 1501 464.198ZM1501 425.243C1555.98 425.243 1600.55 380.672 1600.55 325.691C1600.55 270.709 1555.98 226.138 1501 226.138C1446.02 226.138 1401.45 270.709 1401.45 325.691C1401.45 380.672 1446.02 425.243 1501 425.243Z" fill="#EC0101"/>
</g>
<defs>
<clipPath id="clip0_581_14588">
<rect width="1501" height="880.052" fill="white" transform="translate(0 0.499512)"/>
</clipPath>
</defs>
</svg>
