<svg width="114" height="27" xmlns="http://www.w3.org/2000/svg"><g fill="#FFF"><path d="M13.5 27C6.058 26.967.033 21.032 0 13.7V0h3.857v13.7c0 5.247 4.317 9.5 9.643 9.5 5.326 0 9.643-4.253 9.643-9.5H27c-.033 7.332-6.058 13.267-13.5 13.3z"/><path opacity=".4" d="M30 3.667h-3.6V0h-3.8v3.667H19v3.666h3.6V11h3.8V7.333H30z"/><path d="M44.72 0L55 27h-4.56l-2.443-7H37.024l-2.484 7H30L40.28 0h4.44zm-6.648 16.61h8.876L42.45 4.12l-4.377 12.49zM61.155 7v11.528c0 2.916 1.4 4.573 4.462 4.573 3.42 0 5.105-1.984 5.105-4.414V7H75v19.653h-3.257l-.541-2.867C69.956 25.859 68.006 27 64.708 27 59.604 27 57 24.024 57 18.796V7h4.155zm24.512-6v5.817h4.415v3.108h-4.415V20.48c0 1.752.618 2.995 2.386 2.995.79-.033 1.576-.111 2.358-.234L91 26.226a9.658 9.658 0 01-3.565.774c-4.31 0-5.797-2.252-5.797-6.948V9.925H79V7.398l2.686-.54L82.314 1h3.353zm17.817 6.004c2.806-.077 5.522.966 7.51 2.885 1.988 1.92 3.074 4.545 3.003 7.262-.177 5.488-4.825 9.849-10.498 9.849-5.673 0-10.32-4.36-10.497-9.85-.053-2.706 1.034-5.317 3.011-7.231 1.978-1.914 4.675-2.967 7.47-2.915zm-6.136 10.147c0 3.692 2.567 6.563 6.136 6.563s6.197-2.87 6.197-6.563c0-3.693-2.618-6.564-6.197-6.564-3.58 0-6.156 2.792-6.156 6.564h.02z"/></g></svg>