<svg width="200" height="58" viewBox="0 0 200 58" fill="none" xmlns="http://www.w3.org/2000/svg">
<path d="M51.394 46L41.7264 11.1424H47.258L54.0491 38.1366H54.3725L61.4359 11.1424H66.9165L73.9799 38.1536H74.3033L81.0774 11.1424H86.626L76.9414 46H71.6481L64.3124 19.8909H64.04L56.7043 46H51.394ZM99.7061 46.5276C97.1303 46.5276 94.912 45.9773 93.0511 44.8767C91.2016 43.7647 89.7719 42.2045 88.762 40.1961C87.7635 38.1763 87.2642 35.8105 87.2642 33.0986C87.2642 30.4208 87.7635 28.0606 88.762 26.0182C89.7719 23.9757 91.1789 22.3815 92.983 21.2355C94.7985 20.0894 96.9204 19.5164 99.3486 19.5164C100.824 19.5164 102.253 19.7604 103.638 20.2483C105.022 20.7362 106.265 21.5021 107.365 22.546C108.466 23.5899 109.334 24.9459 109.969 26.6139C110.605 28.2705 110.922 30.2846 110.922 32.6561V34.4602H90.1407V30.6477H105.935C105.935 29.3088 105.663 28.123 105.119 27.0905C104.574 26.0465 103.808 25.2239 102.821 24.6225C101.845 24.0211 100.699 23.7204 99.3827 23.7204C97.953 23.7204 96.7048 24.0722 95.6382 24.7757C94.583 25.4679 93.766 26.3756 93.1873 27.4989C92.6199 28.6109 92.3363 29.8194 92.3363 31.1243V34.1028C92.3363 35.8502 92.6426 37.3367 93.2554 38.5621C93.8794 39.7876 94.7475 40.7237 95.8595 41.3705C96.9715 42.0059 98.2707 42.3236 99.7571 42.3236C100.722 42.3236 101.601 42.1875 102.395 41.9151C103.19 41.6315 103.876 41.2116 104.455 40.6556C105.033 40.0996 105.476 39.4131 105.782 38.5962L110.599 39.4642C110.213 40.8826 109.521 42.125 108.523 43.1917C107.535 44.2469 106.293 45.0696 104.795 45.6596C103.309 46.2383 101.612 46.5276 99.7061 46.5276ZM124.177 46.5787C122.52 46.5787 121.023 46.2723 119.684 45.6596C118.345 45.0355 117.284 44.1334 116.501 42.9534C115.729 41.7733 115.343 40.3266 115.343 38.6132C115.343 37.1381 115.627 35.924 116.194 34.9709C116.762 34.0177 117.528 33.2631 118.492 32.7072C119.457 32.1512 120.535 31.7313 121.726 31.4477C122.917 31.164 124.132 30.9484 125.368 30.8009C126.934 30.6193 128.205 30.4718 129.181 30.3584C130.157 30.2335 130.866 30.035 131.308 29.7626C131.751 29.4903 131.972 29.0478 131.972 28.4351V28.3159C131.972 26.8295 131.552 25.6778 130.713 24.8608C129.884 24.0438 128.648 23.6353 127.002 23.6353C125.289 23.6353 123.939 24.0155 122.952 24.7757C121.976 25.5246 121.301 26.3586 120.926 27.2777L116.143 26.1884C116.711 24.5998 117.539 23.3176 118.628 22.3418C119.729 21.3546 120.994 20.6398 122.424 20.1972C123.854 19.7434 125.357 19.5164 126.934 19.5164C127.978 19.5164 129.085 19.6412 130.253 19.8909C131.433 20.1292 132.534 20.5717 133.555 21.2185C134.588 21.8652 135.433 22.79 136.091 23.9928C136.749 25.1842 137.078 26.733 137.078 28.6393V46H132.108V42.4257H131.904C131.575 43.0839 131.082 43.7306 130.423 44.3661C129.765 45.0015 128.92 45.5291 127.887 45.9489C126.855 46.3688 125.618 46.5787 124.177 46.5787ZM125.283 42.4938C126.69 42.4938 127.893 42.2158 128.892 41.6598C129.901 41.1038 130.667 40.3776 131.189 39.4812C131.723 38.5735 131.989 37.6033 131.989 36.5708V33.2007C131.808 33.3823 131.456 33.5525 130.934 33.7113C130.423 33.8589 129.839 33.9893 129.181 34.1028C128.523 34.2049 127.882 34.3014 127.258 34.3922C126.634 34.4716 126.112 34.5397 125.692 34.5964C124.705 34.7212 123.803 34.9311 122.986 35.2262C122.18 35.5212 121.533 35.9467 121.045 36.5027C120.569 37.0473 120.33 37.7735 120.33 38.6813C120.33 39.9408 120.796 40.8939 121.726 41.5407C122.657 42.1761 123.842 42.4938 125.283 42.4938ZM148.946 11.1424V46H143.857V11.1424H148.946ZM167.996 19.8568V23.9417H153.716V19.8568H167.996ZM157.545 13.5934H162.634V38.3238C162.634 39.311 162.782 40.0542 163.077 40.5535C163.372 41.0414 163.752 41.3762 164.217 41.5577C164.694 41.7279 165.21 41.813 165.766 41.813C166.175 41.813 166.532 41.7846 166.838 41.7279C167.145 41.6712 167.383 41.6258 167.553 41.5917L168.472 45.7958C168.177 45.9092 167.757 46.0227 167.213 46.1362C166.668 46.261 165.987 46.3291 165.17 46.3404C163.831 46.3631 162.583 46.1248 161.426 45.6256C160.269 45.1263 159.332 44.3547 158.618 43.3108C157.903 42.2669 157.545 40.9563 157.545 39.3791V13.5934ZM179.276 30.4775V46H174.187V11.1424H179.208V24.1119H179.531C180.144 22.7049 181.08 21.5872 182.34 20.7589C183.599 19.9306 185.244 19.5164 187.275 19.5164C189.068 19.5164 190.634 19.8852 191.973 20.6227C193.323 21.3603 194.367 22.4609 195.105 23.9247C195.854 25.3771 196.228 27.1926 196.228 29.3712V46H191.139V29.9839C191.139 28.0663 190.645 26.5798 189.658 25.5246C188.671 24.458 187.298 23.9247 185.539 23.9247C184.337 23.9247 183.259 24.18 182.306 24.6906C181.364 25.2012 180.621 25.9501 180.076 26.9373C179.543 27.9131 179.276 29.0932 179.276 30.4775Z" fill="#15391D"/>
<path fill-rule="evenodd" clip-rule="evenodd" d="M4.79291 13.1807H0V29.9559H0.00097659C0.00150434 39.2201 7.51182 46.7301 16.7762 46.7301C26.0409 46.7301 33.5514 39.2196 33.5514 29.9549V29.9548H28.7585V29.9549C28.7585 36.5726 23.3939 41.9372 16.7762 41.9372C10.1586 41.9372 4.79395 36.5726 4.79395 29.9549V29.9548H4.79291V13.1807Z" fill="#15391D"/>
<path fill-rule="evenodd" clip-rule="evenodd" d="M33.5497 13.1807H28.7568V17.374H24.5635L24.5635 22.1669H28.7568V26.3612H33.5497V22.1669H37.744V17.374H33.5497V13.1807Z" fill="#005501"/>
</svg>
