<svg id="U_Bank_Logo" data-name="U Bank Logo" xmlns="http://www.w3.org/2000/svg" viewBox="0 0 169.51 30.4"><defs><style>.cls-1,.cls-2{fill:#fff;}.cls-2{isolation:isolate;opacity:0.4;}</style></defs><path class="cls-1" d="M14.1,29.8A14.08,14.08,0,0,1,0,15.7V1.1H4V15.7A10.14,10.14,0,0,0,14.1,25.8,10.29,10.29,0,0,0,24.3,15.7h4A14.11,14.11,0,0,1,14.1,29.8Z"/><path class="cls-2" d="M32.2,5H28.3V1.1h-4V5H20.4V9h3.9v3.9h4V9h3.9Z"/><path class="cls-1" d="M86,8.3c6.4,0,9.8,5.3,9.8,10.8a9.07,9.07,0,0,1-.2,2H80c.2,3.6,3.2,5.5,6.6,5.5a16.18,16.18,0,0,0,6.2-1.4l1.5,3.3a16.63,16.63,0,0,1-7.8,1.9c-6.5,0-11.1-4.6-11.1-10.9S79.71,8.3,86,8.3Zm5.6,9.5c-.1-2.9-1.6-5.6-5.3-5.6a6,6,0,0,0-6.2,5.6Zm17.2-9.5c5.2,0,8.1,2.3,8.1,7v9.9c0,.7.4.8,1.1.8a12.27,12.27,0,0,0,1.7-.1v3.5a9.34,9.34,0,0,1-3,.6c-1.6,0-3.5-.7-3.5-2.7v-.4c-1.1,2.2-3.5,3.5-6.8,3.5-4.2,0-7.6-2.4-7.6-6.8,0-4.9,4.1-6.6,9.1-6.6,1.5,0,3.9.2,4.9.3V16c0-3.3-2.2-4.1-4.6-4.1a33.47,33.47,0,0,0-6.7.9l-.8-3.2A30.31,30.31,0,0,1,108.81,8.3Zm-.4,11.7c-2.5,0-5.7.5-5.7,3.4,0,2.3,2,3.4,4.3,3.4,2.8,0,5.7-1.8,5.7-4.2V20.4A22.39,22.39,0,0,0,108.41,20Zm19.7-20V25.2a.79.79,0,0,0,.9.9,11.48,11.48,0,0,0,1.8-.1v3.5a13.17,13.17,0,0,1-3.5.6c-2.6,0-3.6-1.9-3.6-3.8V0Zm12.7,2.5V8.6h4.9V12h-4.9V23.2c0,1.8.7,3.2,2.7,3.2.7,0,1.6-.1,2.6-.2l.7,3.2a10.19,10.19,0,0,1-4,.8c-4.8,0-6.4-2.4-6.4-7.3V12h-3V9.3l3-.6.7-6.2ZM155,0V11.7a7.55,7.55,0,0,1,6.5-3.4c4.3,0,8,2.6,8,9V30H165V17.5c0-3.1-1.8-4.9-4.6-4.9-3.7,0-5.4,2.9-5.4,5.7V30h-4.5V0Z"/><path class="cls-1" d="M67.87,30H62.73l-4.9-17.24c-.21-.75-.48-1.83-.79-3.25s-.51-2.4-.58-2.95c-.13.84-.34,1.93-.64,3.28s-.54,2.34-.74,3L50.3,30H45.16L41.42,15.53,37.63,1.1h4.82l4.13,16.84A69.5,69.5,0,0,1,48,25.1c.15-1.12.37-2.37.66-3.76s.55-2.5.79-3.36L54.11,1.1H58.8l4.82,17a62.73,62.73,0,0,1,1.46,7,50.64,50.64,0,0,1,1.43-7.2L70.62,1.1H75.4Z"/></svg>
