<svg xmlns="http://www.w3.org/2000/svg" viewBox="0 0 960 500">
<g transform="translate(40,20)"><g><g transform="translate(2,0)"><rect x="2" y="203" width="38" height="247" fill="#58b902"></rect><rect x="42" y="205" width="38" height="245" fill="#e24046"></rect></g><g transform="translate(165,0)"><rect x="2" y="190" width="38" height="260" fill="#58b902"></rect><rect x="42" y="182" width="38" height="268" fill="#e24046"></rect></g><g transform="translate(328,0)"><rect x="2" y="196" width="38" height="254" fill="#58b902"></rect><rect x="42" y="228" width="38" height="222" fill="#e24046"></rect></g><g transform="translate(491,0)"><rect x="2" y="193" width="38" height="257" fill="#58b902"></rect><rect x="42" y="188" width="38" height="262" fill="#e24046"></rect></g><g transform="translate(654,0)"><rect x="2" y="208" width="38" height="242" fill="#58b902"></rect><rect x="42" y="212" width="38" height="238" fill="#e24046"></rect></g><g transform="translate(817,0)"><rect x="2" y="203" width="38" height="247" fill="#58b902"></rect><rect x="42" y="200" width="38" height="250" fill="#e24046"></rect></g></g><g class="axis" transform="translate(0,450)" fill="none" font-size="10" font-family="sans-serif" text-anchor="middle"><path class="domain" stroke="#000" d="M0.5,6V0.5H900.5V6"></path><g class="tick" opacity="1" transform="translate(43.5,0)"><line stroke="#000" y2="6"></line><text fill="#000" y="9" dy="0.71em">June</text></g><g class="tick" opacity="1" transform="translate(206.5,0)"><line stroke="#000" y2="6"></line><text fill="#000" y="9" dy="0.71em">July</text></g><g class="tick" opacity="1" transform="translate(369.5,0)"><line stroke="#000" y2="6"></line><text fill="#000" y="9" dy="0.71em">August</text></g><g class="tick" opacity="1" transform="translate(532.5,0)"><line stroke="#000" y2="6"></line><text fill="#000" y="9" dy="0.71em">September</text></g><g class="tick" opacity="1" transform="translate(695.5,0)"><line stroke="#000" y2="6"></line><text fill="#000" y="9" dy="0.71em">October</text></g><g class="tick" opacity="1" transform="translate(858.5,0)"><line stroke="#000" y2="6"></line><text fill="#000" y="9" dy="0.71em">November</text></g></g><g class="axis" color="#000" fill="none" font-size="10" font-family="sans-serif" text-anchor="end"><path class="domain" stroke="#000" d="M-6,450.5H0.5V0.5H-6"></path><g class="tick" opacity="1" transform="translate(0,450.5)"><line stroke="#000" x2="-6"></line><text fill="#000" x="-9" dy="0.32em">0k</text></g><g class="tick" opacity="1" transform="translate(0,394.5)"><line stroke="#000" x2="-6"></line><text fill="#000" x="-9" dy="0.32em">2k</text></g><g class="tick" opacity="1" transform="translate(0,338.5)"><line stroke="#000" x2="-6"></line><text fill="#000" x="-9" dy="0.32em">4k</text></g><g class="tick" opacity="1" transform="translate(0,281.5)"><line stroke="#000" x2="-6"></line><text fill="#000" x="-9" dy="0.32em">6k</text></g><g class="tick" opacity="1" transform="translate(0,225.5)"><line stroke="#000" x2="-6"></line><text fill="#000" x="-9" dy="0.32em">8k</text></g><g class="tick" opacity="1" transform="translate(0,169.5)"><line stroke="#000" x2="-6"></line><text fill="#000" x="-9" dy="0.32em">10k</text></g><g class="tick" opacity="1" transform="translate(0,113.5)"><line stroke="#000" x2="-6"></line><text fill="#000" x="-9" dy="0.32em">12k</text></g><g class="tick" opacity="1" transform="translate(0,56.5)"><line stroke="#000" x2="-6"></line><text fill="#000" x="-9" dy="0.32em">14k</text></g><g class="tick" opacity="1" transform="translate(0,0.5)"><line stroke="#000" x2="-6"></line><text fill="#000" x="-9" dy="0.32em">16k</text></g><text x="20" y="0.5" dy="0.32em" fill="#000" font-weight="bold" font-size="16" text-anchor="start">Income and cost per month</text></g><g font-family="sans-serif" font-size="13" text-anchor="end"><g transform="translate(0,0)"><rect x="881" width="19" height="19" fill="#e24046"></rect><text x="876" y="9.5" dy="0.32em">Cost</text></g><g transform="translate(0,20)"><rect x="881" width="19" height="19" fill="#58b902"></rect><text x="876" y="9.5" dy="0.32em">Income</text></g></g></g></svg>