<svg width="1211" height="807" viewBox="0 0 1211 807" fill="none" xmlns="http://www.w3.org/2000/svg">
<g clip-path="url(#clip0_281_6208)">
<mask id="mask0_281_6208" style="mask-type:luminance" maskUnits="userSpaceOnUse" x="1011" y="474" width="200" height="224">
<path d="M1211 697.449H1011.03V474.993H1211V697.449Z" fill="#00556E"/>
</mask>
<g mask="url(#mask0_281_6208)">
<path fill-rule="evenodd" clip-rule="evenodd" d="M1028.02 679L1196 586.51V586.49L1028.02 494H1028.02L1028 494.011V678.99L1028.02 679Z" fill="#2F613A"/>
</g>
<path fill-rule="evenodd" clip-rule="evenodd" d="M789 624L623 715.5L789 807V624Z" fill="#56AC68"/>
<path fill-rule="evenodd" clip-rule="evenodd" d="M799.727 366.098L629.456 263.035L633.576 462.025L799.727 366.098Z" fill="#56AC68"/>
<path fill-rule="evenodd" clip-rule="evenodd" d="M846.999 541.426L961.918 478.213L846.999 415V541.426Z" fill="#56AC68"/>
<path fill-rule="evenodd" clip-rule="evenodd" d="M401 372L237 462L401 552V372Z" fill="#56AC68"/>
<path fill-rule="evenodd" clip-rule="evenodd" d="M432.015 766.564L580.674 684.791V684.773L432.015 603.001L432 603.009V766.556L432.015 766.564Z" fill="#56A069"/>
<path fill-rule="evenodd" clip-rule="evenodd" d="M140 749.498L394 889V610L140 749.498Z" fill="#94E4AC"/>
<path fill-rule="evenodd" clip-rule="evenodd" d="M1028 716.012V919.988L1028.02 920L1213 818.012V817.988L1028.02 716L1028 716.012Z" fill="#56A069"/>
<path fill-rule="evenodd" clip-rule="evenodd" d="M809 821.003V1030.99L809.019 1031L1000 926.008V716L809.019 820.992L809 821.003Z" fill="#2F613A"/>
<path fill-rule="evenodd" clip-rule="evenodd" d="M404.42 1031.12L404.437 1031.13L606.624 919.917L606.643 919.906L606.624 919.896V697.459L404.437 808.677L404.42 808.687V1031.12Z" fill="#94E4AC"/>
<path fill-rule="evenodd" clip-rule="evenodd" d="M1011.04 697.462L1011.06 697.449L1011.04 697.437V697.462Z" fill="#091517"/>
<path fill-rule="evenodd" clip-rule="evenodd" d="M202.212 474.983V475.001L202.229 474.992L202.212 474.983Z" fill="#091517"/>
<path fill-rule="evenodd" clip-rule="evenodd" d="M1011.04 252.524V252.548L1011.06 252.536L1011.04 252.524Z" fill="#091517"/>
<path fill-rule="evenodd" clip-rule="evenodd" d="M202.213 697.441V697.458L202.229 697.449L202.213 697.441Z" fill="#091517"/>
<path fill-rule="evenodd" clip-rule="evenodd" d="M808.83 363.754V363.776L808.85 363.764L808.83 363.754Z" fill="#091517"/>
<path fill-rule="evenodd" clip-rule="evenodd" d="M606.625 475.003V697.46L606.643 697.449L808.829 586.232L808.85 586.221L808.829 586.209L606.644 474.992L606.625 474.982V475.003Z" fill="#2F613A"/>
<path fill-rule="evenodd" clip-rule="evenodd" d="M1028 267.019V462L1028.02 461.99L1204.98 364.51L1205 364.5L1204.98 364.489L1028.02 267.009L1028 267V267.019Z" fill="#2F613A"/>
<path fill-rule="evenodd" clip-rule="evenodd" d="M1004 266.019V461L1003.98 460.99L827.018 363.51L827 363.5L827.018 363.489L1003.98 266.009L1004 266V266.019Z" fill="#94E4AC"/>
<path fill-rule="evenodd" clip-rule="evenodd" d="M404.435 586.223L404.437 586.222L404.42 586.213V586.231L404.435 586.223Z" fill="#091517"/>
<path fill-rule="evenodd" clip-rule="evenodd" d="M982.322 689.966L828.912 597.25L832.5 776.466L982.322 689.966Z" fill="#94E4AC"/>
<path fill-rule="evenodd" clip-rule="evenodd" d="M599 264L415 365L599 466V264Z" fill="#94E4AC"/>
<path fill-rule="evenodd" clip-rule="evenodd" d="M1211 394L1061 477L1211 560V394Z" fill="#56A069"/>
<path fill-rule="evenodd" clip-rule="evenodd" d="M201.858 500.698L49.1788 405.25L55.5 585.198L201.858 500.698Z" fill="#56A069"/>
<path fill-rule="evenodd" clip-rule="evenodd" d="M1212.92 641L1098 704.214L1212.92 767.427L1212.92 641Z" fill="#2F613A"/>
<path fill-rule="evenodd" clip-rule="evenodd" d="M220 504.015V666L220.013 665.992L367.985 585.008L368 585L367.985 584.991L220.014 504.007L220 504V504.015Z" fill="#2F613A"/>
<path fill-rule="evenodd" clip-rule="evenodd" d="M686 475L805.988 540.994L806 541V409L686 475Z" fill="#56A069"/>
</g>
<defs>
<clipPath id="clip0_281_6208">
<rect width="1211" height="807" fill="white" transform="matrix(-1 0 0 -1 1211 807)"/>
</clipPath>
</defs>
</svg>
