<svg width="155" height="58" viewBox="0 0 155 58" fill="none" xmlns="http://www.w3.org/2000/svg">
<path d="M44.5678 46V11.1424H57.3331C59.8067 11.1424 61.8548 11.5509 63.4774 12.3679C65.1 13.1735 66.3141 14.2685 67.1197 15.6528C67.9254 17.0258 68.3282 18.5746 68.3282 20.2994C68.3282 21.7518 68.0615 22.9772 67.5282 23.9757C66.9949 24.9629 66.2801 25.7572 65.3837 26.3586C64.4986 26.9486 63.5228 27.3798 62.4562 27.6521V27.9925C63.6136 28.0493 64.7426 28.4237 65.8432 29.1159C66.9552 29.7967 67.8743 30.7668 68.6005 32.0263C69.3267 33.2858 69.6898 34.8177 69.6898 36.6218C69.6898 38.4033 69.27 40.0032 68.4303 41.4215C67.602 42.8286 66.3198 43.9462 64.5837 44.7745C62.8476 45.5915 60.6293 46 57.9288 46H44.5678ZM49.8271 41.4896H57.4182C59.9372 41.4896 61.7413 41.0017 62.8306 40.0259C63.9199 39.05 64.4646 37.8303 64.4646 36.3665C64.4646 35.2659 64.1866 34.256 63.6306 33.3369C63.0746 32.4178 62.2803 31.6859 61.2477 31.1413C60.2265 30.5966 59.0124 30.3243 57.6054 30.3243H49.8271V41.4896ZM49.8271 26.2224H56.8735C58.0536 26.2224 59.1145 25.9955 60.0563 25.5416C61.0094 25.0877 61.764 24.4523 62.32 23.6353C62.8874 22.807 63.171 21.8312 63.171 20.7078C63.171 19.2668 62.6661 18.0584 61.6562 17.0825C60.6464 16.1067 59.0975 15.6188 57.0097 15.6188H49.8271V26.2224ZM83.1273 46.5787C81.4707 46.5787 79.9729 46.2723 78.634 45.6596C77.295 45.0355 76.2341 44.1334 75.4512 42.9534C74.6796 41.7733 74.2938 40.3266 74.2938 38.6132C74.2938 37.1381 74.5775 35.924 75.1448 34.9709C75.7121 34.0177 76.4781 33.2631 77.4425 32.7072C78.407 32.1512 79.485 31.7313 80.6764 31.4477C81.8678 31.164 83.0819 30.9484 84.3187 30.8009C85.8846 30.6193 87.1555 30.4718 88.1313 30.3584C89.1071 30.2335 89.8163 30.035 90.2588 29.7626C90.7013 29.4903 90.9226 29.0478 90.9226 28.4351V28.3159C90.9226 26.8295 90.5028 25.6778 89.6631 24.8608C88.8348 24.0438 87.598 23.6353 85.9527 23.6353C84.2393 23.6353 82.889 24.0155 81.9019 24.7757C80.926 25.5246 80.2509 26.3586 79.8764 27.2777L75.0937 26.1884C75.6611 24.5998 76.4894 23.3176 77.5787 22.3418C78.6793 21.3546 79.9445 20.6398 81.3742 20.1972C82.8039 19.7434 84.3074 19.5164 85.8846 19.5164C86.9285 19.5164 88.0348 19.6412 89.2036 19.8909C90.3836 20.1292 91.4843 20.5717 92.5055 21.2185C93.5381 21.8652 94.3834 22.79 95.0415 23.9928C95.6996 25.1842 96.0287 26.733 96.0287 28.6393V46H91.0588V42.4257H90.8545C90.5255 43.0839 90.0319 43.7306 89.3738 44.3661C88.7156 45.0015 87.8703 45.5291 86.8377 45.9489C85.8052 46.3688 84.5684 46.5787 83.1273 46.5787ZM84.2336 42.4938C85.6406 42.4938 86.8434 42.2158 87.8419 41.6598C88.8518 41.1038 89.6177 40.3776 90.1397 39.4812C90.673 38.5735 90.9396 37.6033 90.9396 36.5708V33.2007C90.7581 33.3823 90.4063 33.5525 89.8844 33.7113C89.3738 33.8589 88.7894 33.9893 88.1313 34.1028C87.4732 34.2049 86.8321 34.3014 86.208 34.3922C85.5839 34.4716 85.062 34.5397 84.6421 34.5964C83.6549 34.7212 82.7529 34.9311 81.9359 35.2262C81.1303 35.5212 80.4835 35.9467 79.9956 36.5027C79.519 37.0473 79.2807 37.7735 79.2807 38.6813C79.2807 39.9408 79.746 40.8939 80.6764 41.5407C81.6068 42.1761 82.7926 42.4938 84.2336 42.4938ZM107.896 30.4775V46H102.807V19.8568H107.692V24.1119H108.015C108.617 22.7276 109.558 21.6156 110.841 20.7759C112.134 19.9363 113.762 19.5164 115.725 19.5164C117.507 19.5164 119.067 19.8909 120.406 20.6398C121.745 21.3773 122.783 22.478 123.521 23.9417C124.258 25.4054 124.627 27.2153 124.627 29.3712V46H119.538V29.9839C119.538 28.089 119.044 26.6082 118.057 25.5416C117.07 24.4637 115.714 23.9247 113.989 23.9247C112.809 23.9247 111.76 24.18 110.841 24.6906C109.933 25.2012 109.212 25.9501 108.679 26.9373C108.157 27.9131 107.896 29.0932 107.896 30.4775ZM136.133 37.1324L136.099 30.92H136.984L147.4 19.8568H153.493L141.613 32.4518H140.813L136.133 37.1324ZM131.452 46V11.1424H136.541V46H131.452ZM147.962 46L138.601 33.5752L142.107 30.0179L154.208 46H147.962Z" fill="#15391D"/>
<path fill-rule="evenodd" clip-rule="evenodd" d="M4.79291 13.1807H0V29.9548V29.9549C0 29.9552 0 29.9555 0 29.9559C0.000527751 39.2201 7.51084 46.7301 16.7752 46.7301C26.0399 46.7301 33.5504 39.2196 33.5504 29.9549V29.9548H28.7575V29.9549C28.7575 36.5726 23.3929 41.9372 16.7753 41.9372C10.1576 41.9372 4.79297 36.5726 4.79297 29.9549V29.9548H4.79291V13.1807Z" fill="#15391D"/>
<path fill-rule="evenodd" clip-rule="evenodd" d="M33.5506 13.1807H28.7577V17.374H24.5635V22.1669H28.7577V26.3612H33.5506V22.1669H37.744V17.374H33.5506V13.1807Z" fill="#005501"/>
</svg>
