<svg width="192" height="58" viewBox="0 0 192 58" fill="none" xmlns="http://www.w3.org/2000/svg">
<path d="M44.5688 46V11.1424H49.8281V26.2905H67.2058V11.1424H72.4821V46H67.2058V30.8009H49.8281V46H44.5688ZM91.0002 46.5276C88.4244 46.5276 86.2061 45.9773 84.3452 44.8767C82.4957 43.7647 81.066 42.2045 80.0561 40.1961C79.0576 38.1763 78.5583 35.8105 78.5583 33.0986C78.5583 30.4208 79.0576 28.0606 80.0561 26.0182C81.066 23.9757 82.473 22.3815 84.2772 21.2355C86.0927 20.0894 88.2145 19.5164 90.6428 19.5164C92.1178 19.5164 93.5476 19.7604 94.9319 20.2483C96.3162 20.7362 97.5587 21.5021 98.6593 22.546C99.76 23.5899 100.628 24.9459 101.263 26.6139C101.899 28.2705 102.217 30.2846 102.217 32.6561V34.4602H81.4348V30.6477H97.2296C97.2296 29.3088 96.9573 28.123 96.4126 27.0905C95.868 26.0465 95.1021 25.2239 94.1149 24.6225C93.1391 24.0211 91.993 23.7204 90.6768 23.7204C89.2471 23.7204 87.9989 24.0722 86.9323 24.7757C85.8771 25.4679 85.0601 26.3756 84.4814 27.4989C83.9141 28.6109 83.6304 29.8194 83.6304 31.1243V34.1028C83.6304 35.8502 83.9368 37.3367 84.5495 38.5621C85.1736 39.7876 86.0416 40.7237 87.1536 41.3705C88.2656 42.0059 89.5648 42.3236 91.0512 42.3236C92.0157 42.3236 92.8951 42.1875 93.6894 41.9151C94.4837 41.6315 95.1702 41.2116 95.7488 40.6556C96.3275 40.0996 96.7701 39.4131 97.0764 38.5962L101.893 39.4642C101.507 40.8826 100.815 42.125 99.8167 43.1917C98.8295 44.2469 97.587 45.0696 96.0892 45.6596C94.6028 46.2383 92.9065 46.5276 91.0002 46.5276ZM115.471 46.5787C113.814 46.5787 112.317 46.2723 110.978 45.6596C109.639 45.0355 108.578 44.1334 107.795 42.9534C107.023 41.7733 106.638 40.3266 106.638 38.6132C106.638 37.1381 106.921 35.924 107.489 34.9709C108.056 34.0177 108.822 33.2631 109.786 32.7072C110.751 32.1512 111.829 31.7313 113.02 31.4477C114.212 31.164 115.426 30.9484 116.663 30.8009C118.228 30.6193 119.499 30.4718 120.475 30.3584C121.451 30.2335 122.16 30.035 122.603 29.7626C123.045 29.4903 123.266 29.0478 123.266 28.4351V28.3159C123.266 26.8295 122.847 25.6778 122.007 24.8608C121.179 24.0438 119.942 23.6353 118.296 23.6353C116.583 23.6353 115.233 24.0155 114.246 24.7757C113.27 25.5246 112.595 26.3586 112.22 27.2777L107.438 26.1884C108.005 24.5998 108.833 23.3176 109.922 22.3418C111.023 21.3546 112.288 20.6398 113.718 20.1972C115.148 19.7434 116.651 19.5164 118.228 19.5164C119.272 19.5164 120.379 19.6412 121.547 19.8909C122.727 20.1292 123.828 20.5717 124.849 21.2185C125.882 21.8652 126.727 22.79 127.385 23.9928C128.043 25.1842 128.372 26.733 128.372 28.6393V46H123.403V42.4257H123.198C122.869 43.0839 122.376 43.7306 121.718 44.3661C121.059 45.0015 120.214 45.5291 119.182 45.9489C118.149 46.3688 116.912 46.5787 115.471 46.5787ZM116.577 42.4938C117.984 42.4938 119.187 42.2158 120.186 41.6598C121.196 41.1038 121.962 40.3776 122.483 39.4812C123.017 38.5735 123.283 37.6033 123.283 36.5708V33.2007C123.102 33.3823 122.75 33.5525 122.228 33.7113C121.718 33.8589 121.133 33.9893 120.475 34.1028C119.817 34.2049 119.176 34.3014 118.552 34.3922C117.928 34.4716 117.406 34.5397 116.986 34.5964C115.999 34.7212 115.097 34.9311 114.28 35.2262C113.474 35.5212 112.827 35.9467 112.339 36.5027C111.863 37.0473 111.625 37.7735 111.625 38.6813C111.625 39.9408 112.09 40.8939 113.02 41.5407C113.951 42.1761 115.136 42.4938 116.577 42.4938ZM140.24 11.1424V46H135.151V11.1424H140.24ZM159.29 19.8568V23.9417H145.01V19.8568H159.29ZM148.839 13.5934H153.928V38.3238C153.928 39.311 154.076 40.0542 154.371 40.5535C154.666 41.0414 155.046 41.3762 155.511 41.5577C155.988 41.7279 156.504 41.813 157.06 41.813C157.469 41.813 157.826 41.7846 158.132 41.7279C158.439 41.6712 158.677 41.6258 158.847 41.5917L159.766 45.7958C159.471 45.9092 159.052 46.0227 158.507 46.1362C157.962 46.261 157.281 46.3291 156.464 46.3404C155.126 46.3631 153.877 46.1248 152.72 45.6256C151.563 45.1263 150.627 44.3547 149.912 43.3108C149.197 42.2669 148.839 40.9563 148.839 39.3791V13.5934ZM170.57 30.4775V46H165.481V11.1424H170.502V24.1119H170.825C171.438 22.7049 172.374 21.5872 173.634 20.7589C174.893 19.9306 176.538 19.5164 178.57 19.5164C180.362 19.5164 181.928 19.8852 183.267 20.6227C184.617 21.3603 185.661 22.4609 186.399 23.9247C187.148 25.3771 187.522 27.1926 187.522 29.3712V46H182.433V29.9839C182.433 28.0663 181.94 26.5798 180.952 25.5246C179.965 24.458 178.592 23.9247 176.834 23.9247C175.631 23.9247 174.553 24.18 173.6 24.6906C172.658 25.2012 171.915 25.9501 171.37 26.9373C170.837 27.9131 170.57 29.0932 170.57 30.4775Z" fill="#0B393A"/>
<path fill-rule="evenodd" clip-rule="evenodd" d="M4.79291 13.1807H0V29.9559H0.00097659C0.00150434 39.2201 7.51182 46.7301 16.7762 46.7301C26.0409 46.7301 33.5514 39.2196 33.5514 29.9549V29.9548H28.7585V29.9549C28.7585 36.5726 23.3939 41.9372 16.7762 41.9372C10.1586 41.9372 4.79395 36.5726 4.79395 29.9549V29.9548H4.79291V13.1807Z" fill="#0B393A"/>
<path fill-rule="evenodd" clip-rule="evenodd" d="M33.5497 13.1807H28.7568V17.374H24.5635L24.5635 22.1669H28.7568V26.3612H33.5497V22.1669H37.744V17.374H33.5497V13.1807Z" fill="#007175"/>
</svg>
