<?xml version="1.0" encoding="utf-8"?>
<!-- Generator: Adobe Illustrator 22.1.0, SVG Export Plug-In . SVG Version: 6.00 Build 0)  -->
<!DOCTYPE svg PUBLIC "-//W3C//DTD SVG 1.1//EN" "http://www.w3.org/Graphics/SVG/1.1/DTD/svg11.dtd">
<svg version="1.1" id="Layer_1" xmlns="http://www.w3.org/2000/svg" xmlns:xlink="http://www.w3.org/1999/xlink" x="0px" y="0px"
	 viewBox="0 0 30 36" style="enable-background:new 0 0 30 36;" xml:space="preserve">
<style type="text/css">
	.st0{enable-background:new    ;}
	.st1{fill:#FFFFFF;}
</style>
<g class="st0">
	<path class="st1" d="M6.3,18.8V25c0,0.5-0.2,0.9-0.6,1.3c-0.4,0.4-0.8,0.6-1.3,0.6H1.9c-0.5,0-0.9-0.2-1.3-0.6C0.2,26,0,25.5,0,25
		v-6.3c0-0.9,0.4-1.5,1.2-1.8H5C5.8,17.3,6.3,17.9,6.3,18.8z M1.2,17.5c0.2-3.5,1.6-6.4,4.1-8.8C7.8,6.2,10.8,5,14.4,5
		c3.5,0,6.5,1.2,9,3.6c2.5,2.4,3.9,5.4,4.1,8.8h-1.2c-0.2-3.1-1.4-5.8-3.7-7.9s-5-3.3-8.1-3.3S8.5,7.4,6.2,9.5
		c-2.3,2.2-3.5,4.8-3.7,7.9H1.2z M5,18.8c0-0.4-0.2-0.6-0.6-0.6H1.9c-0.4,0-0.6,0.2-0.6,0.6V25c0,0.4,0.2,0.6,0.6,0.6h2.5
		C4.8,25.6,5,25.4,5,25V18.8z M12.6,30h6.3v2.5h-6.3V30z M17.8,33.8c5.7,0,9.3-0.8,11-2.4c0.8-0.8,1.2-1.9,1.2-3.2v-6.3
		c0-0.4-0.2-0.6-0.6-0.6c-0.4,0-0.6,0.2-0.6,0.6v6.3c0,1-0.3,1.8-0.9,2.3c-1.3,1.3-4.8,2-10.3,2H15c-0.4,0-0.6,0.2-0.6,0.6
		c0,0.4,0.2,0.6,0.6,0.6h2.5H17.8z M28.8,18.8V25c0,0.5-0.2,0.9-0.6,1.3c-0.4,0.4-0.8,0.6-1.3,0.6h-2.5c-0.5,0-0.9-0.2-1.3-0.6
		c-0.4-0.4-0.6-0.8-0.6-1.3v-6.3c0-0.9,0.4-1.5,1.3-1.8h3.8C28.4,17.4,28.8,17.9,28.8,18.8z M27.5,18.8c0-0.4-0.2-0.6-0.6-0.6h-2.5
		c-0.4,0-0.6,0.2-0.6,0.6V25c0,0.4,0.2,0.6,0.6,0.6h2.5c0.4,0,0.6-0.2,0.6-0.6V18.8z"/>
</g>
</svg>
