<svg version="1.1" id="U_Bank_Logo" xmlns="http://www.w3.org/2000/svg" x="0" y="0" viewBox="0 0 176.8 30.4" xml:space="preserve"><style>.st0{fill:#fff}</style><path class="st0" d="M7801.9 28.9c-7.8 0-14.1-6.3-14.1-14.1V.2h4v14.6c0 5.6 4.6 10.1 10.1 10.1s10.2-4.6 10.2-10.1h4c-.1 7.7-6.4 14.1-14.2 14.1z"/><path opacity=".4" fill="#fff" d="M7819.9 4h-3.9V.2h-4V4h-3.9v4h3.9v3.9h4V8h3.9z"/><path class="st0" d="M7849.1 2.4l-1.8 3.4c-.5-.2-3.6-1.7-7.4-1.7-6.2 0-10.6 4.6-10.6 10.6 0 6.2 4.5 10.7 10.4 10.7 2.3 0 4.8-.7 6.6-2.3v-5.5h-7.5v-3.7h11.7v11c-3.6 3.4-6.9 4.6-10.6 4.6-8.9 0-15.4-6.6-15.4-14.7s6.7-14.8 15-14.8c3.6 0 7.1.9 9.6 2.4zm16.6 5c6.2 0 11.1 4.6 11.1 11s-5 11-11.1 11-11-4.6-11-11c-.1-6.4 4.9-11 11-11zm-6.5 11c0 4 2.7 7.1 6.5 7.1 3.7 0 6.5-3.1 6.5-7.1 0-4.1-2.7-7.1-6.5-7.1s-6.5 3-6.5 7.1zm24.1-10.7l5.2 16.4h.1l5.3-16.4h4.6l-7.8 21.3h-4.3l-7.6-21.3h4.5zM14 30.2C6.6 30.2.6 24 .6 16.4V2.2h3.8v14.2c0 5.4 4.3 9.9 9.6 9.9s9.6-4.4 9.6-9.9h3.8C27.3 24 21.3 30.2 14 30.2z"/><path opacity=".4" fill="#fff" d="M31 7h-3.7V3.2h-3.7V7h-3.7v3.9h3.7v3.8h3.7v-3.8H31z"/><path class="st0" d="M50 1.3c4.5 0 8.3 4.2 8.3 8.8S54.6 19 50.2 19h-7.7v10.7h-4.3V1.3H50zm-7.6 13.5H50c2.1 0 3.9-2.4 3.9-4.7 0-3.2-2.5-4.6-5.2-4.6h-6.3v9.3zM66.5 0v11.6c.7-1.1 2.6-3.3 6.2-3.3 4.2 0 7.7 2.6 7.7 9v12.6h-4.3V17.4c0-3.1-1.7-4.9-4.5-4.9-3.6 0-5.2 2.9-5.2 5.6v11.7h-4.3V0h4.4zM94 8.3c5 0 7.8 2.3 7.8 7V25c0 .7.4.8 1 .8.3 0 1 0 1.6-.1v3.5c-.2.1-1.7.6-2.9.6-1.6 0-3.4-.7-3.4-2.7v-.4c-1 2.2-3.4 3.5-6.6 3.5-4.1 0-7.3-2.4-7.3-6.8 0-4.8 3.9-6.6 8.8-6.6 1.4 0 3.8.2 4.7.3v-1.2c0-3.3-2.1-4-4.5-4-1.7 0-4.5.4-6.4.9L86 9.7c1.7-.6 5-1.4 8-1.4zm-.4 11.6c-2.4 0-5.4.4-5.4 3.4 0 2.3 1.9 3.4 4.1 3.4 2.7 0 5.4-1.8 5.4-4.2v-2.2c-.7-.2-2.5-.4-4.1-.4zm17.8-11.1l.6 3.6c1-2.5 2.8-3.7 6.5-3.7h.4v4.1h-.6c-3.2 0-6 1.3-6 6.1v10.9H108v-21h3.4zm14.6-.2l.7 3.3c.9-2.3 3.7-3.6 5.8-3.6 2.8 0 5.2 1.7 6.2 4.1.9-2.2 3.8-4.1 6.2-4.1 5.1 0 7.9 2.8 7.9 8.5v13h-4.3v-13c0-2.4-1.3-4.3-4-4.3-2.9 0-4.5 2.4-4.5 5.1v12.2h-4.3V16.6c0-2.2-1.4-4.1-4-4.1-2.9 0-4.5 2.4-4.5 5.1v12.2h-4.3V8.6h3.1zm40.3-.3c5 0 7.8 2.3 7.8 7V25c0 .7.4.8 1 .8.3 0 1 0 1.6-.1v3.5c-.2.1-1.7.6-2.9.6-1.6 0-3.4-.7-3.4-2.7v-.4c-1 2.2-3.4 3.5-6.6 3.5-4.1 0-7.3-2.4-7.3-6.8 0-4.8 3.9-6.6 8.8-6.6 1.4 0 3.8.2 4.7.3v-1.2c0-3.3-2.1-4-4.5-4-1.7 0-4.5.4-6.4.9l-.8-3.1c1.7-.6 5-1.4 8-1.4zm-.4 11.6c-2.4 0-5.4.4-5.4 3.4 0 2.3 1.9 3.4 4.1 3.4 2.7 0 5.4-1.8 5.4-4.2v-2.2c-.7-.2-2.5-.4-4.1-.4z"/></svg>