<?xml version="1.0" encoding="utf-8"?>
<!-- Generator: Adobe Illustrator 23.0.3, SVG Export Plug-In . SVG Version: 6.00 Build 0)  -->
<svg version="1.1" id="U_Bank_Logo" xmlns="http://www.w3.org/2000/svg" xmlns:xlink="http://www.w3.org/1999/xlink" x="0px"
	 y="0px" viewBox="0 0 176.8 30.4" style="enable-background:new 0 0 176.8 30.4;" xml:space="preserve">
<style type="text/css">
	.st0{fill:#FFFFFF;}
	.st1{opacity:0.4;fill:#FFFFFF;enable-background:new    ;}
	.st2{opacity:0.4;fill:#FFFFFF;}
</style>
<path class="st0" d="M7801.9,28.9c-7.8,0-14.1-6.3-14.1-14.1V0.2h4v14.6c0,5.6,4.6,10.1,10.1,10.1s10.2-4.6,10.2-10.1h4
	C7816,22.5,7809.7,28.9,7801.9,28.9z"/>
<polygon class="st1" points="7819.9,4 7816,4 7816,0.2 7812,0.2 7812,4 7808.1,4 7808.1,8 7812,8 7812,11.9 7816,11.9 7816,8 
	7819.9,8 "/>
<path class="st0" d="M7849.1,2.4l-1.8,3.4c-0.5-0.2-3.6-1.7-7.4-1.7c-6.2,0-10.6,4.6-10.6,10.6c0,6.2,4.5,10.7,10.4,10.7
	c2.3,0,4.8-0.7,6.6-2.3v-5.5h-7.5v-3.7h11.7v11c-3.6,3.4-6.9,4.6-10.6,4.6c-8.9,0-15.4-6.6-15.4-14.7s6.7-14.8,15-14.8
	C7843.1,0,7846.6,0.9,7849.1,2.4z"/>
<path class="st0" d="M7865.7,7.4c6.2,0,11.1,4.6,11.1,11s-5,11-11.1,11s-11-4.6-11-11C7854.6,12,7859.6,7.4,7865.7,7.4z
	 M7859.2,18.4c0,4,2.7,7.1,6.5,7.1c3.7,0,6.5-3.1,6.5-7.1c0-4.1-2.7-7.1-6.5-7.1C7861.9,11.3,7859.2,14.3,7859.2,18.4z"/>
<path class="st0" d="M7883.3,7.7l5.2,16.4h0.1l5.3-16.4h4.6l-7.8,21.3h-4.3l-7.6-21.3C7878.8,7.7,7883.3,7.7,7883.3,7.7z"/>
<g>
	<path class="st0" d="M14,30.2C6.6,30.2,0.6,24,0.6,16.4V2.2h3.8v14.2c0,5.4,4.3,9.9,9.6,9.9s9.6-4.4,9.6-9.9h3.8
		C27.3,24,21.3,30.2,14,30.2z"/>
	<polygon class="st2" points="31,7 27.3,7 27.3,3.2 23.6,3.2 23.6,7 19.9,7 19.9,10.9 23.6,10.9 23.6,14.7 27.3,14.7 27.3,10.9 
		31,10.9 	"/>
	<g>
		<path class="st0" d="M50,1.3c4.5,0,8.3,4.2,8.3,8.8s-3.7,8.9-8.1,8.9h-7.7v10.7h-4.3V1.3H50z M42.4,14.8H50c2.1,0,3.9-2.4,3.9-4.7
			c0-3.2-2.5-4.6-5.2-4.6h-6.3V14.8z"/>
		<path class="st0" d="M66.5,0v11.6c0.7-1.1,2.6-3.3,6.2-3.3c4.2,0,7.7,2.6,7.7,9v12.6h-4.3V17.4c0-3.1-1.7-4.9-4.5-4.9
			c-3.6,0-5.2,2.9-5.2,5.6v11.7h-4.3V0H66.5z"/>
		<path class="st0" d="M94,8.3c5,0,7.8,2.3,7.8,7V25c0,0.7,0.4,0.8,1,0.8c0.3,0,1,0,1.6-0.1v3.5c-0.2,0.1-1.7,0.6-2.9,0.6
			c-1.6,0-3.4-0.7-3.4-2.7v-0.4c-1,2.2-3.4,3.5-6.6,3.5c-4.1,0-7.3-2.4-7.3-6.8c0-4.8,3.9-6.6,8.8-6.6c1.4,0,3.8,0.2,4.7,0.3v-1.2
			c0-3.3-2.1-4-4.5-4c-1.7,0-4.5,0.4-6.4,0.9l-0.8-3.1C87.7,9.1,91,8.3,94,8.3z M93.6,19.9c-2.4,0-5.4,0.4-5.4,3.4
			c0,2.3,1.9,3.4,4.1,3.4c2.7,0,5.4-1.8,5.4-4.2v-2.2C97,20.1,95.2,19.9,93.6,19.9z"/>
		<path class="st0" d="M111.4,8.8l0.6,3.6c1-2.5,2.8-3.7,6.5-3.7c0.1,0,0.3,0,0.4,0v4.1c-0.2,0-0.4,0-0.6,0c-3.2,0-6,1.3-6,6.1v10.9
			H108v-21H111.4z"/>
		<path class="st0" d="M126,8.6l0.7,3.3c0.9-2.3,3.7-3.6,5.8-3.6c2.8,0,5.2,1.7,6.2,4.1c0.9-2.2,3.8-4.1,6.2-4.1
			c5.1,0,7.9,2.8,7.9,8.5v13h-4.3v-13c0-2.4-1.3-4.3-4-4.3c-2.9,0-4.5,2.4-4.5,5.1v12.2h-4.3V16.6c0-2.2-1.4-4.1-4-4.1
			c-2.9,0-4.5,2.4-4.5,5.1v12.2h-4.3V8.6H126z"/>
		<path class="st0" d="M166.3,8.3c5,0,7.8,2.3,7.8,7V25c0,0.7,0.4,0.8,1,0.8c0.3,0,1,0,1.6-0.1v3.5c-0.2,0.1-1.7,0.6-2.9,0.6
			c-1.6,0-3.4-0.7-3.4-2.7v-0.4c-1,2.2-3.4,3.5-6.6,3.5c-4.1,0-7.3-2.4-7.3-6.8c0-4.8,3.9-6.6,8.8-6.6c1.4,0,3.8,0.2,4.7,0.3v-1.2
			c0-3.3-2.1-4-4.5-4c-1.7,0-4.5,0.4-6.4,0.9l-0.8-3.1C160,9.1,163.3,8.3,166.3,8.3z M165.9,19.9c-2.4,0-5.4,0.4-5.4,3.4
			c0,2.3,1.9,3.4,4.1,3.4c2.7,0,5.4-1.8,5.4-4.2v-2.2C169.3,20.1,167.5,19.9,165.9,19.9z"/>
	</g>
</g>
</svg>
