<svg width="1418" height="832" viewBox="0 0 1418 832" fill="none" xmlns="http://www.w3.org/2000/svg">
<g clip-path="url(#clip0_581_14026)">
<rect x="625.822" y="733.867" width="1056.71" height="137.956" fill="#850C2A"/>
<rect width="543.289" height="39.8222" transform="matrix(1 0 0 -1 421.022 716.8)" fill="#FFC6C6"/>
<rect width="531.911" height="54.0444" transform="matrix(1 0 0 -1 682.711 662.755)" fill="#D62752"/>
<rect width="531.911" height="31.2889" transform="matrix(1 0 0 -1 1146.36 716.8)" fill="#850C2A"/>
<rect width="603.022" height="73.9556" transform="matrix(1 0 0 -1 1048.22 382.578)" fill="#FFC6C6"/>
<rect width="369.778" height="22.7556" transform="matrix(1 0 0 -1 357.022 587.378)" fill="#D62752"/>
<rect width="416.711" height="39.8222" transform="matrix(1 0 0 -1 554.711 543.289)" fill="#FFC6C6"/>
<rect width="288.711" height="39.8222" transform="matrix(1 0 0 -1 603.067 382.578)" fill="#D62752"/>
<rect width="292.978" height="31.2889" transform="matrix(1 0 0 -1 395.422 484.978)" fill="#850C2A"/>
<rect width="292.978" height="31.2889" transform="matrix(1 0 0 -1 248.933 647.289)" fill="#EC0101"/>
<rect width="416.711" height="39.8222" transform="matrix(1 0 0 -1 729.645 445.156)" fill="#EC0101"/>
<rect width="416.711" height="98.1333" transform="matrix(1 0 0 -1 1065.29 576)" fill="#EC0101"/>
</g>
<defs>
<clipPath id="clip0_581_14026">
<rect width="1417.96" height="832" fill="white" transform="translate(0.0444336)"/>
</clipPath>
</defs>
</svg>
