<svg width="269" height="58" viewBox="0 0 269 58" fill="none" xmlns="http://www.w3.org/2000/svg">
<path d="M49.828 11.1424V46H44.5688V11.1424H49.828ZM62.1677 30.4775V46H57.0787V19.8568H61.9635V24.1119H62.2869C62.8883 22.7276 63.8301 21.6156 65.1123 20.7759C66.4058 19.9363 68.0341 19.5164 69.9971 19.5164C71.7785 19.5164 73.3387 19.8909 74.6777 20.6398C76.0166 21.3773 77.0548 22.478 77.7924 23.9417C78.5299 25.4054 78.8987 27.2153 78.8987 29.3712V46H73.8096V29.9839C73.8096 28.089 73.316 26.6082 72.3289 25.5416C71.3417 24.4637 69.9857 23.9247 68.261 23.9247C67.0809 23.9247 66.0314 24.18 65.1123 24.6906C64.2045 25.2012 63.484 25.9501 62.9507 26.9373C62.4287 27.9131 62.1677 29.0932 62.1677 30.4775ZM95.5105 46.5106C93.4 46.5106 91.5164 45.9716 89.8598 44.8937C88.2145 43.8044 86.9209 42.2555 85.9791 40.2471C85.0487 38.2274 84.5835 35.8048 84.5835 32.9795C84.5835 30.1541 85.0544 27.7372 85.9962 25.7288C86.9493 23.7204 88.2542 22.1829 89.9108 21.1163C91.5675 20.0497 93.4454 19.5164 95.5445 19.5164C97.1671 19.5164 98.472 19.7888 99.4592 20.3334C100.458 20.8667 101.229 21.4908 101.774 22.2056C102.33 22.9205 102.761 23.5502 103.068 24.0949H103.374V11.1424H108.463V46H103.493V41.9322H103.068C102.761 42.4881 102.319 43.1236 101.74 43.8384C101.173 44.5533 100.39 45.1774 99.3911 45.7107C98.3926 46.244 97.0991 46.5106 95.5105 46.5106ZM96.6338 42.1704C98.0976 42.1704 99.3344 41.7846 100.344 41.0131C101.365 40.2301 102.137 39.1465 102.659 37.7622C103.192 36.3779 103.459 34.7666 103.459 32.9284C103.459 31.1129 103.198 29.5244 102.676 28.1627C102.154 26.8011 101.388 25.7402 100.378 24.9799C99.3684 24.2197 98.1203 23.8396 96.6338 23.8396C95.102 23.8396 93.8255 24.2367 92.8043 25.031C91.7831 25.8253 91.0115 26.9089 90.4895 28.2819C89.9789 29.6548 89.7236 31.2037 89.7236 32.9284C89.7236 34.6758 89.9846 36.2474 90.5065 37.643C91.0285 39.0387 91.8001 40.145 92.8213 40.962C93.8539 41.7676 95.1247 42.1704 96.6338 42.1704ZM132.287 35.1581V19.8568H137.393V46H132.389V41.4726H132.117C131.516 42.8683 130.551 44.0313 129.223 44.9618C127.907 45.8809 126.268 46.3404 124.305 46.3404C122.625 46.3404 121.139 45.9716 119.845 45.2341C118.563 44.4852 117.553 43.3789 116.816 41.9151C116.089 40.4514 115.726 38.6416 115.726 36.4857V19.8568H120.815V35.8729C120.815 37.6544 121.309 39.0727 122.296 40.128C123.283 41.1833 124.566 41.7109 126.143 41.7109C127.096 41.7109 128.043 41.4726 128.985 40.996C129.938 40.5195 130.727 39.7989 131.351 38.8345C131.986 37.87 132.298 36.6445 132.287 35.1581ZM163.821 26.2394L159.209 27.0564C159.016 26.4664 158.71 25.9047 158.29 25.3714C157.881 24.8381 157.325 24.4012 156.622 24.0608C155.918 23.7204 155.039 23.5502 153.984 23.5502C152.543 23.5502 151.34 23.8736 150.375 24.5204C149.411 25.1558 148.929 25.9785 148.929 26.9883C148.929 27.862 149.252 28.5655 149.899 29.0989C150.546 29.6322 151.59 30.069 153.031 30.4094L157.184 31.3625C159.589 31.9185 161.382 32.7752 162.562 33.9326C163.742 35.09 164.332 36.5935 164.332 38.443C164.332 40.0089 163.878 41.4045 162.97 42.63C162.074 43.8441 160.82 44.7972 159.209 45.4894C157.609 46.1815 155.754 46.5276 153.643 46.5276C150.716 46.5276 148.327 45.9036 146.478 44.6554C144.628 43.3959 143.494 41.6088 143.074 39.294L147.993 38.5451C148.299 39.8273 148.929 40.7975 149.882 41.4556C150.835 42.1024 152.077 42.4257 153.609 42.4257C155.277 42.4257 156.611 42.0797 157.609 41.3875C158.608 40.684 159.107 39.8273 159.107 38.8174C159.107 38.0005 158.8 37.314 158.188 36.758C157.586 36.202 156.662 35.7822 155.413 35.4985L150.988 34.5283C148.549 33.9723 146.744 33.0873 145.576 31.8732C144.418 30.659 143.84 29.1215 143.84 27.2607C143.84 25.7175 144.271 24.3672 145.133 23.2098C145.996 22.0524 147.187 21.1504 148.707 20.5036C150.228 19.8455 151.97 19.5164 153.933 19.5164C156.758 19.5164 158.982 20.1292 160.605 21.3546C162.227 22.5687 163.299 24.197 163.821 26.2394ZM182.131 19.8568V23.9417H167.851V19.8568H182.131ZM171.681 13.5934H176.77V38.3238C176.77 39.311 176.917 40.0542 177.212 40.5535C177.507 41.0414 177.887 41.3762 178.353 41.5577C178.829 41.7279 179.345 41.813 179.901 41.813C180.31 41.813 180.667 41.7846 180.974 41.7279C181.28 41.6712 181.518 41.6258 181.688 41.5917L182.608 45.7958C182.313 45.9092 181.893 46.0227 181.348 46.1362C180.803 46.261 180.123 46.3291 179.306 46.3404C177.967 46.3631 176.719 46.1248 175.561 45.6256C174.404 45.1263 173.468 44.3547 172.753 43.3108C172.038 42.2669 171.681 40.9563 171.681 39.3791V13.5934ZM187.76 46V19.8568H192.679V24.0098H192.952C193.428 22.6028 194.268 21.4965 195.471 20.6908C196.685 19.8739 198.058 19.4654 199.59 19.4654C199.907 19.4654 200.282 19.4767 200.713 19.4994C201.155 19.5221 201.502 19.5505 201.751 19.5845V24.4523C201.547 24.3956 201.184 24.3332 200.662 24.2651C200.14 24.1857 199.618 24.1459 199.096 24.1459C197.893 24.1459 196.821 24.4012 195.879 24.9119C194.949 25.4111 194.211 26.109 193.667 27.0054C193.122 27.8904 192.85 28.9003 192.85 30.035V46H187.76ZM206.155 46V19.8568H211.244V46H206.155ZM208.725 15.823C207.84 15.823 207.08 15.528 206.445 14.938C205.82 14.3366 205.508 13.6217 205.508 12.7934C205.508 11.9537 205.82 11.2389 206.445 10.6489C207.08 10.0475 207.84 9.74678 208.725 9.74678C209.61 9.74678 210.365 10.0475 210.989 10.6489C211.624 11.2389 211.942 11.9537 211.942 12.7934C211.942 13.6217 211.624 14.3366 210.989 14.938C210.365 15.528 209.61 15.823 208.725 15.823ZM229.358 46.5276C226.782 46.5276 224.564 45.9773 222.703 44.8767C220.854 43.7647 219.424 42.2045 218.414 40.1961C217.415 38.1763 216.916 35.8105 216.916 33.0986C216.916 30.4208 217.415 28.0606 218.414 26.0182C219.424 23.9757 220.831 22.3815 222.635 21.2355C224.451 20.0894 226.572 19.5164 229.001 19.5164C230.476 19.5164 231.905 19.7604 233.29 20.2483C234.674 20.7362 235.917 21.5021 237.017 22.546C238.118 23.5899 238.986 24.9459 239.621 26.6139C240.257 28.2705 240.574 30.2846 240.574 32.6561V34.4602H219.793V30.6477H235.587C235.587 29.3088 235.315 28.123 234.771 27.0905C234.226 26.0465 233.46 25.2239 232.473 24.6225C231.497 24.0211 230.351 23.7204 229.035 23.7204C227.605 23.7204 226.357 24.0722 225.29 24.7757C224.235 25.4679 223.418 26.3756 222.839 27.4989C222.272 28.6109 221.988 29.8194 221.988 31.1243V34.1028C221.988 35.8502 222.295 37.3367 222.907 38.5621C223.531 39.7876 224.399 40.7237 225.511 41.3705C226.623 42.0059 227.923 42.3236 229.409 42.3236C230.374 42.3236 231.253 42.1875 232.047 41.9151C232.842 41.6315 233.528 41.2116 234.107 40.6556C234.685 40.0996 235.128 39.4131 235.434 38.5962L240.251 39.4642C239.865 40.8826 239.173 42.125 238.175 43.1917C237.187 44.2469 235.945 45.0696 234.447 45.6596C232.961 46.2383 231.264 46.5276 229.358 46.5276ZM265.811 26.2394L261.199 27.0564C261.006 26.4664 260.7 25.9047 260.28 25.3714C259.871 24.8381 259.315 24.4012 258.612 24.0608C257.908 23.7204 257.029 23.5502 255.974 23.5502C254.533 23.5502 253.33 23.8736 252.365 24.5204C251.401 25.1558 250.919 25.9785 250.919 26.9883C250.919 27.862 251.242 28.5655 251.889 29.0989C252.535 29.6322 253.579 30.069 255.02 30.4094L259.173 31.3625C261.579 31.9185 263.372 32.7752 264.552 33.9326C265.732 35.09 266.322 36.5935 266.322 38.443C266.322 40.0089 265.868 41.4045 264.96 42.63C264.064 43.8441 262.81 44.7972 261.199 45.4894C259.599 46.1815 257.744 46.5276 255.633 46.5276C252.706 46.5276 250.317 45.9036 248.468 44.6554C246.618 43.3959 245.483 41.6088 245.064 39.294L249.982 38.5451C250.289 39.8273 250.919 40.7975 251.872 41.4556C252.825 42.1024 254.067 42.4257 255.599 42.4257C257.267 42.4257 258.6 42.0797 259.599 41.3875C260.597 40.684 261.097 39.8273 261.097 38.8174C261.097 38.0005 260.79 37.314 260.178 36.758C259.576 36.202 258.651 35.7822 257.403 35.4985L252.978 34.5283C250.538 33.9723 248.734 33.0873 247.566 31.8732C246.408 30.659 245.829 29.1215 245.829 27.2607C245.829 25.7175 246.261 24.3672 247.123 23.2098C247.985 22.0524 249.177 21.1504 250.697 20.5036C252.218 19.8455 253.959 19.5164 255.922 19.5164C258.748 19.5164 260.972 20.1292 262.594 21.3546C264.217 22.5687 265.289 24.197 265.811 26.2394Z" fill="#471111"/>
<path fill-rule="evenodd" clip-rule="evenodd" d="M4.79291 13.1807H0V29.9559H0.00097659C0.00150434 39.2201 7.51182 46.7301 16.7762 46.7301C26.0409 46.7301 33.5514 39.2196 33.5514 29.9549V29.9548H28.7585V29.9549C28.7585 36.5726 23.3939 41.9372 16.7762 41.9372C10.1586 41.9372 4.79395 36.5726 4.79395 29.9549V29.9548H4.79291V13.1807Z" fill="#471111"/>
<path fill-rule="evenodd" clip-rule="evenodd" d="M33.5498 13.1807H28.7569V17.374H24.5636L24.5636 22.1669H28.7569V26.3612H33.5498V22.1669H37.7441V17.374H33.5498V13.1807Z" fill="#CA0000"/>
</svg>
