<?xml version="1.0" encoding="utf-8"?>
<!-- Generator: Adobe Illustrator 23.0.3, SVG Export Plug-In . SVG Version: 6.00 Build 0)  -->
<svg version="1.1" id="Layer_1" xmlns="http://www.w3.org/2000/svg" xmlns:xlink="http://www.w3.org/1999/xlink" x="0px" y="0px"
	 viewBox="0 0 224.4 38.7" style="enable-background:new 0 0 224.4 38.7;" xml:space="preserve">
<style type="text/css">
	.st0{fill:#FFFFFF;}
	.st1{opacity:0.4;fill:#FFFFFF;}
</style>
<path class="st0" d="M17.4,32c-7.3,0-13.3-6-13.3-13.3V5h3.8v13.7c0,5.3,4.3,9.5,9.5,9.5s9.5-4.3,9.5-9.5h3.8
	C30.7,26,24.7,32,17.4,32z"/>
<polygon class="st1" points="34.3,8.7 30.7,8.7 30.7,5 26.9,5 26.9,8.7 23.3,8.7 23.3,12.4 26.9,12.4 26.9,16.1 30.7,16.1 
	30.7,12.4 34.3,12.4 "/>
<g>
	<path class="st0" d="M45.7,4.7v27.5h-4.3V4.7H45.7z"/>
	<path class="st0" d="M55.2,11.8l0.7,3.5c0.1-0.4,2-3.8,6.5-3.8c4.2,0,7.7,2.5,7.7,8.6v12.1h-4.3v-12c0-3-1.7-4.7-4.4-4.7
		c-3.4,0-5.1,2.8-5.1,5.4v11.3h-4.3V11.8H55.2z"/>
	<path class="st0" d="M95,3.5v28.8h-3.5L91,29.2c-1.3,2.5-3.9,3.4-6.6,3.4c-6.1,0-10-4.8-10-10.6c0-5.7,3.7-10.6,10-10.6
		c1.8,0,4.5,0.4,6.3,2.9V3.5H95z M78.7,22c0,4.1,2.6,6.8,6.1,6.8c3.6,0,6.3-2.9,6.3-6.8c0-3.8-2.6-6.8-6.3-6.8
		C81.3,15.2,78.7,17.9,78.7,22z"/>
	<path class="st0" d="M104.6,11.8v12c0,3,1.4,4.7,4.5,4.7c3.5,0,5.1-2,5.1-4.6V11.8h4.3v20.4h-3.3l-0.5-3c-1.3,2.2-3.2,3.3-6.6,3.3
		c-5.1,0-7.8-3.1-7.8-8.5V11.8H104.6z"/>
	<path class="st0" d="M123,30.8l1.3-3.1c1.1,0.5,3.5,1.4,5.9,1.4c3.1,0,4.3-1.1,4.3-2.5c0-4-11.4-1.7-11.4-9.2c0-3.7,2.9-6,7.6-6
		c2.9,0,5.7,0.9,7,1.5l-1.3,3c0,0-2.7-1.2-5.4-1.2c-2.6,0-3.9,1.1-3.9,2.5c0,4,11.4,1.7,11.4,9.2c0,3.8-3.1,6-8.1,6
		C126.7,32.6,124.1,31.4,123,30.8z"/>
	<path class="st0" d="M148.1,5.9v5.9h4.7v3.1h-4.7v10.7c0,1.8,0.7,3,2.6,3c0.7,0,1.6-0.1,2.5-0.2l0.6,3c-1.1,0.4-2.5,0.8-3.8,0.8
		c-4.6,0-6.1-2.3-6.1-7V14.9H141v-2.6l2.9-0.5l0.7-5.9H148.1z"/>
	<path class="st0" d="M160.6,12l0.6,3.5c1-2.4,2.7-3.6,6.4-3.6c0.1,0,0.3,0,0.4,0v3.9c-0.2,0-0.4,0-0.6,0c-3.2,0-5.9,1.2-5.9,5.9
		v10.6h-4.3V12H160.6z"/>
	<path class="st0" d="M176.7,11.8v20.4h-4.2V15.5l-2.3-0.7v-3H176.7z M176.8,6.2c0,1.4-1.2,2.6-2.6,2.6c-1.5,0-2.5-1.1-2.5-2.6
		c0-1.4,1.1-2.6,2.5-2.6C175.6,3.7,176.8,4.8,176.8,6.2z"/>
	<path class="st0" d="M191.2,11.4c6.2,0,9.3,5.1,9.3,10.4c0,1.2-0.2,1.9-0.2,1.9h-14.9c0.2,3.4,3.1,5.3,6.3,5.3c2.2,0,4.4-0.7,6-1.4
		l1.5,3.1c-1.8,1-4.7,1.8-7.5,1.8c-6.2,0-10.6-4.4-10.6-10.4C181.1,16.1,185.3,11.4,191.2,11.4z M196.6,20.5
		c-0.1-2.7-1.5-5.3-5.1-5.3c-3.2,0-5.6,2.1-6,5.3H196.6z"/>
	<path class="st0" d="M203.6,30.8l1.3-3.1c1.1,0.5,3.5,1.4,5.9,1.4c3.1,0,4.3-1.1,4.3-2.5c0-4-11.4-1.7-11.4-9.2c0-3.7,2.9-6,7.6-6
		c2.9,0,5.7,0.9,7,1.5l-1.3,3c0,0-2.7-1.2-5.4-1.2c-2.6,0-3.9,1.1-3.9,2.5c0,4,11.4,1.7,11.4,9.2c0,3.8-3.1,6-8.1,6
		C207.4,32.6,204.7,31.4,203.6,30.8z"/>
</g>
</svg>
