<?xml version="1.0" encoding="utf-8"?>
<!-- Generator: Adobe Illustrator 23.0.1, SVG Export Plug-In . SVG Version: 6.00 Build 0)  -->
<svg version="1.1" id="U_Bank_Logo" xmlns="http://www.w3.org/2000/svg" xmlns:xlink="http://www.w3.org/1999/xlink" x="0px"
	 y="0px" viewBox="0 0 215.4 30.4" style="enable-background:new 0 0 215.4 30.4;" xml:space="preserve">
<style type="text/css">
	.st0{fill:#FFFFFF;}
	.st1{opacity:0.4;fill:#FFFFFF;}
</style>
<path class="st0" d="M7801.9,28.9c-7.8,0-14.1-6.3-14.1-14.1V0.2h4v14.6c0,5.6,4.6,10.1,10.1,10.1s10.2-4.6,10.2-10.1h4
	C7816,22.5,7809.7,28.9,7801.9,28.9z"/>
<polygon class="st1" points="7819.9,4 7816,4 7816,0.2 7812,0.2 7812,4 7808.1,4 7808.1,8 7812,8 7812,11.9 7816,11.9 7816,8 
	7819.9,8 "/>
<path class="st0" d="M7849.1,2.4l-1.8,3.4c-0.5-0.2-3.6-1.7-7.4-1.7c-6.2,0-10.6,4.6-10.6,10.6c0,6.2,4.5,10.7,10.4,10.7
	c2.3,0,4.8-0.7,6.6-2.3v-5.5h-7.5v-3.7h11.7v11c-3.6,3.4-6.9,4.6-10.6,4.6c-8.9,0-15.4-6.6-15.4-14.7c0-8.1,6.7-14.8,15-14.8
	C7843.1,0,7846.6,0.9,7849.1,2.4z"/>
<path class="st0" d="M7865.7,7.4c6.2,0,11.1,4.6,11.1,11c0,6.4-5,11-11.1,11c-6.1,0-11-4.6-11-11C7854.6,12,7859.6,7.4,7865.7,7.4z
	 M7859.2,18.4c0,4,2.7,7.1,6.5,7.1c3.7,0,6.5-3.1,6.5-7.1c0-4.1-2.7-7.1-6.5-7.1C7861.9,11.3,7859.2,14.3,7859.2,18.4z"/>
<path class="st0" d="M7883.3,7.7l5.2,16.4h0.1l5.3-16.4h4.6l-7.8,21.3h-4.3l-7.6-21.3H7883.3z"/>
<path class="st0" d="M13.9,29.8C6.2,29.8,0,23.6,0,15.9V1.6h3.9v14.3c0,5.5,4.5,9.9,9.9,9.9s9.9-4.5,9.9-9.9h3.9
	C27.7,23.6,21.5,29.8,13.9,29.8z"/>
<polygon class="st1" points="31.5,5.4 27.7,5.4 27.7,1.6 23.8,1.6 23.8,5.4 20,5.4 20,9.3 23.8,9.3 23.8,13.1 27.7,13.1 27.7,9.3 
	31.5,9.3 "/>
<g>
	<path class="st0" d="M37.2,27.9l1.6-3.6c1.3,0.7,4.7,2.1,8.6,2.1c3.9,0,6.3-1.4,6.3-3.9c0-6.4-16.2-2.8-16.2-13.4
		c0-5.1,3.8-8.2,10.1-8.2c4,0,7.6,1.3,9.3,2l-1.6,3.6c0,0-3.7-1.6-7.5-1.6c-3.5,0-5.9,1.3-5.9,3.8c0,6.4,16.2,3.2,16.2,13.4
		c0,5.2-4.1,8.2-10.7,8.2C42.5,30.4,38.6,28.6,37.2,27.9z"/>
	<path class="st0" d="M72.6,8.3c6.1,0,11.1,4.6,11.1,11s-5,11-11.1,11c-6.1,0-11-4.6-11-11C61.5,13,66.5,8.3,72.6,8.3z M66.1,19.4
		c0,4,2.7,7.1,6.5,7.1c3.7,0,6.5-3.1,6.5-7.1c0-4.1-2.7-7.1-6.5-7.1C68.8,12.2,66.1,15.3,66.1,19.4z"/>
	<path class="st0" d="M92.7,0v25.2c0,0.7,0.4,0.9,0.9,0.9c0.6,0,1.1,0,1.8-0.1v3.5c-0.2,0.1-2.1,0.6-3.5,0.6c-2.6,0-3.6-1.9-3.6-3.8
		V0H92.7z"/>
	<path class="st0" d="M103.8,8.7v12.5c0,3.2,1.5,4.9,4.7,4.9c3.6,0,5.4-2.1,5.4-4.8V8.7h4.5V30h-3.4l-0.6-3.1
		c-1.3,2.3-3.4,3.5-6.8,3.5c-5.3,0-8.1-3.2-8.1-8.9V8.7H103.8z"/>
	<path class="st0" d="M129.8,2.5v6.1h4.9V12h-4.9v11.2c0,1.8,0.7,3.2,2.7,3.2c0.7,0,1.6-0.1,2.6-0.2l0.7,3.2c-1.1,0.5-2.6,0.8-4,0.8
		c-4.8,0-6.4-2.4-6.4-7.3V12h-3V9.3l3-0.6l0.7-6.2H129.8z"/>
	<path class="st0" d="M144.5,8.7V30h-4.3V12.6l-2.4-0.8V8.7H144.5z M144.5,2.9c0,1.5-1.3,2.7-2.7,2.7c-1.5,0-2.6-1.2-2.6-2.7
		c0-1.4,1.1-2.7,2.6-2.7C143.3,0.2,144.5,1.4,144.5,2.9z"/>
	<path class="st0" d="M160,8.3c6.1,0,11.1,4.6,11.1,11s-5,11-11.1,11c-6.1,0-11-4.6-11-11C149,13,153.9,8.3,160,8.3z M153.6,19.4
		c0,4,2.7,7.1,6.5,7.1c3.7,0,6.5-3.1,6.5-7.1c0-4.1-2.7-7.1-6.5-7.1C156.3,12.2,153.6,15.3,153.6,19.4z"/>
	<path class="st0" d="M179.1,8.7l0.7,3.6c0.1-0.5,2.1-4,6.8-4c4.3,0,8,2.6,8,9V30h-4.5V17.5c0-3.1-1.8-4.9-4.6-4.9
		c-3.6,0-5.4,2.9-5.4,5.7V30h-4.5V8.7H179.1z"/>
	<path class="st0" d="M199.1,28.5l1.4-3.2c1.2,0.6,3.6,1.5,6.2,1.5c3.2,0,4.5-1.2,4.5-2.6c0-4.2-11.9-1.8-11.9-9.6
		c0-3.8,3-6.2,7.9-6.2c3.1,0,5.9,0.9,7.3,1.6l-1.4,3.2c0,0-2.8-1.2-5.7-1.2c-2.7,0-4.1,1.1-4.1,2.6c0,4.2,11.9,1.8,11.9,9.6
		c0,3.9-3.2,6.3-8.4,6.3C203,30.4,200.3,29.1,199.1,28.5z"/>
</g>
</svg>
