<svg width="150" height="58" viewBox="0 0 150 58" fill="none" xmlns="http://www.w3.org/2000/svg">
<path d="M47.5133 46H41.9307L54.4746 11.1424H60.5509L73.0948 46H67.5122L57.6574 17.474H57.3851L47.5133 46ZM48.4495 32.3497H66.559V36.775H48.4495V32.3497ZM94.2808 35.1581V19.8568H99.3869V46H94.383V41.4726H94.1106C93.5093 42.8683 92.5448 44.0313 91.2172 44.9618C89.901 45.8809 88.2613 46.3404 86.2983 46.3404C84.619 46.3404 83.1326 45.9716 81.839 45.2341C80.5568 44.4852 79.5469 43.3789 78.8094 41.9151C78.0832 40.4514 77.7201 38.6416 77.7201 36.4857V19.8568H82.8092V35.8729C82.8092 37.6544 83.3028 39.0727 84.2899 40.128C85.2771 41.1833 86.5593 41.7109 88.1365 41.7109C89.0897 41.7109 90.0371 41.4726 90.9789 40.996C91.932 40.5195 92.7206 39.7989 93.3447 38.8345C93.9801 37.87 94.2922 36.6445 94.2808 35.1581ZM118.428 19.8568V23.9417H104.148V19.8568H118.428ZM107.978 13.5934H113.067V38.3238C113.067 39.311 113.214 40.0542 113.51 40.5535C113.805 41.0414 114.185 41.3762 114.65 41.5577C115.126 41.7279 115.643 41.813 116.199 41.813C116.607 41.813 116.965 41.7846 117.271 41.7279C117.577 41.6712 117.816 41.6258 117.986 41.5917L118.905 45.7958C118.61 45.9092 118.19 46.0227 117.645 46.1362C117.101 46.261 116.42 46.3291 115.603 46.3404C114.264 46.3631 113.016 46.1248 111.859 45.6256C110.701 45.1263 109.765 44.3547 109.05 43.3108C108.335 42.2669 107.978 40.9563 107.978 39.3791V13.5934ZM134.789 46.5276C132.338 46.5276 130.199 45.966 128.372 44.8426C126.546 43.7193 125.127 42.1477 124.117 40.128C123.108 38.1083 122.603 35.7481 122.603 33.0476C122.603 30.3357 123.108 27.9642 124.117 25.9331C125.127 23.902 126.546 22.3248 128.372 21.2014C130.199 20.0781 132.338 19.5164 134.789 19.5164C137.24 19.5164 139.379 20.0781 141.206 21.2014C143.033 22.3248 144.451 23.902 145.461 25.9331C146.471 27.9642 146.976 30.3357 146.976 33.0476C146.976 35.7481 146.471 38.1083 145.461 40.128C144.451 42.1477 143.033 43.7193 141.206 44.8426C139.379 45.966 137.24 46.5276 134.789 46.5276ZM134.806 42.2555C136.395 42.2555 137.711 41.8357 138.755 40.996C139.799 40.1564 140.57 39.0387 141.07 37.643C141.58 36.2474 141.836 34.7099 141.836 33.0305C141.836 31.3625 141.58 29.8307 141.07 28.4351C140.57 27.028 139.799 25.899 138.755 25.048C137.711 24.197 136.395 23.7715 134.806 23.7715C133.206 23.7715 131.879 24.197 130.823 25.048C129.779 25.899 129.002 27.028 128.492 28.4351C127.992 29.8307 127.743 31.3625 127.743 33.0305C127.743 34.7099 127.992 36.2474 128.492 37.643C129.002 39.0387 129.779 40.1564 130.823 40.996C131.879 41.8357 133.206 42.2555 134.806 42.2555Z" fill="#471111"/>
<path fill-rule="evenodd" clip-rule="evenodd" d="M4.79291 13.1807H0V29.9559H0.00097659C0.00150434 39.2201 7.51182 46.7301 16.7762 46.7301C26.0409 46.7301 33.5514 39.2196 33.5514 29.9549V29.9548H28.7585V29.9549C28.7585 36.5726 23.3939 41.9372 16.7762 41.9372C10.1586 41.9372 4.79395 36.5726 4.79395 29.9549V29.9548H4.79291V13.1807Z" fill="#471111"/>
<path fill-rule="evenodd" clip-rule="evenodd" d="M33.5497 13.1807H28.7568V17.374H24.5635L24.5635 22.1669H28.7568V26.3612H33.5497V22.1669H37.744V17.374H33.5497V13.1807Z" fill="#CA0000"/>
</svg>
