<svg width="960" height="525" viewBox="0 0 960 525" fill="none" xmlns="http://www.w3.org/2000/svg">
<g clip-path="url(#clip0_484_18738)">
<path d="M600 420H908.558L1028 668H719.442L600 420Z" fill="#73B1EA"/>
<path d="M598 77L863.302 77L966 291H700.698L598 77Z" fill="#056BC8"/>
<path d="M774 219H898L946 319H822L774 219Z" fill="#73B1EA"/>
<path d="M536 251H655.674L702 348H582.326L536 251Z" fill="#C9F3FF"/>
<path d="M635 380H844.07L925 548H715.93L635 380Z" fill="#056BC8"/>
<path d="M531 167H604.535L633 227H559.465L531 167Z" fill="#056BC8"/>
<path d="M236 206H428.488L503 361H310.512L236 206Z" fill="#58B3E5"/>
<path d="M379 109H461.907L494 176H411.093L379 109Z" fill="#C9F3FF"/>
<path d="M312 476H530.442L615 653H396.558L312 476Z" fill="#58B3E5"/>
<path d="M144 150H250.698L292 236H185.302L144 150Z" fill="#C9F3FF"/>
<path d="M207.814 398H352L407.814 514H263.628L207.814 398Z" fill="#C9F3FF"/>
<path d="M236 291H300.884L326 343H261.116L236 291Z" fill="#056BC8"/>
<path d="M89 265H153.884L179 317H114.116L89 265Z" fill="#73B1EA"/>
<path d="M35 83H99.8837L125 135H60.1163L35 83Z" fill="#056BC8"/>
<path d="M386 338H510L558 438H434L386 338Z" fill="#056BC8"/>
</g>
<defs>
<clipPath id="clip0_484_18738">
<rect width="960" height="625" fill="white"/>
</clipPath>
</defs>
</svg>
