<svg version="1.1" id="U_Bank_Logo" xmlns="http://www.w3.org/2000/svg" x="0" y="0" viewBox="0 0 110.7 30.4" xml:space="preserve"><style>.st0,.st1{fill:#fff}.st1{opacity:.4}</style><path class="st0" d="M7801.9 28.9c-7.8 0-14.1-6.3-14.1-14.1V.2h4v14.6c0 5.6 4.6 10.1 10.1 10.1s10.2-4.6 10.2-10.1h4c-.1 7.7-6.4 14.1-14.2 14.1z"/><path class="st1" d="M7819.9 4h-3.9V.2h-4V4h-3.9v4h3.9v3.9h4V8h3.9z"/><path class="st0" d="M7849.1 2.4l-1.8 3.4c-.5-.2-3.6-1.7-7.4-1.7-6.2 0-10.6 4.6-10.6 10.6 0 6.2 4.5 10.7 10.4 10.7 2.3 0 4.8-.7 6.6-2.3v-5.5h-7.5v-3.7h11.7v11c-3.6 3.4-6.9 4.6-10.6 4.6-8.9 0-15.4-6.6-15.4-14.7s6.7-14.8 15-14.8c3.6 0 7.1.9 9.6 2.4zm16.6 5c6.2 0 11.1 4.6 11.1 11s-5 11-11.1 11-11-4.6-11-11c-.1-6.4 4.9-11 11-11zm-6.5 11c0 4 2.7 7.1 6.5 7.1 3.7 0 6.5-3.1 6.5-7.1 0-4.1-2.7-7.1-6.5-7.1s-6.5 3-6.5 7.1zm24.1-10.7l5.2 16.4h.1l5.3-16.4h4.6l-7.8 21.3h-4.3l-7.6-21.3h4.5zM14.1 28.9C6.3 28.9 0 22.5 0 14.7V.2h4v14.6c0 5.6 4.6 10.1 10.1 10.1s10.2-4.6 10.2-10.1h4c0 7.7-6.3 14.1-14.2 14.1z"/><path class="st1" d="M32.2 4h-3.9V.2h-4V4h-3.9v4h3.9v3.9h4V8h3.9z"/><path class="st0" d="M61.4 2.4l-1.8 3.4c-.5-.2-3.6-1.7-7.4-1.7-6.2 0-10.6 4.6-10.6 10.6 0 6.2 4.5 10.7 10.4 10.7 2.3 0 4.8-.7 6.6-2.3v-5.5h-7.5v-3.7h11.7v11c-3.6 3.4-6.9 4.6-10.6 4.6-8.9 0-15.4-6.6-15.4-14.7S43.5 0 51.8 0c3.6 0 7.1.9 9.6 2.4zm16.6 5c6.2 0 11.1 4.6 11.1 11s-5 11-11.1 11-11-4.6-11-11c-.1-6.4 4.9-11 11-11zm-6.5 11c0 4 2.7 7.1 6.5 7.1 3.7 0 6.5-3.1 6.5-7.1 0-4.1-2.7-7.1-6.5-7.1s-6.5 3-6.5 7.1zM95.6 7.7l5.2 16.4h.1l5.3-16.4h4.6L103 29h-4.3L91 7.7h4.6z"/></svg>