<?xml version="1.0" encoding="utf-8"?>
<!-- Generator: Adobe Illustrator 23.0.1, SVG Export Plug-In . SVG Version: 6.00 Build 0)  -->
<svg version="1.1" id="U_Bank_Logo" xmlns="http://www.w3.org/2000/svg" xmlns:xlink="http://www.w3.org/1999/xlink" x="0px"
	 y="0px" viewBox="0 0 110.7 30.4" style="enable-background:new 0 0 110.7 30.4;" xml:space="preserve">
<style type="text/css">
	.st0{fill:#FFFFFF;}
	.st1{opacity:0.4;fill:#FFFFFF;}
</style>
<path class="st0" d="M7801.9,28.9c-7.8,0-14.1-6.3-14.1-14.1V0.2h4v14.6c0,5.6,4.6,10.1,10.1,10.1s10.2-4.6,10.2-10.1h4
	C7816,22.5,7809.7,28.9,7801.9,28.9z"/>
<polygon class="st1" points="7819.9,4 7816,4 7816,0.2 7812,0.2 7812,4 7808.1,4 7808.1,8 7812,8 7812,11.9 7816,11.9 7816,8 
	7819.9,8 "/>
<path class="st0" d="M7849.1,2.4l-1.8,3.4c-0.5-0.2-3.6-1.7-7.4-1.7c-6.2,0-10.6,4.6-10.6,10.6c0,6.2,4.5,10.7,10.4,10.7
	c2.3,0,4.8-0.7,6.6-2.3v-5.5h-7.5v-3.7h11.7v11c-3.6,3.4-6.9,4.6-10.6,4.6c-8.9,0-15.4-6.6-15.4-14.7c0-8.1,6.7-14.8,15-14.8
	C7843.1,0,7846.6,0.9,7849.1,2.4z"/>
<path class="st0" d="M7865.7,7.4c6.2,0,11.1,4.6,11.1,11c0,6.4-5,11-11.1,11c-6.1,0-11-4.6-11-11C7854.6,12,7859.6,7.4,7865.7,7.4z
	 M7859.2,18.4c0,4,2.7,7.1,6.5,7.1c3.7,0,6.5-3.1,6.5-7.1c0-4.1-2.7-7.1-6.5-7.1C7861.9,11.3,7859.2,14.3,7859.2,18.4z"/>
<path class="st0" d="M7883.3,7.7l5.2,16.4h0.1l5.3-16.4h4.6l-7.8,21.3h-4.3l-7.6-21.3H7883.3z"/>
<g>
	<path class="st0" d="M14.1,28.9C6.3,28.9,0,22.5,0,14.7V0.2h4v14.6c0,5.6,4.6,10.1,10.1,10.1s10.2-4.6,10.2-10.1h4
		C28.3,22.5,22,28.9,14.1,28.9z"/>
	<polygon class="st1" points="32.2,4 28.3,4 28.3,0.2 24.3,0.2 24.3,4 20.4,4 20.4,8 24.3,8 24.3,11.9 28.3,11.9 28.3,8 32.2,8 	"/>
	<path class="st0" d="M61.4,2.4l-1.8,3.4c-0.5-0.2-3.6-1.7-7.4-1.7c-6.2,0-10.6,4.6-10.6,10.6c0,6.2,4.5,10.7,10.4,10.7
		c2.3,0,4.8-0.7,6.6-2.3v-5.5h-7.5v-3.7h11.7v11c-3.6,3.4-6.9,4.6-10.6,4.6c-8.9,0-15.4-6.6-15.4-14.7c0-8.1,6.7-14.8,15-14.8
		C55.4,0,58.9,0.9,61.4,2.4z"/>
	<path class="st0" d="M78,7.4c6.2,0,11.1,4.6,11.1,11c0,6.4-5,11-11.1,11c-6.1,0-11-4.6-11-11C66.9,12,71.9,7.4,78,7.4z M71.5,18.4
		c0,4,2.7,7.1,6.5,7.1c3.7,0,6.5-3.1,6.5-7.1c0-4.1-2.7-7.1-6.5-7.1C74.2,11.3,71.5,14.3,71.5,18.4z"/>
	<path class="st0" d="M95.6,7.7l5.2,16.4h0.1l5.3-16.4h4.6l-7.8,21.3h-4.3L91,7.7H95.6z"/>
</g>
</svg>
