<svg width="908" height="485" viewBox="0 0 900 485" fill="none" xmlns="http://www.w3.org/2000/svg">
<path fill-rule="evenodd" clip-rule="evenodd" d="M997.179 0.310059L934.853 36.8417L997.179 73.3755V0.310059Z" fill="#D62752"/>
<path fill-rule="evenodd" clip-rule="evenodd" d="M186.971 109.909L124.649 73.3754V146.445L186.971 109.909Z" fill="#EC0101"/>
<path fill-rule="evenodd" clip-rule="evenodd" d="M186.972 182.981L249.296 146.445L186.972 109.909V182.981Z" fill="#D62752"/>
<path fill-rule="evenodd" clip-rule="evenodd" d="M186.971 36.8417L124.649 73.3754L186.971 109.909V36.8417Z" fill="#FFC6C6"/>
<path fill-rule="evenodd" clip-rule="evenodd" d="M186.971 109.909L124.649 146.445L186.971 182.981V109.909Z" fill="#D62752"/>
<path fill-rule="evenodd" clip-rule="evenodd" d="M249.296 146.445V73.3754L186.972 109.909L249.296 146.445Z" fill="#D62752"/>
<path fill-rule="evenodd" clip-rule="evenodd" d="M62.3219 109.911L0.00195312 146.447L62.3219 182.981V109.911Z" fill="#D62752"/>
<path fill-rule="evenodd" clip-rule="evenodd" d="M124.649 146.447V73.3754L62.3223 109.911L124.649 146.447Z" fill="#EC0101"/>
<path fill-rule="evenodd" clip-rule="evenodd" d="M124.649 73.3754L62.3223 36.8417V109.909L124.649 73.3754Z" fill="#FFC6C6"/>
<path fill-rule="evenodd" clip-rule="evenodd" d="M311.616 109.909L373.943 146.447V73.3754L311.616 109.909Z" fill="#D62752"/>
<path fill-rule="evenodd" clip-rule="evenodd" d="M311.618 36.8417L249.296 73.3754L311.618 109.909V36.8417Z" fill="#EC0101"/>
<path fill-rule="evenodd" clip-rule="evenodd" d="M311.616 182.981L373.943 146.447L311.616 109.911V182.981Z" fill="#D62752"/>
<path fill-rule="evenodd" clip-rule="evenodd" d="M311.616 109.909L373.943 73.3754L311.616 36.8417V109.909Z" fill="#EC0101"/>
<path fill-rule="evenodd" clip-rule="evenodd" d="M249.296 73.3754V146.447L311.618 109.909L249.296 73.3754Z" fill="#FFC6C6"/>
<path fill-rule="evenodd" clip-rule="evenodd" d="M249.296 146.447L311.618 182.981V109.911L249.296 146.447Z" fill="#D62752"/>
<path fill-rule="evenodd" clip-rule="evenodd" d="M560.911 109.911L498.589 73.3754V146.447L560.911 109.911Z" fill="#FFC6C6"/>
<path fill-rule="evenodd" clip-rule="evenodd" d="M560.911 182.981L623.235 146.447L560.911 109.911V182.981Z" fill="#850C2A"/>
<path fill-rule="evenodd" clip-rule="evenodd" d="M560.911 109.911L498.589 146.447L560.911 182.981V109.911Z" fill="#850C2A"/>
<path fill-rule="evenodd" clip-rule="evenodd" d="M623.235 146.447V73.3754L560.911 109.911L623.235 146.447Z" fill="#EC0101"/>
<path fill-rule="evenodd" clip-rule="evenodd" d="M436.262 109.911L373.942 73.3754V146.447L436.262 109.911Z" fill="#FFC6C6"/>
<path fill-rule="evenodd" clip-rule="evenodd" d="M436.262 36.8417L373.942 73.3754L436.262 109.909V36.8417Z" fill="#FFC6C6"/>
<path fill-rule="evenodd" clip-rule="evenodd" d="M436.262 109.911L373.942 146.447L436.262 182.981V109.911Z" fill="#D62752"/>
<path fill-rule="evenodd" clip-rule="evenodd" d="M498.589 146.447V73.3754L436.263 109.911L498.589 146.447Z" fill="#EC0101"/>
<path fill-rule="evenodd" clip-rule="evenodd" d="M685.558 109.909L623.236 73.3754V146.445L685.558 109.909Z" fill="#EC0101"/>
<path fill-rule="evenodd" clip-rule="evenodd" d="M685.558 182.981L747.882 146.445L685.558 109.909V182.981Z" fill="#D62752"/>
<path fill-rule="evenodd" clip-rule="evenodd" d="M685.558 109.909L623.236 146.445L685.558 182.981V109.909Z" fill="#D62752"/>
<path fill-rule="evenodd" clip-rule="evenodd" d="M747.882 146.445V73.3754L685.558 109.909L747.882 146.445Z" fill="#D62752"/>
<path fill-rule="evenodd" clip-rule="evenodd" d="M934.849 109.911L872.527 73.3754V146.447L934.849 109.911Z" fill="#D62752"/>
<path fill-rule="evenodd" clip-rule="evenodd" d="M934.849 36.8417L872.527 73.3754L934.849 109.909V36.8417Z" fill="#D62752"/>
<path fill-rule="evenodd" clip-rule="evenodd" d="M934.849 109.911L872.527 146.447L934.849 182.981V109.911Z" fill="#EC0101"/>
<path fill-rule="evenodd" clip-rule="evenodd" d="M997.178 146.447V73.3754L934.85 109.911L997.178 146.447Z" fill="#FFC6C6"/>
<path fill-rule="evenodd" clip-rule="evenodd" d="M997.178 73.3754L934.85 36.8417V109.909L997.178 73.3754Z" fill="#D62752"/>
<path fill-rule="evenodd" clip-rule="evenodd" d="M810.205 109.909L747.883 73.3754V146.445L810.205 109.909Z" fill="#FFC6C6"/>
<path fill-rule="evenodd" clip-rule="evenodd" d="M810.203 182.981L872.527 146.445L810.203 109.909V182.981Z" fill="#D62752"/>
<path fill-rule="evenodd" clip-rule="evenodd" d="M810.205 109.909L747.883 146.445L810.205 182.981V109.909Z" fill="#FFC6C6"/>
<path fill-rule="evenodd" clip-rule="evenodd" d="M872.527 146.445V73.3754L810.203 109.909L872.527 146.445Z" fill="#D62752"/>
<path fill-rule="evenodd" clip-rule="evenodd" d="M62.3242 256.049V182.981L0 219.515L62.3242 256.049Z" fill="#FFC6C6"/>
<path fill-rule="evenodd" clip-rule="evenodd" d="M62.3242 182.981V182.979L0 146.445V219.514L62.3242 182.981Z" fill="#FFC6C6"/>
<path fill-rule="evenodd" clip-rule="evenodd" d="M249.296 219.513L186.972 182.979V256.047L249.296 219.513Z" fill="#EC0101"/>
<path fill-rule="evenodd" clip-rule="evenodd" d="M249.296 292.58L311.618 256.047L249.296 219.513V292.58Z" fill="#D62752"/>
<path fill-rule="evenodd" clip-rule="evenodd" d="M249.296 146.445L186.972 182.979L249.296 219.512V146.445Z" fill="#EC0101"/>
<path fill-rule="evenodd" clip-rule="evenodd" d="M249.296 219.513L186.972 256.047L249.296 292.58V219.513Z" fill="#D62752"/>
<path fill-rule="evenodd" clip-rule="evenodd" d="M311.618 256.047V182.979L249.296 219.513L311.618 256.047Z" fill="#D62752"/>
<path fill-rule="evenodd" clip-rule="evenodd" d="M124.646 146.445L62.3242 182.979L124.646 219.512V146.445Z" fill="#D62752"/>
<path fill-rule="evenodd" clip-rule="evenodd" d="M124.646 292.582L186.971 256.049L124.646 219.515V292.582Z" fill="#FFC6C6"/>
<path fill-rule="evenodd" clip-rule="evenodd" d="M62.3242 182.979V256.049L124.646 219.513L62.3242 182.979Z" fill="#D62752"/>
<path fill-rule="evenodd" clip-rule="evenodd" d="M373.94 292.582L436.265 256.049L373.94 219.515V292.582Z" fill="#D62752"/>
<path fill-rule="evenodd" clip-rule="evenodd" d="M373.94 219.515L311.616 256.049L373.94 292.582V219.515Z" fill="#D62752"/>
<path fill-rule="evenodd" clip-rule="evenodd" d="M436.265 256.049V182.981L373.94 219.515L436.265 256.049Z" fill="#EC0101"/>
<path fill-rule="evenodd" clip-rule="evenodd" d="M623.236 219.515L685.561 256.049V182.981L623.236 219.515Z" fill="#FFC6C6"/>
<path fill-rule="evenodd" clip-rule="evenodd" d="M623.235 146.448L560.915 182.981L623.235 219.515V146.448Z" fill="#850C2A"/>
<path fill-rule="evenodd" clip-rule="evenodd" d="M623.236 292.582L685.561 256.049L623.236 219.515V292.582Z" fill="#FFC6C6"/>
<path fill-rule="evenodd" clip-rule="evenodd" d="M560.915 182.981V256.049L623.235 219.515L560.915 182.981Z" fill="#EC0101"/>
<path fill-rule="evenodd" clip-rule="evenodd" d="M560.915 256.049L623.235 292.582V219.515L560.915 256.049Z" fill="#FFC6C6"/>
<path fill-rule="evenodd" clip-rule="evenodd" d="M498.589 219.515L560.915 256.049V182.981L498.589 219.515Z" fill="#FFC6C6"/>
<path fill-rule="evenodd" clip-rule="evenodd" d="M498.589 146.448L436.265 182.981L498.589 219.515V146.448Z" fill="#850C2A"/>
<path fill-rule="evenodd" clip-rule="evenodd" d="M498.589 219.515L560.915 182.981L498.589 146.448V219.515Z" fill="#850C2A"/>
<path fill-rule="evenodd" clip-rule="evenodd" d="M436.265 182.981V256.049L498.589 219.515L436.265 182.981Z" fill="#EC0101"/>
<path fill-rule="evenodd" clip-rule="evenodd" d="M436.265 256.049L498.589 292.582V219.515L436.265 256.049Z" fill="#FFC6C6"/>
<path fill-rule="evenodd" clip-rule="evenodd" d="M747.883 219.513L810.209 256.049V182.979L747.883 219.513Z" fill="#FFC6C6"/>
<path fill-rule="evenodd" clip-rule="evenodd" d="M747.883 146.445L685.561 182.979L747.883 219.512V146.445Z" fill="#D62752"/>
<path fill-rule="evenodd" clip-rule="evenodd" d="M747.883 292.582L810.209 256.049L747.883 219.515V292.582Z" fill="#FFC6C6"/>
<path fill-rule="evenodd" clip-rule="evenodd" d="M747.883 219.512L810.209 182.979L747.883 146.445V219.512Z" fill="#FFC6C6"/>
<path fill-rule="evenodd" clip-rule="evenodd" d="M685.561 256.049L747.883 292.582V219.515L685.561 256.049Z" fill="#EC0101"/>
<path fill-rule="evenodd" clip-rule="evenodd" d="M997.179 146.448L934.853 182.981L997.179 219.515V146.448Z" fill="#D62752"/>
<path fill-rule="evenodd" clip-rule="evenodd" d="M934.853 182.981V256.049L997.179 219.515L934.853 182.981Z" fill="#EC0101"/>
<path fill-rule="evenodd" clip-rule="evenodd" d="M934.853 256.049L997.179 292.582V219.515L934.853 256.049Z" fill="#FFC6C6"/>
<path fill-rule="evenodd" clip-rule="evenodd" d="M872.529 219.515L810.209 182.981V256.049L872.529 219.515Z" fill="#D62752"/>
<path fill-rule="evenodd" clip-rule="evenodd" d="M872.527 292.582L934.852 256.049L872.527 219.515V292.582Z" fill="#EC0101"/>
<path fill-rule="evenodd" clip-rule="evenodd" d="M872.529 219.515L810.209 256.049L872.529 292.582V219.515Z" fill="#EC0101"/>
<path fill-rule="evenodd" clip-rule="evenodd" d="M934.852 256.049V182.981L872.527 219.515L934.852 256.049Z" fill="#FFC6C6"/>
<path fill-rule="evenodd" clip-rule="evenodd" d="M186.971 256.049L124.649 292.582L186.971 329.118V256.049Z" fill="#D62752"/>
<path fill-rule="evenodd" clip-rule="evenodd" d="M186.972 402.188L249.296 365.654L186.972 329.12V402.188Z" fill="#FFC6C6"/>
<path fill-rule="evenodd" clip-rule="evenodd" d="M186.972 329.118L249.296 292.582L186.972 256.049V329.118Z" fill="#D62752"/>
<path fill-rule="evenodd" clip-rule="evenodd" d="M124.649 292.582V365.654L186.971 329.118L124.649 292.582Z" fill="#D62752"/>
<path fill-rule="evenodd" clip-rule="evenodd" d="M124.649 365.654L186.971 402.188V329.12L124.649 365.654Z" fill="#FFC6C6"/>
<path fill-rule="evenodd" clip-rule="evenodd" d="M311.616 402.188L373.943 365.652L311.616 329.118V402.188Z" fill="#850C2A"/>
<path fill-rule="evenodd" clip-rule="evenodd" d="M311.618 256.049L249.296 292.582L311.618 329.118V256.049Z" fill="#FFC6C6"/>
<path fill-rule="evenodd" clip-rule="evenodd" d="M311.618 329.118L249.296 365.652L311.618 402.188V329.118Z" fill="#850C2A"/>
<path fill-rule="evenodd" clip-rule="evenodd" d="M373.943 292.582L311.616 256.049V329.118L373.943 292.582Z" fill="#FFC6C6"/>
<path fill-rule="evenodd" clip-rule="evenodd" d="M560.911 329.12L498.589 292.582V365.654L560.911 329.12Z" fill="#FFC6C6"/>
<path fill-rule="evenodd" clip-rule="evenodd" d="M560.911 402.188L623.235 365.654L560.911 329.12V402.188Z" fill="#D62752"/>
<path fill-rule="evenodd" clip-rule="evenodd" d="M560.911 256.049L498.589 292.58L560.911 329.118V256.049Z" fill="#FFC6C6"/>
<path fill-rule="evenodd" clip-rule="evenodd" d="M560.911 329.12L498.589 365.654L560.911 402.188V329.12Z" fill="#D62752"/>
<path fill-rule="evenodd" clip-rule="evenodd" d="M623.235 292.582V292.58L560.911 256.049V329.118L623.235 292.582Z" fill="#FFC6C6"/>
<path fill-rule="evenodd" clip-rule="evenodd" d="M436.262 329.118L373.942 292.582V365.652L436.262 329.118Z" fill="#EC0101"/>
<path fill-rule="evenodd" clip-rule="evenodd" d="M436.263 402.188L498.589 365.652L436.263 329.118V402.188Z" fill="#D62752"/>
<path fill-rule="evenodd" clip-rule="evenodd" d="M436.262 256.049L373.942 292.582L436.262 329.118V256.049Z" fill="#FFC6C6"/>
<path fill-rule="evenodd" clip-rule="evenodd" d="M436.262 329.118L373.942 365.652L436.262 402.188V329.118Z" fill="#D62752"/>
<path fill-rule="evenodd" clip-rule="evenodd" d="M498.589 292.582L436.263 256.049V329.118L498.589 292.582Z" fill="#FFC6C6"/>
<path fill-rule="evenodd" clip-rule="evenodd" d="M685.558 329.118L747.882 365.654V292.582L685.558 329.118Z" fill="#EC0101"/>
<path fill-rule="evenodd" clip-rule="evenodd" d="M685.558 256.049L623.236 292.582L685.558 329.118V256.049Z" fill="#850C2A"/>
<path fill-rule="evenodd" clip-rule="evenodd" d="M685.558 402.188L747.882 365.654L685.558 329.12V402.188Z" fill="#FFC6C6"/>
<path fill-rule="evenodd" clip-rule="evenodd" d="M685.558 329.118L747.882 292.582L685.558 256.049V329.118Z" fill="#850C2A"/>
<path fill-rule="evenodd" clip-rule="evenodd" d="M623.236 292.582V365.654L685.558 329.118L623.236 292.582Z" fill="#850C2A"/>
<path fill-rule="evenodd" clip-rule="evenodd" d="M623.236 365.654L685.558 402.188V329.12L623.236 365.654Z" fill="#FFC6C6"/>
<path fill-rule="evenodd" clip-rule="evenodd" d="M934.85 329.118L997.178 365.654V292.582L934.85 329.118Z" fill="#850C2A"/>
<path fill-rule="evenodd" clip-rule="evenodd" d="M934.849 256.049L872.527 292.582L934.849 329.118V256.049Z" fill="#EC0101"/>
<path fill-rule="evenodd" clip-rule="evenodd" d="M934.85 402.188L997.178 365.654L934.85 329.12V402.188Z" fill="#850C2A"/>
<path fill-rule="evenodd" clip-rule="evenodd" d="M934.85 329.118L997.178 292.582L934.85 256.049V329.118Z" fill="#EC0101"/>
<path fill-rule="evenodd" clip-rule="evenodd" d="M872.527 292.582V365.654L934.849 329.118L872.527 292.582Z" fill="#FFC6C6"/>
<path fill-rule="evenodd" clip-rule="evenodd" d="M872.527 365.654L934.849 402.188V329.12L872.527 365.654Z" fill="#850C2A"/>
<path fill-rule="evenodd" clip-rule="evenodd" d="M810.203 329.118L872.527 365.654V292.582L810.203 329.118Z" fill="#FFC6C6"/>
<path fill-rule="evenodd" clip-rule="evenodd" d="M810.205 256.049L747.883 292.582L810.205 329.118V256.049Z" fill="#D62752"/>
<path fill-rule="evenodd" clip-rule="evenodd" d="M810.203 329.118L872.527 292.582L810.203 256.049V329.118Z" fill="#D62752"/>
<path fill-rule="evenodd" clip-rule="evenodd" d="M747.883 292.582V365.654L810.205 329.118L747.883 292.582Z" fill="#EC0101"/>
<path fill-rule="evenodd" clip-rule="evenodd" d="M747.883 365.654L810.205 402.188V329.12L747.883 365.654Z" fill="#FFC6C6"/>
<path fill-rule="evenodd" clip-rule="evenodd" d="M249.296 365.652L186.972 402.186L249.296 438.72V365.652Z" fill="#850C2A"/>
<path fill-rule="evenodd" clip-rule="evenodd" d="M249.296 511.789L311.618 475.253L249.296 438.72V511.789Z" fill="#FFC6C6"/>
<path fill-rule="evenodd" clip-rule="evenodd" d="M249.296 438.72L311.618 402.186L249.296 365.652V438.72Z" fill="#850C2A"/>
<path fill-rule="evenodd" clip-rule="evenodd" d="M186.972 402.186V475.253L249.296 438.72L186.972 402.186Z" fill="#EC0101"/>
<path fill-rule="evenodd" clip-rule="evenodd" d="M186.972 475.253L249.296 511.789V438.72L186.972 475.253Z" fill="#FFC6C6"/>
<path fill-rule="evenodd" clip-rule="evenodd" d="M373.94 438.72L311.616 402.186V475.253L373.94 438.72Z" fill="#FFC6C6"/>
<path fill-rule="evenodd" clip-rule="evenodd" d="M373.94 511.789L436.265 475.253L373.94 438.72V511.789Z" fill="#D62752"/>
<path fill-rule="evenodd" clip-rule="evenodd" d="M373.94 365.652L311.616 402.186L373.94 438.72V365.652Z" fill="#FFC6C6"/>
<path fill-rule="evenodd" clip-rule="evenodd" d="M373.94 438.72L311.616 475.253L373.94 511.789V438.72Z" fill="#FFC6C6"/>
<path fill-rule="evenodd" clip-rule="evenodd" d="M436.265 475.253V402.186L373.94 438.72L436.265 475.253Z" fill="#D62752"/>
<path fill-rule="evenodd" clip-rule="evenodd" d="M623.235 438.722L560.915 402.188V475.256L623.235 438.722Z" fill="#D62752"/>
<path fill-rule="evenodd" clip-rule="evenodd" d="M623.236 511.791L685.561 475.255L623.236 438.722V511.791Z" fill="#EC0101"/>
<path fill-rule="evenodd" clip-rule="evenodd" d="M623.235 365.652L560.915 402.186L623.235 438.72V365.652Z" fill="#D62752"/>
<path fill-rule="evenodd" clip-rule="evenodd" d="M623.235 438.722L560.915 475.255L623.235 511.791V438.722Z" fill="#EC0101"/>
<path fill-rule="evenodd" clip-rule="evenodd" d="M685.561 475.256V402.188L623.236 438.722L685.561 475.256Z" fill="#FFC6C6"/>
<path fill-rule="evenodd" clip-rule="evenodd" d="M436.265 402.186V475.253L498.589 438.72L436.265 402.186Z" fill="#D62752"/>
<path fill-rule="evenodd" clip-rule="evenodd" d="M747.883 438.72L810.209 475.253V402.186L747.883 438.72Z" fill="#FFC6C6"/>
<path fill-rule="evenodd" clip-rule="evenodd" d="M747.883 365.652L685.561 402.186L747.883 438.72V365.652Z" fill="#D62752"/>
<path fill-rule="evenodd" clip-rule="evenodd" d="M747.883 511.792L810.209 475.256L747.883 438.72V511.792Z" fill="#FFC6C6"/>
<path fill-rule="evenodd" clip-rule="evenodd" d="M685.561 402.186V475.253L747.883 438.72L685.561 402.186Z" fill="#D62752"/>
<path fill-rule="evenodd" clip-rule="evenodd" d="M685.561 475.253V475.256L747.883 511.792V438.72L685.561 475.253Z" fill="#850C2A"/>
<path fill-rule="evenodd" clip-rule="evenodd" d="M997.179 365.652L934.853 402.186L997.179 438.72V365.652Z" fill="#EC0101"/>
<path fill-rule="evenodd" clip-rule="evenodd" d="M934.853 402.186V475.253L997.179 438.72L934.853 402.186Z" fill="#FFC6C6"/>
<path fill-rule="evenodd" clip-rule="evenodd" d="M934.853 475.253L997.179 511.789V438.72L934.853 475.253Z" fill="#D62752"/>
<path fill-rule="evenodd" clip-rule="evenodd" d="M872.529 438.722L810.209 402.188V475.256L872.529 438.722Z" fill="#FFC6C6"/>
<path fill-rule="evenodd" clip-rule="evenodd" d="M872.527 511.791L934.852 475.255L872.527 438.722V511.791Z" fill="#D62752"/>
<path fill-rule="evenodd" clip-rule="evenodd" d="M872.529 365.652L810.209 402.186L872.529 438.72V365.652Z" fill="#FFC6C6"/>
<path fill-rule="evenodd" clip-rule="evenodd" d="M872.529 438.722L810.209 475.255L872.529 511.791V438.722Z" fill="#D62752"/>
<path fill-rule="evenodd" clip-rule="evenodd" d="M934.852 475.256V402.188L872.527 438.722L934.852 475.256Z" fill="#EC0101"/>
<path fill-rule="evenodd" clip-rule="evenodd" d="M186.972 548.323L249.296 511.789L186.972 475.253V548.323Z" fill="#D62752"/>
<path fill-rule="evenodd" clip-rule="evenodd" d="M560.911 548.325L623.235 584.859V511.791L560.911 548.325Z" fill="#D62752"/>
<path fill-rule="evenodd" clip-rule="evenodd" d="M560.911 475.255L498.589 511.791L560.911 548.325V475.255Z" fill="#EC0101"/>
<path fill-rule="evenodd" clip-rule="evenodd" d="M560.911 584.861L623.235 584.859L560.911 548.325V584.861Z" fill="#D62752"/>
<path fill-rule="evenodd" clip-rule="evenodd" d="M560.911 548.325L623.235 511.791L560.911 475.255V548.325Z" fill="#EC0101"/>
<path fill-rule="evenodd" clip-rule="evenodd" d="M498.589 511.791V584.859L560.911 548.325L498.589 511.791Z" fill="#FFC6C6"/>
<path fill-rule="evenodd" clip-rule="evenodd" d="M498.589 584.859L560.911 584.861V548.325L498.589 584.859Z" fill="#D62752"/>
<path fill-rule="evenodd" clip-rule="evenodd" d="M436.262 548.325L373.942 511.791V584.859L436.262 548.325Z" fill="#850C2A"/>
<path fill-rule="evenodd" clip-rule="evenodd" d="M436.263 584.861L498.589 584.859L436.263 548.325V584.861Z" fill="#EC0101"/>
<path fill-rule="evenodd" clip-rule="evenodd" d="M436.262 475.253L373.942 511.789L436.262 548.325V475.253Z" fill="#850C2A"/>
<path fill-rule="evenodd" clip-rule="evenodd" d="M436.262 548.325L373.942 584.859L436.262 584.861V548.325Z" fill="#EC0101"/>
<path fill-rule="evenodd" clip-rule="evenodd" d="M498.589 584.859V511.791L436.263 548.325L498.589 584.859Z" fill="#FFC6C6"/>
<path fill-rule="evenodd" clip-rule="evenodd" d="M498.589 511.791V511.789L436.263 475.253V548.325L498.589 511.791Z" fill="#850C2A"/>
<path fill-rule="evenodd" clip-rule="evenodd" d="M685.558 584.861L747.882 584.859L685.558 548.325V584.861Z" fill="#D62752"/>
<path fill-rule="evenodd" clip-rule="evenodd" d="M685.558 475.255L623.236 511.791L685.558 548.325V475.255Z" fill="#850C2A"/>
<path fill-rule="evenodd" clip-rule="evenodd" d="M747.882 584.859V511.791L685.558 548.325L747.882 584.859Z" fill="#D62752"/>
<path fill-rule="evenodd" clip-rule="evenodd" d="M747.882 511.791L685.558 475.255V548.325L747.882 511.791Z" fill="#850C2A"/>
<path fill-rule="evenodd" clip-rule="evenodd" d="M934.849 475.255L872.527 511.791L934.849 548.325V475.255Z" fill="#D62752"/>
<path fill-rule="evenodd" clip-rule="evenodd" d="M934.85 584.861L997.178 584.859L934.85 548.325V584.861Z" fill="#FFC6C6"/>
<path fill-rule="evenodd" clip-rule="evenodd" d="M934.85 548.325L997.178 511.791L934.85 475.255V548.325Z" fill="#D62752"/>
<path fill-rule="evenodd" clip-rule="evenodd" d="M872.527 511.791V584.859L934.849 548.325L872.527 511.791Z" fill="#EC0101"/>
<path fill-rule="evenodd" clip-rule="evenodd" d="M810.205 475.255L747.883 511.791L810.205 548.325V475.255Z" fill="#D62752"/>
<path fill-rule="evenodd" clip-rule="evenodd" d="M810.203 548.325L872.527 511.791L810.203 475.255V548.325Z" fill="#D62752"/>
<path fill-rule="evenodd" clip-rule="evenodd" d="M747.883 511.791V584.859L810.205 548.325L747.883 511.791Z" fill="#EC0101"/>
</svg>
