<svg width="267" height="58" viewBox="0 0 267 58" fill="none" xmlns="http://www.w3.org/2000/svg">
<path d="M49.8281 11.1424V46H44.5688V11.1424H49.8281ZM62.1678 30.4775V46H57.0787V19.8568H61.9636V24.1119H62.2869C62.8883 22.7276 63.8301 21.6156 65.1123 20.7759C66.4059 19.9363 68.0341 19.5164 69.9971 19.5164C71.7786 19.5164 73.3388 19.8909 74.6777 20.6398C76.0166 21.3773 77.0549 22.478 77.7924 23.9417C78.53 25.4054 78.8988 27.2153 78.8988 29.3712V46H73.8097V29.9839C73.8097 28.089 73.3161 26.6082 72.3289 25.5416C71.3417 24.4637 69.9858 23.9247 68.2611 23.9247C67.081 23.9247 66.0314 24.18 65.1123 24.6906C64.2046 25.2012 63.484 25.9501 62.9507 26.9373C62.4288 27.9131 62.1678 29.0932 62.1678 30.4775ZM105.314 26.2394L100.702 27.0564C100.509 26.4664 100.202 25.9047 99.7827 25.3714C99.3742 24.8381 98.8182 24.4012 98.1147 24.0608C97.4112 23.7204 96.5318 23.5502 95.4765 23.5502C94.0355 23.5502 92.8327 23.8736 91.8682 24.5204C90.9037 25.1558 90.4215 25.9785 90.4215 26.9883C90.4215 27.862 90.7449 28.5655 91.3916 29.0989C92.0384 29.6322 93.0823 30.069 94.5234 30.4094L98.6763 31.3625C101.082 31.9185 102.875 32.7752 104.055 33.9326C105.235 35.09 105.825 36.5935 105.825 38.443C105.825 40.0089 105.371 41.4045 104.463 42.63C103.567 43.8441 102.313 44.7972 100.702 45.4894C99.1018 46.1815 97.2466 46.5276 95.1361 46.5276C92.2086 46.5276 89.8201 45.9036 87.9706 44.6554C86.121 43.3959 84.9863 41.6088 84.5665 39.294L89.4854 38.5451C89.7917 39.8273 90.4215 40.7975 91.3746 41.4556C92.3278 42.1024 93.5702 42.4257 95.1021 42.4257C96.7701 42.4257 98.1033 42.0797 99.1018 41.3875C100.1 40.684 100.6 39.8273 100.6 38.8174C100.6 38.0005 100.293 37.314 99.6805 36.758C99.0791 36.202 98.1544 35.7822 96.9062 35.4985L92.4809 34.5283C90.0414 33.9723 88.2372 33.0873 87.0685 31.8732C85.9111 30.659 85.3324 29.1215 85.3324 27.2607C85.3324 25.7175 85.7636 24.3672 86.626 23.2098C87.4883 22.0524 88.6797 21.1504 90.2002 20.5036C91.7207 19.8455 93.4624 19.5164 95.4255 19.5164C98.2508 19.5164 100.475 20.1292 102.097 21.3546C103.72 22.5687 104.792 24.197 105.314 26.2394ZM127.981 35.1581V19.8568H133.087V46H128.083V41.4726H127.811C127.209 42.8683 126.245 44.0313 124.917 44.9618C123.601 45.8809 121.962 46.3404 119.999 46.3404C118.319 46.3404 116.833 45.9716 115.539 45.2341C114.257 44.4852 113.247 43.3789 112.51 41.9151C111.783 40.4514 111.42 38.6416 111.42 36.4857V19.8568H116.509V35.8729C116.509 37.6544 117.003 39.0727 117.99 40.128C118.977 41.1833 120.259 41.7109 121.837 41.7109C122.79 41.7109 123.737 41.4726 124.679 40.996C125.632 40.5195 126.421 39.7989 127.045 38.8345C127.68 37.87 127.992 36.6445 127.981 35.1581ZM139.925 46V19.8568H144.844V24.0098H145.116C145.593 22.6028 146.432 21.4965 147.635 20.6908C148.849 19.8739 150.222 19.4654 151.754 19.4654C152.072 19.4654 152.446 19.4767 152.877 19.4994C153.32 19.5221 153.666 19.5505 153.916 19.5845V24.4523C153.711 24.3956 153.348 24.3332 152.826 24.2651C152.304 24.1857 151.782 24.1459 151.261 24.1459C150.058 24.1459 148.985 24.4012 148.044 24.9119C147.113 25.4111 146.376 26.109 145.831 27.0054C145.286 27.8904 145.014 28.9003 145.014 30.035V46H139.925ZM165.694 46.5787C164.037 46.5787 162.539 46.2723 161.2 45.6596C159.861 45.0355 158.801 44.1334 158.018 42.9534C157.246 41.7733 156.86 40.3266 156.86 38.6132C156.86 37.1381 157.144 35.924 157.711 34.9709C158.279 34.0177 159.044 33.2631 160.009 32.7072C160.973 32.1512 162.051 31.7313 163.243 31.4477C164.434 31.164 165.648 30.9484 166.885 30.8009C168.451 30.6193 169.722 30.4718 170.698 30.3584C171.674 30.2335 172.383 30.035 172.825 29.7626C173.268 29.4903 173.489 29.0478 173.489 28.4351V28.3159C173.489 26.8295 173.069 25.6778 172.23 24.8608C171.401 24.0438 170.164 23.6353 168.519 23.6353C166.806 23.6353 165.455 24.0155 164.468 24.7757C163.492 25.5246 162.817 26.3586 162.443 27.2777L157.66 26.1884C158.227 24.5998 159.056 23.3176 160.145 22.3418C161.246 21.3546 162.511 20.6398 163.941 20.1972C165.37 19.7434 166.874 19.5164 168.451 19.5164C169.495 19.5164 170.601 19.6412 171.77 19.8909C172.95 20.1292 174.051 20.5717 175.072 21.2185C176.104 21.8652 176.95 22.79 177.608 23.9928C178.266 25.1842 178.595 26.733 178.595 28.6393V46H173.625V42.4257H173.421C173.092 43.0839 172.598 43.7306 171.94 44.3661C171.282 45.0015 170.437 45.5291 169.404 45.9489C168.372 46.3688 167.135 46.5787 165.694 46.5787ZM166.8 42.4938C168.207 42.4938 169.41 42.2158 170.408 41.6598C171.418 41.1038 172.184 40.3776 172.706 39.4812C173.239 38.5735 173.506 37.6033 173.506 36.5708V33.2007C173.324 33.3823 172.973 33.5525 172.451 33.7113C171.94 33.8589 171.356 33.9893 170.698 34.1028C170.04 34.2049 169.398 34.3014 168.774 34.3922C168.15 34.4716 167.628 34.5397 167.209 34.5964C166.221 34.7212 165.319 34.9311 164.502 35.2262C163.697 35.5212 163.05 35.9467 162.562 36.5027C162.085 37.0473 161.847 37.7735 161.847 38.6813C161.847 39.9408 162.312 40.8939 163.243 41.5407C164.173 42.1761 165.359 42.4938 166.8 42.4938ZM190.463 30.4775V46H185.373V19.8568H190.258V24.1119H190.582C191.183 22.7276 192.125 21.6156 193.407 20.7759C194.701 19.9363 196.329 19.5164 198.292 19.5164C200.073 19.5164 201.633 19.8909 202.972 20.6398C204.311 21.3773 205.35 22.478 206.087 23.9417C206.825 25.4054 207.193 27.2153 207.193 29.3712V46H202.104V29.9839C202.104 28.089 201.611 26.6082 200.624 25.5416C199.636 24.4637 198.28 23.9247 196.556 23.9247C195.376 23.9247 194.326 24.18 193.407 24.6906C192.499 25.2012 191.779 25.9501 191.245 26.9373C190.723 27.9131 190.463 29.0932 190.463 30.4775ZM225.031 46.5276C222.5 46.5276 220.322 45.9546 218.495 44.8086C216.679 43.6512 215.284 42.057 214.308 40.0259C213.332 37.9948 212.844 35.6687 212.844 33.0476C212.844 30.3924 213.343 28.0493 214.342 26.0182C215.341 23.9757 216.748 22.3815 218.563 21.2355C220.379 20.0894 222.517 19.5164 224.98 19.5164C226.965 19.5164 228.735 19.8852 230.29 20.6227C231.845 21.3489 233.098 22.3702 234.051 23.6864C235.016 25.0026 235.589 26.5401 235.771 28.2989H230.818C230.545 27.0734 229.921 26.0182 228.945 25.1331C227.981 24.2481 226.687 23.8055 225.065 23.8055C223.646 23.8055 222.404 24.18 221.337 24.9289C220.282 25.6664 219.459 26.7217 218.869 28.0947C218.279 29.4563 217.984 31.0675 217.984 32.9284C217.984 34.8347 218.274 36.48 218.852 37.8643C219.431 39.2486 220.248 40.3209 221.303 41.0811C222.37 41.8414 223.624 42.2215 225.065 42.2215C226.029 42.2215 226.903 42.0456 227.686 41.6939C228.48 41.3308 229.144 40.8145 229.677 40.145C230.222 39.4756 230.602 38.6699 230.818 37.7281H235.771C235.589 39.4188 235.039 40.928 234.12 42.2555C233.2 43.5831 231.969 44.627 230.426 45.3873C228.894 46.1475 227.096 46.5276 225.031 46.5276ZM252.48 46.5276C249.904 46.5276 247.686 45.9773 245.825 44.8767C243.976 43.7647 242.546 42.2045 241.536 40.1961C240.538 38.1763 240.038 35.8105 240.038 33.0986C240.038 30.4208 240.538 28.0606 241.536 26.0182C242.546 23.9757 243.953 22.3815 245.757 21.2355C247.573 20.0894 249.695 19.5164 252.123 19.5164C253.598 19.5164 255.028 19.7604 256.412 20.2483C257.796 20.7362 259.039 21.5021 260.139 22.546C261.24 23.5899 262.108 24.9459 262.743 26.6139C263.379 28.2705 263.697 30.2846 263.697 32.6561V34.4602H242.915V30.6477H258.71C258.71 29.3088 258.437 28.123 257.893 27.0905C257.348 26.0465 256.582 25.2239 255.595 24.6225C254.619 24.0211 253.473 23.7204 252.157 23.7204C250.727 23.7204 249.479 24.0722 248.412 24.7757C247.357 25.4679 246.54 26.3756 245.961 27.4989C245.394 28.6109 245.11 29.8194 245.11 31.1243V34.1028C245.11 35.8502 245.417 37.3367 246.03 38.5621C246.654 39.7876 247.522 40.7237 248.634 41.3705C249.746 42.0059 251.045 42.3236 252.531 42.3236C253.496 42.3236 254.375 42.1875 255.169 41.9151C255.964 41.6315 256.65 41.2116 257.229 40.6556C257.808 40.0996 258.25 39.4131 258.556 38.5962L263.373 39.4642C262.987 40.8826 262.295 42.125 261.297 43.1917C260.31 44.2469 259.067 45.0696 257.569 45.6596C256.083 46.2383 254.386 46.5276 252.48 46.5276Z" fill="#471111"/>
<path fill-rule="evenodd" clip-rule="evenodd" d="M4.79291 13.1807H0V29.9559H0.00097659C0.00150434 39.2201 7.51182 46.7301 16.7762 46.7301C26.0409 46.7301 33.5514 39.2196 33.5514 29.9549V29.9548H28.7585V29.9549C28.7585 36.5726 23.3939 41.9372 16.7762 41.9372C10.1586 41.9372 4.79395 36.5726 4.79395 29.9549V29.9548H4.79291V13.1807Z" fill="#471111"/>
<path fill-rule="evenodd" clip-rule="evenodd" d="M33.5498 13.1807H28.7569V17.374H24.5636L24.5636 22.1669H28.7569V26.3612H33.5498V22.1669H37.7441V17.374H33.5498V13.1807Z" fill="#CA0000"/>
</svg>
