<?xml version="1.0" encoding="utf-8"?>
<!-- Generator: Adobe Illustrator 23.0.3, SVG Export Plug-In . SVG Version: 6.00 Build 0)  -->
<svg version="1.1" id="U_Bank_Logo" xmlns="http://www.w3.org/2000/svg" xmlns:xlink="http://www.w3.org/1999/xlink" x="0px"
	 y="0px" viewBox="0 0 215.4 30.4" style="enable-background:new 0 0 215.4 30.4;" xml:space="preserve">
<style type="text/css">
	.st0{fill:#FFFFFF;}
	.st1{opacity:0.4;fill:#FFFFFF;enable-background:new    ;}
	.st2{opacity:0.4;fill:#FFFFFF;}
</style>
<path class="st0" d="M7801.9,28.9c-7.8,0-14.1-6.3-14.1-14.1V0.2h4v14.6c0,5.6,4.6,10.1,10.1,10.1s10.2-4.6,10.2-10.1h4
	C7816,22.5,7809.7,28.9,7801.9,28.9z"/>
<polygon class="st1" points="7819.9,4 7816,4 7816,0.2 7812,0.2 7812,4 7808.1,4 7808.1,8 7812,8 7812,11.9 7816,11.9 7816,8 
	7819.9,8 "/>
<path class="st0" d="M7849.1,2.4l-1.8,3.4c-0.5-0.2-3.6-1.7-7.4-1.7c-6.2,0-10.6,4.6-10.6,10.6c0,6.2,4.5,10.7,10.4,10.7
	c2.3,0,4.8-0.7,6.6-2.3v-5.5h-7.5v-3.7h11.7v11c-3.6,3.4-6.9,4.6-10.6,4.6c-8.9,0-15.4-6.6-15.4-14.7s6.7-14.8,15-14.8
	C7843.1,0,7846.6,0.9,7849.1,2.4z"/>
<path class="st0" d="M7865.7,7.4c6.2,0,11.1,4.6,11.1,11s-5,11-11.1,11s-11-4.6-11-11C7854.6,12,7859.6,7.4,7865.7,7.4z
	 M7859.2,18.4c0,4,2.7,7.1,6.5,7.1c3.7,0,6.5-3.1,6.5-7.1c0-4.1-2.7-7.1-6.5-7.1C7861.9,11.3,7859.2,14.3,7859.2,18.4z"/>
<path class="st0" d="M7883.3,7.7l5.2,16.4h0.1l5.3-16.4h4.6l-7.8,21.3h-4.3l-7.6-21.3C7878.8,7.7,7883.3,7.7,7883.3,7.7z"/>
<path class="st0" d="M13.5,29.2c-7.3,0-13.3-6-13.3-13.3V2.2H4v13.7c0,5.3,4.3,9.5,9.5,9.5s9.5-4.3,9.5-9.5h3.8
	C26.8,23.2,20.8,29.2,13.5,29.2z"/>
<polygon class="st2" points="30.4,5.8 26.8,5.8 26.8,2.2 23,2.2 23,5.8 19.4,5.8 19.4,9.6 23,9.6 23,13.2 26.8,13.2 26.8,9.6 
	30.4,9.6 "/>
<g>
	<path class="st0" d="M41.8,1.9v27.5h-4.3V1.9H41.8z"/>
	<path class="st0" d="M51.3,9l0.7,3.5c0.1-0.4,2-3.8,6.5-3.8c4.2,0,7.7,2.5,7.7,8.6v12.1h-4.3v-12c0-3-1.7-4.7-4.4-4.7
		c-3.4,0-5.1,2.8-5.1,5.4v11.3H48V9H51.3z"/>
	<path class="st0" d="M91.1,0.6v28.8h-3.5L87,26.3c-1.3,2.5-3.9,3.4-6.6,3.4c-6.1,0-10-4.8-10-10.6c0-5.7,3.7-10.6,10-10.6
		c1.8,0,4.5,0.4,6.3,2.9V0.6H91.1z M74.8,19.2c0,4.1,2.6,6.8,6.1,6.8c3.6,0,6.3-2.9,6.3-6.8c0-3.8-2.6-6.8-6.3-6.8
		C77.3,12.4,74.8,15.1,74.8,19.2z"/>
	<path class="st0" d="M100.7,9v12c0,3,1.4,4.7,4.5,4.7c3.5,0,5.1-2,5.1-4.6V9h4.3v20.4h-3.3l-0.5-3c-1.3,2.2-3.2,3.3-6.6,3.3
		c-5.1,0-7.8-3.1-7.8-8.5V9H100.7z"/>
	<path class="st0" d="M119.1,28l1.3-3.1c1.1,0.5,3.5,1.4,5.9,1.4c3.1,0,4.3-1.1,4.3-2.5c0-4-11.4-1.7-11.4-9.2c0-3.7,2.9-6,7.6-6
		c2.9,0,5.7,0.9,7,1.5l-1.3,3c0,0-2.7-1.2-5.4-1.2c-2.6,0-3.9,1.1-3.9,2.5c0,4,11.4,1.7,11.4,9.2c0,3.8-3.1,6-8.1,6
		C122.8,29.8,120.2,28.5,119.1,28z"/>
	<path class="st0" d="M144.2,3.1V9h4.7v3.1h-4.7v10.7c0,1.8,0.7,3,2.6,3c0.7,0,1.6-0.1,2.5-0.2l0.6,3c-1.1,0.4-2.5,0.8-3.8,0.8
		c-4.6,0-6.1-2.3-6.1-7V12.1h-2.9V9.6l2.9-0.5l0.7-5.9H144.2z"/>
	<path class="st0" d="M156.6,9.1l0.6,3.5c1-2.4,2.7-3.6,6.4-3.6c0.1,0,0.3,0,0.4,0v3.9c-0.2,0-0.4,0-0.6,0c-3.2,0-5.9,1.2-5.9,5.9
		v10.6h-4.3V9.1H156.6z"/>
	<path class="st0" d="M172.8,9v20.4h-4.2V12.7l-2.3-0.7V9H172.8z M172.9,3.4c0,1.4-1.2,2.6-2.6,2.6c-1.5,0-2.5-1.1-2.5-2.6
		c0-1.4,1.1-2.6,2.5-2.6C171.7,0.8,172.9,2,172.9,3.4z"/>
	<path class="st0" d="M187.3,8.6c6.2,0,9.3,5.1,9.3,10.4c0,1.2-0.2,1.9-0.2,1.9h-14.9c0.2,3.4,3.1,5.3,6.3,5.3c2.2,0,4.4-0.7,6-1.4
		l1.5,3.1c-1.8,1-4.7,1.8-7.5,1.8c-6.2,0-10.6-4.4-10.6-10.4C177.2,13.3,181.3,8.6,187.3,8.6z M192.7,17.7c-0.1-2.7-1.5-5.3-5.1-5.3
		c-3.2,0-5.6,2.1-6,5.3H192.7z"/>
	<path class="st0" d="M199.7,28l1.3-3.1c1.1,0.5,3.5,1.4,5.9,1.4c3.1,0,4.3-1.1,4.3-2.5c0-4-11.4-1.7-11.4-9.2c0-3.7,2.9-6,7.6-6
		c2.9,0,5.7,0.9,7,1.5l-1.3,3c0,0-2.7-1.2-5.4-1.2c-2.6,0-3.9,1.1-3.9,2.5c0,4,11.4,1.7,11.4,9.2c0,3.8-3.1,6-8.1,6
		C203.5,29.8,200.8,28.5,199.7,28z"/>
</g>
</svg>
