<svg version="1.1" id="U_Bank_Logo" xmlns="http://www.w3.org/2000/svg" x="0" y="0" viewBox="0 0 215.4 30.4" xml:space="preserve"><style>.st0{fill:#fff}</style><path class="st0" d="M7801.9 28.9c-7.8 0-14.1-6.3-14.1-14.1V.2h4v14.6c0 5.6 4.6 10.1 10.1 10.1s10.2-4.6 10.2-10.1h4c-.1 7.7-6.4 14.1-14.2 14.1z"/><path opacity=".4" fill="#fff" d="M7819.9 4h-3.9V.2h-4V4h-3.9v4h3.9v3.9h4V8h3.9z"/><path class="st0" d="M7849.1 2.4l-1.8 3.4c-.5-.2-3.6-1.7-7.4-1.7-6.2 0-10.6 4.6-10.6 10.6 0 6.2 4.5 10.7 10.4 10.7 2.3 0 4.8-.7 6.6-2.3v-5.5h-7.5v-3.7h11.7v11c-3.6 3.4-6.9 4.6-10.6 4.6-8.9 0-15.4-6.6-15.4-14.7s6.7-14.8 15-14.8c3.6 0 7.1.9 9.6 2.4zm16.6 5c6.2 0 11.1 4.6 11.1 11s-5 11-11.1 11-11-4.6-11-11c-.1-6.4 4.9-11 11-11zm-6.5 11c0 4 2.7 7.1 6.5 7.1 3.7 0 6.5-3.1 6.5-7.1 0-4.1-2.7-7.1-6.5-7.1s-6.5 3-6.5 7.1zm24.1-10.7l5.2 16.4h.1l5.3-16.4h4.6l-7.8 21.3h-4.3l-7.6-21.3h4.5zM13.5 29.2C6.2 29.2.2 23.2.2 15.9V2.2H4v13.7c0 5.3 4.3 9.5 9.5 9.5s9.5-4.3 9.5-9.5h3.8c0 7.3-6 13.3-13.3 13.3z"/><path opacity=".4" fill="#fff" d="M30.4 5.8h-3.6V2.2H23v3.6h-3.6v3.8H23v3.6h3.8V9.6h3.6z"/><path class="st0" d="M41.8 1.9v27.5h-4.3V1.9h4.3zM51.3 9l.7 3.5c.1-.4 2-3.8 6.5-3.8 4.2 0 7.7 2.5 7.7 8.6v12.1h-4.3v-12c0-3-1.7-4.7-4.4-4.7-3.4 0-5.1 2.8-5.1 5.4v11.3H48V9h3.3zM91.1.6v28.8h-3.5l-.6-3.1c-1.3 2.5-3.9 3.4-6.6 3.4-6.1 0-10-4.8-10-10.6 0-5.7 3.7-10.6 10-10.6 1.8 0 4.5.4 6.3 2.9V.6h4.4zM74.8 19.2c0 4.1 2.6 6.8 6.1 6.8 3.6 0 6.3-2.9 6.3-6.8 0-3.8-2.6-6.8-6.3-6.8-3.6 0-6.1 2.7-6.1 6.8zM100.7 9v12c0 3 1.4 4.7 4.5 4.7 3.5 0 5.1-2 5.1-4.6V9h4.3v20.4h-3.3l-.5-3c-1.3 2.2-3.2 3.3-6.6 3.3-5.1 0-7.8-3.1-7.8-8.5V9h4.3zm18.4 19l1.3-3.1c1.1.5 3.5 1.4 5.9 1.4 3.1 0 4.3-1.1 4.3-2.5 0-4-11.4-1.7-11.4-9.2 0-3.7 2.9-6 7.6-6 2.9 0 5.7.9 7 1.5l-1.3 3s-2.7-1.2-5.4-1.2c-2.6 0-3.9 1.1-3.9 2.5 0 4 11.4 1.7 11.4 9.2 0 3.8-3.1 6-8.1 6-3.7.2-6.3-1.1-7.4-1.6zm25.1-24.9V9h4.7v3.1h-4.7v10.7c0 1.8.7 3 2.6 3 .7 0 1.6-.1 2.5-.2l.6 3c-1.1.4-2.5.8-3.8.8-4.6 0-6.1-2.3-6.1-7V12.1h-2.9V9.6l2.9-.5.7-5.9h3.5zm12.4 6l.6 3.5c1-2.4 2.7-3.6 6.4-3.6h.4v3.9h-.6c-3.2 0-5.9 1.2-5.9 5.9v10.6h-4.3V9.1h3.4zm16.2-.1v20.4h-4.2V12.7l-2.3-.7V9h6.5zm.1-5.6c0 1.4-1.2 2.6-2.6 2.6-1.5 0-2.5-1.1-2.5-2.6 0-1.4 1.1-2.6 2.5-2.6s2.6 1.2 2.6 2.6zm14.4 5.2c6.2 0 9.3 5.1 9.3 10.4 0 1.2-.2 1.9-.2 1.9h-14.9c.2 3.4 3.1 5.3 6.3 5.3 2.2 0 4.4-.7 6-1.4l1.5 3.1c-1.8 1-4.7 1.8-7.5 1.8-6.2 0-10.6-4.4-10.6-10.4s4.1-10.7 10.1-10.7zm5.4 9.1c-.1-2.7-1.5-5.3-5.1-5.3-3.2 0-5.6 2.1-6 5.3h11.1zm7 10.3l1.3-3.1c1.1.5 3.5 1.4 5.9 1.4 3.1 0 4.3-1.1 4.3-2.5 0-4-11.4-1.7-11.4-9.2 0-3.7 2.9-6 7.6-6 2.9 0 5.7.9 7 1.5l-1.3 3s-2.7-1.2-5.4-1.2c-2.6 0-3.9 1.1-3.9 2.5 0 4 11.4 1.7 11.4 9.2 0 3.8-3.1 6-8.1 6-3.6.2-6.3-1.1-7.4-1.6z"/></svg>