<svg xmlns="http://www.w3.org/2000/svg" width="600" height="600" viewBox="0 0 600 600">
  <g>
    <circle style="fill:transparent" cx="300" cy="300" r="300"/>
    <path transform="rotate(180 260,260) scale(-0.8,0.8) translate(-545, 0)" style="fill:#FFF; opacity:1;"  d="M153,134 C153,134,307,134,307,134 C307,134,389,73,389,73 C389,73,238,73,238,73 C238,73,135,-5,135,-5 C130,-8,125,-9,122,-9 C122,-9,122,-9,122,-9 C117,-9,112,-7,108,-3 C104,1,102,6,102,12 C102,12,102,12,102,12 C102,12,102,73,102,73 C102,73,51,73,51,73 C42,73,35,76,29,82 C23,88,20,95,20,104 C20,104,20,104,20,104 C20,104,20,390,20,390 C20,399,23,406,29,412 C35,418,42,421,51,421 C51,421,51,421,51,421 C51,421,102,421,102,421 C102,421,102,186,102,186 C102,171,107,159,117,149 C127,139,139,134,153,134 C153,134,153,134,153,134Z M501,503 C501,503,501,503,501,503 C501,503,153,503,153,503 C144,503,137,500,131,494 C125,488,122,481,122,472 C122,472,122,472,122,472 C122,472,122,186,122,186 C122,177,125,170,131,164 C137,158,144,155,153,155 C153,155,153,155,153,155 C153,155,314,155,314,155 C314,155,417,77,417,77 C422,74,427,73,430,73 C430,73,430,73,430,73 C435,73,440,75,444,79 C448,83,450,88,450,93 C450,93,450,93,450,93 C450,93,450,155,450,155 C450,155,501,155,501,155 C510,155,517,158,523,164 C529,170,532,177,532,186 C532,186,532,186,532,186 C532,186,532,472,532,472 C532,481,529,488,523,494 C517,500,510,503,501,503Z" />
	</g>
</svg>
