<svg xmlns="http://www.w3.org/2000/svg" width="600" height="600"><circle cx="300" cy="300" r="300" fill="transparent"/><path d="M206.4 412.8h123.2l65.6 48.8H274.4L192 524c-4 2.4-8 3.2-10.4 3.2-4 0-8-1.6-11.2-4.8-3.2-3.2-4.8-7.2-4.8-12v-48.8h-40.8c-7.2 0-12.8-2.4-17.6-7.2-4.8-4.8-7.2-10.4-7.2-17.6V208c0-7.2 2.4-12.8 7.2-17.6 4.8-4.8 10.4-7.2 17.6-7.2h40.8v188c0 12 4 21.6 12 29.6s17.6 12 28.8 12zm278.4-295.2H206.4c-7.2 0-12.8 2.4-17.6 7.2-4.8 4.8-7.2 10.4-7.2 17.6v228.8c0 7.2 2.4 12.8 7.2 17.6 4.8 4.8 10.4 7.2 17.6 7.2h128.8l82.4 62.4c4 2.4 8 3.2 10.4 3.2 4 0 8-1.6 11.2-4.8 3.2-3.2 4.8-7.2 4.8-11.2V396h40.8c7.2 0 12.8-2.4 17.6-7.2 4.8-4.8 7.2-10.4 7.2-17.6V142.4c0-7.2-2.4-12.8-7.2-17.6-4.8-4.8-10.4-7.2-17.6-7.2z" fill="#fff"/></svg>