<svg width="76" height="76" xmlns="http://www.w3.org/2000/svg" xmlns:xlink="http://www.w3.org/1999/xlink"><defs><filter x="-18.3%" y="-11.7%" width="136.7%" height="136.7%" filterUnits="objectBoundingBox" id="a"><feOffset dy="4" in="SourceAlpha" result="shadowOffsetOuter1"/><feGaussianBlur stdDeviation="3" in="shadowOffsetOuter1" result="shadowBlurOuter1"/><feColorMatrix values="0 0 0 0 0 0 0 0 0 0 0 0 0 0 0 0 0 0 0.15 0" in="shadowBlurOuter1"/></filter><rect id="b" x="0" y="0" width="60" height="60" rx="30"/></defs><g transform="translate(8 8)" fill="none" fill-rule="evenodd"><use filter="url(#a)" xlink:href="#b" fill-rule="nonzero" fill="#000"/><rect fill="#E6EDFF" fill-rule="nonzero" width="60" height="60" rx="30"/><path d="M30 48.2c-9.5 0-16.3-4.8-16.3-4.8V29c0-9.2 4.8-17.3 16.3-17.3s16.3 7.9 16.3 17.1v14.6s-6.8 4.8-16.3 4.8z" fill="#81D4FA"/><path d="M13.7 35.8h-1c-1.1 0-1.9-.9-1.9-1.9V29c0-1.1.9-1.9 1.9-1.9h1v8.7zm32.6-8.7h1c1.1 0 1.9.9 1.9 1.9v4.8c0 1.1-.9 1.9-1.9 1.9h-1v-8.6zM13.7 40.6v2.9s6.9 4.8 16.3 4.8 16.3-4.8 16.3-4.8v-2.9s-6.9 4.8-16.3 4.8-16.3-4.8-16.3-4.8z" fill="#1E88E5" fill-rule="nonzero"/><path d="M30 41.5c-8.2 0-13.4-3.4-13.4-8.6V28c0-4.4 3.5-9.6 13.4-9.6s13.4 5.2 13.4 9.6v4.8c0 5.3-5.2 8.7-13.4 8.7z" fill="#7E57C2"/><path d="M30 19.4c9.3 0 12.5 4.7 12.5 8.6v4.8c0 4.6-4.8 7.7-12.5 7.7s-12.5-3.1-12.5-7.7V28c0-3.9 3.2-8.6 12.5-8.6zm0-1.9c-10.6 0-14.4 5.7-14.4 10.5v4.8c0 5.8 5.7 9.6 14.4 9.6s14.4-3.8 14.4-9.6V28c0-5.2-4.5-10.5-14.4-10.5z" fill="#B3E5FC" fill-rule="nonzero"/><path d="M30 41.5c-8.2 0-13.4-3.4-13.4-8.6V28c0-4.4 3.5-9.6 13.4-9.6s13.4 5.2 13.4 9.6v4.8c0 5.3-5.2 8.7-13.4 8.7z" fill="#7E57C2"/><path d="M30 19.4c9.3 0 12.5 4.7 12.5 8.6v4.8c0 4.6-4.8 7.7-12.5 7.7s-12.5-3.1-12.5-7.7V28c0-3.9 3.2-8.6 12.5-8.6zm0-1.9c-10.6 0-14.4 5.7-14.4 10.5v4.8c0 5.8 5.7 9.6 14.4 9.6s14.4-3.8 14.4-9.6V28c0-5.2-4.5-10.5-14.4-10.5z" fill="#B3E5FC" fill-rule="nonzero"/><path d="M42.5 32.9c0 4.6-4.8 7.7-12.5 7.7s-12.5-3.1-12.5-7.7V28c0-3.9 3.2-8.6 12.5-8.6s12.5 4.7 12.5 8.6v4.9z" fill="#7E57C2"/><path d="M21.4 33.9c-.6 0-1-.4-1-1V28c0-3.6 3.7-5.8 9.6-5.8.6 0 1 .4 1 1s-.4 1-1 1c-4.6 0-7.6 1.5-7.6 3.8v4.8c0 .6-.5 1.1-1 1.1z" fill="#B388FF"/><path d="M30 19.4c9.3 0 12.5 4.7 12.5 8.6v4.8c0 4.6-4.8 7.7-12.5 7.7s-12.5-3.1-12.5-7.7V28c0-3.9 3.2-8.6 12.5-8.6zm0-1.9c-10.6 0-14.4 5.7-14.4 10.5v4.8c0 5.8 5.7 9.6 14.4 9.6s14.4-3.8 14.4-9.6V28c0-5.2-4.5-10.5-14.4-10.5z" fill="#B3E5FC" fill-rule="nonzero"/></g></svg>