<svg xmlns="http://www.w3.org/2000/svg" viewBox="0 0 30 36"><path d="M6.3 18.8V25c0 .5-.2.9-.6 1.3-.4.4-.8.6-1.3.6H1.9c-.5 0-.9-.2-1.3-.6C.2 26 0 25.5 0 25v-6.3c0-.9.4-1.5 1.2-1.8H5c.8.4 1.3 1 1.3 1.9zm-5.1-1.3c.2-3.5 1.6-6.4 4.1-8.8C7.8 6.2 10.8 5 14.4 5c3.5 0 6.5 1.2 9 3.6 2.5 2.4 3.9 5.4 4.1 8.8h-1.2c-.2-3.1-1.4-5.8-3.7-7.9s-5-3.3-8.1-3.3-6 1.2-8.3 3.3c-2.3 2.2-3.5 4.8-3.7 7.9H1.2zM5 18.8c0-.4-.2-.6-.6-.6H1.9c-.4 0-.6.2-.6.6V25c0 .4.2.6.6.6h2.5c.4 0 .6-.2.6-.6v-6.2zM12.6 30h6.3v2.5h-6.3V30zm5.2 3.8c5.7 0 9.3-.8 11-2.4.8-.8 1.2-1.9 1.2-3.2v-6.3c0-.4-.2-.6-.6-.6-.4 0-.6.2-.6.6v6.3c0 1-.3 1.8-.9 2.3-1.3 1.3-4.8 2-10.3 2H15c-.4 0-.6.2-.6.6 0 .4.2.6.6.6h2.8zm11-15V25c0 .5-.2.9-.6 1.3-.4.4-.8.6-1.3.6h-2.5c-.5 0-.9-.2-1.3-.6-.4-.4-.6-.8-.6-1.3v-6.3c0-.9.4-1.5 1.3-1.8h3.8c.8.5 1.2 1 1.2 1.9zm-1.3 0c0-.4-.2-.6-.6-.6h-2.5c-.4 0-.6.2-.6.6V25c0 .4.2.6.6.6h2.5c.4 0 .6-.2.6-.6v-6.2z" fill="#fff"/></svg>