<?xml version="1.0" encoding="utf-8"?>
<!-- Generator: Adobe Illustrator 22.1.0, SVG Export Plug-In . SVG Version: 6.00 Build 0)  -->
<!DOCTYPE svg PUBLIC "-//W3C//DTD SVG 1.1//EN" "http://www.w3.org/Graphics/SVG/1.1/DTD/svg11.dtd">
<svg version="1.1" id="Layer_1" xmlns="http://www.w3.org/2000/svg" xmlns:xlink="http://www.w3.org/1999/xlink" x="0px" y="0px"
	 viewBox="0 0 30 36" style="enable-background:new 0 0 30 36;" xml:space="preserve">
<style type="text/css">
	.st0{enable-background:new    ;}
	.st1{fill:#FFFFFF;}
</style>
<g class="st0">
	<path class="st1" d="M9,20.9c-2.1-0.2-4-1.1-5.4-2.7c-1.5-1.6-2.2-3.5-2.2-5.7c0-0.2,0-0.4,0-0.6c0-0.2,0-0.4,0-0.5
		c0.4-2.9,1.2-4.9,2.2-5.9c0,1,0.3,1.9,1,2.6C5.2,8.9,6,9.5,7,10.1c0.9,0.6,1.9,1.2,2.8,2s1.7,1.9,2.4,3.4c0.7,1.5,1,3.4,1,5.6
		C11.9,21.1,10.4,21.1,9,20.9z M9.1,19.7c1,0.1,2,0.2,2.8,0.2c-0.1-1.7-0.5-3.1-1.1-4.3C10.2,14.3,9.6,13.5,9,13
		c-0.6-0.5-1.5-1.1-2.6-1.8c-1.3-0.8-2.3-1.7-3.1-2.8c-0.4,1.3-0.6,2.4-0.7,3.2c0,0.2-0.1,0.6-0.1,1C2.5,14.2,3,15.7,4,17
		C5.4,18.7,7.1,19.6,9.1,19.7z M20.2,23.5c-1.7,0-3.2-0.5-4.6-1.5l0.1,6.4c1.7,0.2,3.1,0.9,4.2,2.1c1.2,1.3,1.7,2.7,1.7,4.5v0.6H8.4
		v-0.6c0-1.7,0.6-3.2,1.7-4.5c1.2-1.2,2.6-2,4.3-2.1v-8.4v-0.2c0-1.4,0.4-2.6,1.3-3.7c0.9-1.1,2-1.8,3.4-2.1c0.5-0.1,1-0.1,1.3-0.1
		h0.1c0.4,0,1.2,0,2.3,0.1c1.1,0.1,2,0.1,2.6,0.1c0.2,0,0.4,0.1,0.6,0.1c1.4,0,2.7-0.4,3.9-1.3c0,2.3-0.9,4.7-2.8,7.1
		c-1.8,2.4-4.1,3.6-6.9,3.6H20.2z M18.6,30.9c-1-0.9-2.2-1.3-3.6-1.3c-1.4,0-2.6,0.4-3.6,1.3c-1,0.9-1.6,2-1.8,3.4h10.8
		C20.2,32.9,19.6,31.8,18.6,30.9z M19.4,15.1c-1.1,0.2-2,0.7-2.7,1.6c-0.7,0.9-1.1,1.9-1.1,3v0.2c0,0.5,0.5,1,1.4,1.6
		c1,0.5,2.1,0.8,3.4,0.8c2,0,3.6-0.8,5.1-2.3c1.4-1.5,2.5-3.2,3.1-5.2c-0.9,0.2-1.8,0.4-2.8,0.4h-0.2c-0.7,0-1.6,0-2.8-0.1
		c-1-0.1-1.7-0.1-2.2-0.1h-0.1C20,15,19.6,15,19.4,15.1L19.4,15.1z"/>
</g>
</svg>
