<svg xmlns="http://www.w3.org/2000/svg" viewBox="0 0 30 36"><path d="M9 20.9c-2.1-.2-4-1.1-5.4-2.7-1.5-1.6-2.2-3.5-2.2-5.7v-1.1c.4-2.9 1.2-4.9 2.2-5.9 0 1 .3 1.9 1 2.6.6.8 1.4 1.4 2.4 2 .9.6 1.9 1.2 2.8 2s1.7 1.9 2.4 3.4 1 3.4 1 5.6c-1.3 0-2.8 0-4.2-.2zm.1-1.2c1 .1 2 .2 2.8.2-.1-1.7-.5-3.1-1.1-4.3-.6-1.3-1.2-2.1-1.8-2.6-.6-.5-1.5-1.1-2.6-1.8-1.3-.8-2.3-1.7-3.1-2.8-.4 1.3-.6 2.4-.7 3.2 0 .2-.1.6-.1 1 0 1.6.5 3.1 1.5 4.4 1.4 1.7 3.1 2.6 5.1 2.7zm11.1 3.8c-1.7 0-3.2-.5-4.6-1.5l.1 6.4c1.7.2 3.1.9 4.2 2.1 1.2 1.3 1.7 2.7 1.7 4.5v.6H8.4V35c0-1.7.6-3.2 1.7-4.5 1.2-1.2 2.6-2 4.3-2.1v-8.6c0-1.4.4-2.6 1.3-3.7s2-1.8 3.4-2.1c.5-.1 1-.1 1.3-.1h.1c.4 0 1.2 0 2.3.1 1.1.1 2 .1 2.6.1.2 0 .4.1.6.1 1.4 0 2.7-.4 3.9-1.3 0 2.3-.9 4.7-2.8 7.1-1.8 2.4-4.1 3.6-6.9 3.6zm-1.6 7.4c-1-.9-2.2-1.3-3.6-1.3s-2.6.4-3.6 1.3-1.6 2-1.8 3.4h10.8c-.2-1.4-.8-2.5-1.8-3.4zm.8-15.8c-1.1.2-2 .7-2.7 1.6-.7.9-1.1 1.9-1.1 3v.2c0 .5.5 1 1.4 1.6 1 .5 2.1.8 3.4.8 2 0 3.6-.8 5.1-2.3 1.4-1.5 2.5-3.2 3.1-5.2-.9.2-1.8.4-2.8.4h-.2c-.7 0-1.6 0-2.8-.1-1-.1-1.7-.1-2.2-.1h-.1c-.5 0-.9 0-1.1.1z" fill="#fff"/></svg>