<svg width="659" height="190" viewBox="0 0 659 190" fill="none" xmlns="http://www.w3.org/2000/svg">
<path d="M146.238 152V37.6267H217.944V52.4818H163.494V87.3299H214.203V102.129H163.494V137.145H218.614V152H146.238ZM256.353 101.068V152H239.655V66.22H255.682V80.1816H256.744C258.717 75.6394 261.807 71.9908 266.014 69.2357C270.258 66.4806 275.601 65.1031 282.042 65.1031C287.887 65.1031 293.006 66.3317 297.4 68.7889C301.793 71.2089 305.2 74.8203 307.62 79.6231C310.04 84.4259 311.25 90.3642 311.25 97.4381V152H294.552V99.4486C294.552 93.231 292.932 88.3724 289.693 84.8727C286.454 81.3357 282.005 79.5673 276.346 79.5673C272.474 79.5673 269.03 80.405 266.014 82.0804C263.036 83.7558 260.671 86.213 258.922 89.4521C257.209 92.6539 256.353 96.526 256.353 101.068ZM370.614 153.731C362.163 153.731 354.884 151.926 348.778 148.314C342.71 144.666 338.019 139.546 334.705 132.956C331.429 126.329 329.791 118.567 329.791 109.668C329.791 100.882 331.429 93.1379 334.705 86.4364C338.019 79.7348 342.635 74.5039 348.555 70.7435C354.512 66.9832 361.474 65.1031 369.441 65.1031C374.281 65.1031 378.973 65.9035 383.515 67.5045C388.057 69.1054 392.134 71.6185 395.745 75.0437C399.357 78.469 402.205 82.9181 404.29 88.391C406.375 93.8267 407.417 100.435 407.417 108.216V114.136H339.229V101.627H391.054C391.054 97.2333 390.16 93.3427 388.373 89.9547C386.586 86.5295 384.073 83.8302 380.834 81.857C377.632 79.8837 373.872 78.8971 369.553 78.8971C364.862 78.8971 360.767 80.0513 357.267 82.3596C353.804 84.6307 351.124 87.6092 349.225 91.295C347.364 94.9436 346.433 98.9087 346.433 103.19V112.963C346.433 118.697 347.438 123.574 349.448 127.595C351.496 131.616 354.344 134.688 357.993 136.81C361.642 138.895 365.905 139.937 370.782 139.937C373.946 139.937 376.832 139.49 379.438 138.597C382.044 137.666 384.297 136.289 386.195 134.464C388.094 132.64 389.546 130.387 390.551 127.707L406.356 130.555C405.09 135.209 402.819 139.286 399.543 142.785C396.304 146.248 392.227 148.947 387.312 150.883C382.435 152.782 376.869 153.731 370.614 153.731ZM425.944 152V66.22H442.084V79.8465H442.977C444.541 75.2299 447.296 71.5999 451.242 68.9565C455.226 66.2758 459.731 64.9355 464.757 64.9355C465.8 64.9355 467.028 64.9728 468.443 65.0472C469.895 65.1217 471.031 65.2148 471.85 65.3265V81.2985C471.18 81.1124 469.988 80.9076 468.276 80.6842C466.563 80.4236 464.85 80.2933 463.138 80.2933C459.191 80.2933 455.673 81.131 452.583 82.8064C449.53 84.4445 447.11 86.7342 445.323 89.6755C443.536 92.5795 442.642 95.893 442.642 99.6161V152H425.944ZM519.193 185.955C512.38 185.955 506.516 185.061 501.602 183.274C496.725 181.487 492.741 179.123 489.651 176.181C486.561 173.24 484.252 170.02 482.726 166.52L497.078 160.6C498.084 162.238 499.424 163.97 501.099 165.794C502.812 167.656 505.12 169.238 508.024 170.541C510.965 171.844 514.744 172.496 519.361 172.496C525.69 172.496 530.921 170.951 535.054 167.86C539.186 164.807 541.253 159.93 541.253 153.229V136.363H540.192C539.186 138.187 537.734 140.216 535.836 142.45C533.974 144.684 531.405 146.62 528.129 148.258C524.853 149.896 520.59 150.716 515.34 150.716C508.564 150.716 502.458 149.133 497.022 145.969C491.624 142.767 487.342 138.057 484.178 131.839C481.05 125.585 479.487 117.896 479.487 108.775C479.487 99.6533 481.032 91.8349 484.122 85.3195C487.249 78.804 491.531 73.8151 496.967 70.3526C502.402 66.8529 508.564 65.1031 515.452 65.1031C520.776 65.1031 525.076 65.9966 528.352 67.7837C531.629 69.5335 534.179 71.5812 536.003 73.9268C537.865 76.2723 539.298 78.3387 540.303 80.1257H541.532V66.22H557.895V153.899C557.895 161.27 556.182 167.321 552.757 172.049C549.332 176.777 544.697 180.277 538.851 182.548C533.043 184.819 526.491 185.955 519.193 185.955ZM519.026 136.866C523.829 136.866 527.887 135.749 531.2 133.515C534.551 131.244 537.083 128.005 538.796 123.798C540.545 119.553 541.42 114.471 541.42 108.552C541.42 102.781 540.564 97.6987 538.851 93.3055C537.139 88.9122 534.626 85.487 531.312 83.0298C527.999 80.5353 523.903 79.288 519.026 79.288C514 79.288 509.811 80.5911 506.46 83.1973C503.11 85.7662 500.578 89.2659 498.865 93.6964C497.19 98.1269 496.352 103.079 496.352 108.552C496.352 114.173 497.209 119.106 498.921 123.351C500.634 127.595 503.166 130.909 506.516 133.291C509.904 135.674 514.074 136.866 519.026 136.866ZM590.844 184.168C588.35 184.168 586.079 183.963 584.031 183.553C581.983 183.181 580.457 182.771 579.452 182.325L583.473 168.642C586.526 169.461 589.243 169.815 591.626 169.703C594.009 169.592 596.113 168.698 597.937 167.023C599.798 165.347 601.437 162.611 602.851 158.813L604.918 153.117L573.532 66.22H591.403L613.127 132.789H614.021L635.745 66.22H653.672L618.321 163.449C616.683 167.916 614.598 171.695 612.066 174.785C609.534 177.913 606.519 180.258 603.019 181.822C599.519 183.386 595.461 184.168 590.844 184.168Z" fill="#062F07"/>
<path fill-rule="evenodd" clip-rule="evenodd" d="M15.7263 43.2471H0V98.2892H0.00298249C0.00508935 128.686 24.6475 153.327 55.0451 153.327C85.4441 153.327 110.087 128.684 110.087 98.2853V98.2844H94.361V98.2859C94.361 119.999 76.7587 137.602 55.0452 137.602C33.3316 137.602 15.7293 119.999 15.7293 98.2859V98.2844H15.7263V43.2471Z" fill="#0B393A"/>
<path fill-rule="evenodd" clip-rule="evenodd" d="M110.082 43.2471H94.3557V57.0071L80.5972 57.0071V72.7335H94.3557V86.4945H110.082V72.7335H123.845V57.0071L110.082 57.0071V43.2471Z" fill="#0A852B"/>
</svg>
