<svg width="133" height="58" viewBox="0 0 133 58" fill="none" xmlns="http://www.w3.org/2000/svg">
<path d="M68.1589 22.1546C67.8299 21.122 67.3874 20.1972 66.8314 19.3803C66.2867 18.5519 65.6343 17.8484 64.874 17.2697C64.1138 16.6797 63.2458 16.2315 62.2699 15.9251C61.3054 15.6188 60.2445 15.4656 59.0871 15.4656C57.1241 15.4656 55.354 15.9705 53.7768 16.9804C52.1996 17.9903 50.9514 19.471 50.0323 21.4227C49.1246 23.363 48.6707 25.7402 48.6707 28.5542C48.6707 31.3796 49.1303 33.7681 50.0494 35.7197C50.9685 37.6714 52.228 39.1522 53.8279 40.162C55.4278 41.1719 57.2489 41.6768 59.2914 41.6768C61.1863 41.6768 62.8373 41.2911 64.2443 40.5195C65.6626 39.7479 66.7576 38.6586 67.5292 37.2516C68.3121 35.8332 68.7036 34.1652 68.7036 32.2476L70.0652 32.5029H60.0913V28.1627H73.7927V32.1285C73.7927 35.056 73.1686 37.5976 71.9204 39.7536C70.6836 41.8981 68.9702 43.5548 66.7803 44.7235C64.6017 45.8922 62.1054 46.4766 59.2914 46.4766C56.1369 46.4766 53.3683 45.7504 50.9855 44.298C48.614 42.8456 46.7644 40.7861 45.4369 38.1196C44.1093 35.4417 43.4455 32.2646 43.4455 28.5882C43.4455 25.8083 43.8313 23.312 44.6029 21.0993C45.3745 18.8867 46.4581 17.0088 47.8537 15.4656C49.2608 13.9111 50.9117 12.7253 52.8066 11.9084C54.7129 11.08 56.7951 10.6659 59.0531 10.6659C60.9367 10.6659 62.6898 10.9439 64.3124 11.4999C65.9463 12.0559 67.3987 12.8445 68.6696 13.8657C69.9518 14.8869 71.0127 16.101 71.8524 17.508C72.692 18.9037 73.2594 20.4525 73.5544 22.1546H68.1589ZM91.0725 46.5276C88.6216 46.5276 86.4827 45.966 84.6559 44.8426C82.829 43.7193 81.4107 42.1477 80.4008 40.128C79.3909 38.1083 78.886 35.7481 78.886 33.0476C78.886 30.3357 79.3909 27.9642 80.4008 25.9331C81.4107 23.902 82.829 22.3248 84.6559 21.2014C86.4827 20.0781 88.6216 19.5164 91.0725 19.5164C93.5234 19.5164 95.6623 20.0781 97.4892 21.2014C99.316 22.3248 100.734 23.902 101.744 25.9331C102.754 27.9642 103.259 30.3357 103.259 33.0476C103.259 35.7481 102.754 38.1083 101.744 40.128C100.734 42.1477 99.316 43.7193 97.4892 44.8426C95.6623 45.966 93.5234 46.5276 91.0725 46.5276ZM91.0895 42.2555C92.6781 42.2555 93.9943 41.8357 95.0382 40.996C96.0822 40.1564 96.8537 39.0387 97.353 37.643C97.8636 36.2474 98.1189 34.7099 98.1189 33.0305C98.1189 31.3625 97.8636 29.8307 97.353 28.4351C96.8537 27.028 96.0822 25.899 95.0382 25.048C93.9943 24.197 92.6781 23.7715 91.0895 23.7715C89.4896 23.7715 88.162 24.197 87.1068 25.048C86.0629 25.899 85.2856 27.028 84.775 28.4351C84.2757 29.8307 84.0261 31.3625 84.0261 33.0305C84.0261 34.7099 84.2757 36.2474 84.775 37.643C85.2856 39.0387 86.0629 40.1564 87.1068 40.996C88.162 41.8357 89.4896 42.2555 91.0895 42.2555ZM130.415 19.8568L120.935 46H115.488L105.991 19.8568H111.454L118.075 39.9748H118.348L124.951 19.8568H130.415Z" fill="#112F4A"/>
<path fill-rule="evenodd" clip-rule="evenodd" d="M4.79291 13.1807H0V29.9559H0.00097659C0.00150434 39.2201 7.51182 46.7301 16.7762 46.7301C26.0409 46.7301 33.5514 39.2196 33.5514 29.9549V29.9548H28.7585V29.9549C28.7585 36.5726 23.3939 41.9372 16.7762 41.9372C10.1586 41.9372 4.79395 36.5726 4.79395 29.9549V29.9548H4.79291V13.1807Z" fill="#112F4A"/>
<path fill-rule="evenodd" clip-rule="evenodd" d="M33.5497 13.1807H28.7568V17.374H24.5635L24.5635 22.1669H28.7568V26.3612H33.5497V22.1669H37.744V17.374H33.5497V13.1807Z" fill="#056BC8"/>
</svg>
