<?xml version="1.0" encoding="utf-8"?>
<!-- Generator: Adobe Illustrator 23.0.1, SVG Export Plug-In . SVG Version: 6.00 Build 0)  -->
<svg version="1.1" id="U_Bank_Logo" xmlns="http://www.w3.org/2000/svg" xmlns:xlink="http://www.w3.org/1999/xlink" x="0px"
	 y="0px" viewBox="0 0 222.1 30.4" style="enable-background:new 0 0 222.1 30.4;" xml:space="preserve">
<style type="text/css">
	.st0{fill:#FFFFFF;}
	.st1{opacity:0.4;fill:#FFFFFF;}
</style>
<g>
	<path class="st0" d="M14.1,28.5C6.3,28.5,0,22.2,0,14.4V0h4v14.4C4,20,8.5,24.5,14.1,24.5S24.3,20,24.3,14.4h4
		C28.3,22.2,21.9,28.5,14.1,28.5z"/>
	<polygon class="st1" points="32.1,3.8 28.3,3.8 28.3,0 24.3,0 24.3,3.8 20.4,3.8 20.4,7.8 24.3,7.8 24.3,11.6 28.3,11.6 28.3,7.8 
		32.1,7.8 	"/>
	<g>
		<path class="st0" d="M42.8,0.2v28.4h-4.5V0.2H42.8z"/>
		<path class="st0" d="M53,7.5l0.7,3.6c0.1-0.4,2-4,6.8-4c4.3,0,8,2.6,8,8.9v12.6H64V16.2c0-3.1-1.8-4.9-4.6-4.9
			c-3.6,0-5.4,2.9-5.4,5.6v11.7h-4.5V7.5H53z"/>
		<path class="st0" d="M73.2,27.2l1.4-3.2c1.2,0.6,3.6,1.5,6.2,1.5c3.2,0,4.5-1.2,4.5-2.6c0-4.2-11.9-1.7-11.9-9.5
			c0-3.8,3-6.2,7.9-6.2c3.1,0,5.9,0.9,7.3,1.6l-1.4,3.1c0,0-2.8-1.2-5.6-1.2c-2.7,0-4.1,1.1-4.1,2.6c0,4.1,11.9,1.8,11.9,9.5
			c0,3.9-3.2,6.2-8.4,6.2C77.1,29,74.3,27.7,73.2,27.2z"/>
		<path class="st0" d="M98.2,7.5v12.4c0,3.1,1.5,4.9,4.7,4.9c3.6,0,5.4-2.1,5.4-4.8V7.5h4.5v21.1h-3.4l-0.6-3.1
			c-1.3,2.2-3.4,3.5-6.8,3.5c-5.3,0-8.1-3.2-8.1-8.8V7.5H98.2z"/>
		<path class="st0" d="M122.3,7.7l0.6,3.6c1-2.5,2.9-3.7,6.7-3.7c0.1,0,0.3,0,0.4,0v4.1c-0.2,0-0.4,0-0.6,0c-3.4,0-6.2,1.3-6.2,6.1
			v10.9h-4.5v-21H122.3z"/>
		<path class="st0" d="M141.9,7.1c5.2,0,8.1,2.3,8.1,6.9v9.8c0,0.6,0.4,0.8,1.1,0.8c0.3,0,1,0,1.7-0.1v3.5c-0.2,0.1-1.7,0.6-3,0.6
			c-1.6,0-3.5-0.7-3.5-2.7v-0.4c-1.1,2.2-3.5,3.5-6.8,3.5c-4.2,0-7.6-2.4-7.6-6.8c0-4.8,4.1-6.6,9.1-6.6c1.5,0,3.9,0.2,4.9,0.3v-1.2
			c0-3.3-2.2-4-4.6-4c-1.7,0-4.7,0.4-6.7,0.9l-0.8-3.1C135.4,7.9,138.8,7.1,141.9,7.1z M141.5,18.7c-2.5,0-5.6,0.4-5.6,3.4
			c0,2.3,2,3.4,4.3,3.4c2.8,0,5.6-1.7,5.6-4.2v-2.2C145,18.9,143.1,18.7,141.5,18.7z"/>
		<path class="st0" d="M160.2,7.5l0.7,3.6c0.1-0.4,2-4,6.8-4c4.3,0,8,2.6,8,8.9v12.6h-4.5V16.2c0-3.1-1.8-4.9-4.6-4.9
			c-3.6,0-5.4,2.9-5.4,5.6v11.7h-4.5V7.5H160.2z"/>
		<path class="st0" d="M198.3,8.8l-1.6,3.3c-0.2-0.1-2.2-1.1-4.7-1.1c-5.1,0-7.2,4.1-7.2,7.1c0,3.1,2.3,7,7.1,7c2.5,0,4.5-0.9,4.7-1
			l1.4,3.3c-1.6,1-4.5,1.6-6.7,1.6c-6.2,0-11.1-5-11.1-11c0-5.9,4.9-10.9,11.4-10.9C194.4,7.1,196.6,7.9,198.3,8.8z"/>
		<path class="st0" d="M211.3,7.1c6.4,0,9.7,5.2,9.7,10.7c0,1.2-0.2,2-0.2,2h-15.5c0.2,3.5,3.2,5.4,6.6,5.4c2.3,0,4.6-0.7,6.2-1.4
			l1.5,3.2c-1.9,1.1-4.9,1.9-7.8,1.9c-6.5,0-11.1-4.5-11.1-10.8C200.7,11.9,205,7.1,211.3,7.1z M216.8,16.5
			c-0.1-2.8-1.6-5.5-5.3-5.5c-3.3,0-5.8,2.2-6.2,5.5H216.8z"/>
	</g>
</g>
</svg>
