<svg version="1.1" id="U_Bank_Logo" xmlns="http://www.w3.org/2000/svg" x="0" y="0" viewBox="0 0 222.1 30.4" xml:space="preserve"><style>.st0{fill:#fff}</style><path class="st0" d="M14.1 28.5C6.3 28.5 0 22.2 0 14.4V0h4v14.4C4 20 8.5 24.5 14.1 24.5S24.3 20 24.3 14.4h4c0 7.8-6.4 14.1-14.2 14.1z"/><path opacity=".4" fill="#fff" d="M32.1 3.8h-3.8V0h-4v3.8h-3.9v4h3.9v3.8h4V7.8h3.8z"/><path class="st0" d="M42.8.2v28.4h-4.5V.2h4.5zM53 7.5l.7 3.6c.1-.4 2-4 6.8-4 4.3 0 8 2.6 8 8.9v12.6H64V16.2c0-3.1-1.8-4.9-4.6-4.9-3.6 0-5.4 2.9-5.4 5.6v11.7h-4.5V7.5H53zm20.2 19.7l1.4-3.2c1.2.6 3.6 1.5 6.2 1.5 3.2 0 4.5-1.2 4.5-2.6 0-4.2-11.9-1.7-11.9-9.5 0-3.8 3-6.2 7.9-6.2 3.1 0 5.9.9 7.3 1.6l-1.4 3.1s-2.8-1.2-5.6-1.2c-2.7 0-4.1 1.1-4.1 2.6 0 4.1 11.9 1.8 11.9 9.5 0 3.9-3.2 6.2-8.4 6.2-3.9 0-6.7-1.3-7.8-1.8zm25-19.7v12.4c0 3.1 1.5 4.9 4.7 4.9 3.6 0 5.4-2.1 5.4-4.8V7.5h4.5v21.1h-3.4l-.6-3.1c-1.3 2.2-3.4 3.5-6.8 3.5-5.3 0-8.1-3.2-8.1-8.8V7.5h4.3zm24.1.2l.6 3.6c1-2.5 2.9-3.7 6.7-3.7h.4v4.1h-.6c-3.4 0-6.2 1.3-6.2 6.1v10.9h-4.5v-21h3.6zm19.6-.6c5.2 0 8.1 2.3 8.1 6.9v9.8c0 .6.4.8 1.1.8.3 0 1 0 1.7-.1V28c-.2.1-1.7.6-3 .6-1.6 0-3.5-.7-3.5-2.7v-.4c-1.1 2.2-3.5 3.5-6.8 3.5-4.2 0-7.6-2.4-7.6-6.8 0-4.8 4.1-6.6 9.1-6.6 1.5 0 3.9.2 4.9.3v-1.2c0-3.3-2.2-4-4.6-4-1.7 0-4.7.4-6.7.9l-.8-3.1c1.6-.6 5-1.4 8.1-1.4zm-.4 11.6c-2.5 0-5.6.4-5.6 3.4 0 2.3 2 3.4 4.3 3.4 2.8 0 5.6-1.7 5.6-4.2v-2.2c-.8-.2-2.7-.4-4.3-.4zm18.7-11.2l.7 3.6c.1-.4 2-4 6.8-4 4.3 0 8 2.6 8 8.9v12.6h-4.5V16.2c0-3.1-1.8-4.9-4.6-4.9-3.6 0-5.4 2.9-5.4 5.6v11.7h-4.5V7.5h3.5zm38.1 1.3l-1.6 3.3c-.2-.1-2.2-1.1-4.7-1.1-5.1 0-7.2 4.1-7.2 7.1 0 3.1 2.3 7 7.1 7 2.5 0 4.5-.9 4.7-1l1.4 3.3c-1.6 1-4.5 1.6-6.7 1.6-6.2 0-11.1-5-11.1-11 0-5.9 4.9-10.9 11.4-10.9 2.8 0 5 .8 6.7 1.7zm13-1.7c6.4 0 9.7 5.2 9.7 10.7 0 1.2-.2 2-.2 2h-15.5c.2 3.5 3.2 5.4 6.6 5.4 2.3 0 4.6-.7 6.2-1.4l1.5 3.2c-1.9 1.1-4.9 1.9-7.8 1.9-6.5 0-11.1-4.5-11.1-10.8 0-6.2 4.3-11 10.6-11zm5.5 9.4c-.1-2.8-1.6-5.5-5.3-5.5-3.3 0-5.8 2.2-6.2 5.5h11.5z"/></svg>